<?xml version="1.0" encoding="UTF-8"?>
<svg xmlns="http://www.w3.org/2000/svg" xmlns:xlink="http://www.w3.org/1999/xlink" width="324" height="152" viewBox="0 0 324 152">
<path fill="none" stroke-width="0.7" stroke-linecap="butt" stroke-linejoin="miter" stroke="rgb(0%, 0%, 0%)" stroke-opacity="1" stroke-miterlimit="4" d="M 118.78528 -131.564352 C 118.78528 -124.16818 112.786687 -118.169587 105.390515 -118.169587 C 97.990418 -118.169587 91.991824 -124.16818 91.991824 -131.564352 C 91.991824 -138.964449 97.990418 -144.963043 105.390515 -144.963043 C 112.786687 -144.963043 118.78528 -138.964449 118.78528 -131.564352 Z M 118.78528 -131.564352 " transform="matrix(0.995025, 0, 0, 0.995025, 4.422874, 148.023089)"/>
<path fill-rule="nonzero" fill="rgb(0%, 0%, 0%)" fill-opacity="1" d="M 110.292969 15.160156 C 110.480469 15.160156 110.648438 15.175781 110.800781 15.207031 L 110.710938 15.804688 C 110.53125 15.769531 110.378906 15.75 110.246094 15.746094 C 109.898438 15.75 109.605469 15.890625 109.359375 16.167969 C 109.113281 16.449219 108.992188 16.796875 108.992188 17.210938 L 108.992188 19.496094 L 108.347656 19.496094 L 108.347656 15.238281 L 108.882812 15.238281 L 108.953125 16.027344 L 108.984375 16.027344 C 109.140625 15.753906 109.332031 15.539062 109.558594 15.386719 C 109.777344 15.238281 110.023438 15.160156 110.292969 15.160156 Z M 107.664062 10.988281 "/>
<path fill-rule="nonzero" fill="rgb(0%, 0%, 0%)" fill-opacity="1" d="M 0.378906 37.40625 L -0.265625 37.40625 L -0.265625 33.148438 L 0.378906 33.148438 Z M -0.320312 31.992188 C -0.320312 31.851562 -0.285156 31.742188 -0.210938 31.671875 C -0.140625 31.601562 -0.0507812 31.566406 0.0625 31.566406 C 0.164062 31.566406 0.253906 31.601562 0.328125 31.671875 C 0.398438 31.742188 0.4375 31.851562 0.441406 31.992188 C 0.4375 32.140625 0.398438 32.25 0.328125 32.320312 C 0.253906 32.394531 0.164062 32.429688 0.0625 32.425781 C -0.0507812 32.429688 -0.140625 32.394531 -0.210938 32.320312 C -0.285156 32.25 -0.320312 32.140625 -0.320312 31.992188 Z M 4.664062 37.40625 L 4.664062 34.652344 C 4.660156 34.304688 4.582031 34.046875 4.425781 33.875 C 4.265625 33.703125 4.019531 33.617188 3.683594 33.617188 C 3.234375 33.617188 2.90625 33.738281 2.703125 33.980469 C 2.496094 34.222656 2.394531 34.621094 2.394531 35.171875 L 2.394531 37.40625 L 1.75 37.40625 L 1.75 33.148438 L 2.273438 33.148438 L 2.378906 33.730469 L 2.410156 33.730469 C 2.539062 33.523438 2.722656 33.363281 2.964844 33.246094 C 3.203125 33.128906 3.464844 33.070312 3.761719 33.070312 C 4.269531 33.070312 4.65625 33.195312 4.921875 33.445312 C 5.175781 33.691406 5.308594 34.089844 5.308594 34.628906 L 5.308594 37.40625 Z M 8.011719 36.953125 C 8.121094 36.953125 8.230469 36.945312 8.339844 36.929688 C 8.445312 36.914062 8.527344 36.898438 8.59375 36.875 L 8.59375 37.371094 C 8.519531 37.40625 8.417969 37.425781 8.28125 37.449219 C 8.144531 37.46875 8.023438 37.480469 7.917969 37.484375 C 7.089844 37.480469 6.675781 37.050781 6.679688 36.183594 L 6.679688 33.648438 L 6.070312 33.648438 L 6.070312 33.339844 L 6.679688 33.070312 L 6.953125 32.160156 L 7.328125 32.160156 L 7.328125 33.148438 L 8.5625 33.148438 L 8.5625 33.648438 L 7.328125 33.648438 L 7.328125 36.15625 C 7.328125 36.417969 7.382812 36.617188 7.507812 36.746094 C 7.625 36.886719 7.792969 36.953125 8.011719 36.953125 Z M 11.386719 33.070312 C 11.574219 33.070312 11.746094 33.085938 11.898438 33.117188 L 11.808594 33.714844 C 11.628906 33.679688 11.472656 33.660156 11.339844 33.65625 C 10.996094 33.660156 10.699219 33.800781 10.457031 34.078125 C 10.210938 34.359375 10.089844 34.707031 10.089844 35.121094 L 10.089844 37.40625 L 9.445312 37.40625 L 9.445312 33.148438 L 9.976562 33.148438 L 10.050781 33.9375 L 10.082031 33.9375 C 10.238281 33.664062 10.429688 33.453125 10.652344 33.296875 C 10.875 33.148438 11.121094 33.070312 11.386719 33.070312 Z M 13.339844 37.40625 L 12.695312 37.40625 L 12.695312 33.148438 L 13.339844 33.148438 Z M 12.640625 31.992188 C 12.640625 31.851562 12.675781 31.742188 12.75 31.671875 C 12.820312 31.601562 12.90625 31.566406 13.019531 31.566406 C 13.121094 31.566406 13.210938 31.601562 13.289062 31.671875 C 13.359375 31.742188 13.398438 31.851562 13.402344 31.992188 C 13.398438 32.140625 13.359375 32.25 13.289062 32.320312 C 13.210938 32.394531 13.121094 32.429688 13.019531 32.425781 C 12.90625 32.429688 12.820312 32.394531 12.75 32.320312 C 12.675781 32.25 12.640625 32.140625 12.640625 31.992188 Z M 17.621094 37.40625 L 17.621094 34.652344 C 17.617188 34.304688 17.539062 34.046875 17.386719 33.875 C 17.226562 33.703125 16.976562 33.617188 16.644531 33.617188 C 16.191406 33.617188 15.867188 33.738281 15.664062 33.980469 C 15.453125 34.222656 15.351562 34.621094 15.351562 35.171875 L 15.351562 37.40625 L 14.707031 37.40625 L 14.707031 33.148438 L 15.230469 33.148438 L 15.335938 33.730469 L 15.367188 33.730469 C 15.496094 33.523438 15.683594 33.363281 15.925781 33.246094 C 16.160156 33.128906 16.425781 33.070312 16.722656 33.070312 C 17.230469 33.070312 17.613281 33.195312 17.878906 33.445312 C 18.136719 33.691406 18.269531 34.089844 18.269531 34.628906 L 18.269531 37.40625 Z M 22.339844 36.246094 C 22.335938 36.644531 22.191406 36.949219 21.898438 37.164062 C 21.597656 37.378906 21.183594 37.480469 20.652344 37.484375 C 20.085938 37.480469 19.648438 37.398438 19.332031 37.21875 L 19.332031 36.621094 C 19.535156 36.726562 19.753906 36.808594 19.988281 36.863281 C 20.222656 36.925781 20.453125 36.953125 20.667969 36.953125 C 21.003906 36.953125 21.261719 36.902344 21.445312 36.792969 C 21.625 36.6875 21.71875 36.523438 21.71875 36.300781 C 21.71875 36.136719 21.644531 35.996094 21.5 35.875 C 21.359375 35.761719 21.078125 35.621094 20.660156 35.457031 C 20.261719 35.3125 19.976562 35.183594 19.816406 35.070312 C 19.644531 34.964844 19.519531 34.839844 19.441406 34.695312 C 19.355469 34.558594 19.316406 34.390625 19.320312 34.195312 C 19.316406 33.851562 19.457031 33.574219 19.746094 33.375 C 20.023438 33.171875 20.414062 33.070312 20.90625 33.070312 C 21.363281 33.070312 21.808594 33.164062 22.25 33.351562 L 22.023438 33.875 C 21.59375 33.699219 21.207031 33.613281 20.859375 33.609375 C 20.554688 33.613281 20.324219 33.660156 20.167969 33.753906 C 20.011719 33.851562 19.933594 33.984375 19.933594 34.152344 C 19.933594 34.269531 19.960938 34.363281 20.019531 34.441406 C 20.078125 34.523438 20.171875 34.601562 20.304688 34.671875 C 20.429688 34.75 20.675781 34.855469 21.050781 34.988281 C 21.550781 35.171875 21.894531 35.355469 22.074219 35.542969 C 22.246094 35.730469 22.335938 35.964844 22.339844 36.246094 Z M 24.035156 37.40625 L 23.390625 37.40625 L 23.390625 33.148438 L 24.035156 33.148438 Z M 23.335938 31.992188 C 23.335938 31.851562 23.371094 31.742188 23.445312 31.671875 C 23.515625 31.601562 23.605469 31.566406 23.71875 31.566406 C 23.816406 31.566406 23.90625 31.601562 23.984375 31.671875 C 24.054688 31.742188 24.09375 31.851562 24.097656 31.992188 C 24.09375 32.140625 24.054688 32.25 23.984375 32.320312 C 23.90625 32.394531 23.816406 32.429688 23.71875 32.425781 C 23.605469 32.429688 23.515625 32.394531 23.445312 32.320312 C 23.371094 32.25 23.335938 32.140625 23.335938 31.992188 Z M 28.152344 36.246094 C 28.148438 36.644531 28 36.949219 27.707031 37.164062 C 27.410156 37.378906 26.992188 37.480469 26.464844 37.484375 C 25.898438 37.480469 25.457031 37.398438 25.144531 37.21875 L 25.144531 36.621094 C 25.34375 36.726562 25.5625 36.808594 25.800781 36.863281 C 26.035156 36.925781 26.261719 36.953125 26.480469 36.953125 C 26.816406 36.953125 27.070312 36.902344 27.257812 36.792969 C 27.4375 36.6875 27.53125 36.523438 27.53125 36.300781 C 27.53125 36.136719 27.457031 35.996094 27.3125 35.875 C 27.167969 35.761719 26.886719 35.621094 26.472656 35.457031 C 26.074219 35.3125 25.789062 35.183594 25.625 35.070312 C 25.453125 34.964844 25.328125 34.839844 25.253906 34.695312 C 25.167969 34.558594 25.128906 34.390625 25.132812 34.195312 C 25.128906 33.851562 25.269531 33.574219 25.554688 33.375 C 25.835938 33.171875 26.222656 33.070312 26.71875 33.070312 C 27.171875 33.070312 27.621094 33.164062 28.0625 33.351562 L 27.832031 33.875 C 27.40625 33.699219 27.015625 33.613281 26.671875 33.609375 C 26.363281 33.613281 26.132812 33.660156 25.980469 33.753906 C 25.824219 33.851562 25.746094 33.984375 25.746094 34.152344 C 25.746094 34.269531 25.773438 34.363281 25.832031 34.441406 C 25.890625 34.523438 25.984375 34.601562 26.113281 34.671875 C 26.238281 34.75 26.488281 34.855469 26.863281 34.988281 C 27.363281 35.171875 27.703125 35.355469 27.882812 35.542969 C 28.058594 35.730469 28.148438 35.964844 28.152344 36.246094 Z M 30.902344 37.484375 C 30.28125 37.480469 29.804688 37.296875 29.46875 36.917969 C 29.128906 36.539062 28.960938 36 28.964844 35.304688 C 28.960938 34.59375 29.132812 34.042969 29.476562 33.652344 C 29.820312 33.265625 30.308594 33.070312 30.945312 33.070312 C 31.148438 33.070312 31.355469 33.09375 31.5625 33.136719 C 31.761719 33.183594 31.921875 33.234375 32.042969 33.292969 L 31.84375 33.839844 C 31.699219 33.785156 31.546875 33.738281 31.378906 33.699219 C 31.207031 33.660156 31.058594 33.640625 30.929688 33.640625 C 30.0625 33.640625 29.628906 34.195312 29.632812 35.296875 C 29.628906 35.824219 29.734375 36.226562 29.949219 36.503906 C 30.15625 36.785156 30.472656 36.925781 30.886719 36.921875 C 31.242188 36.925781 31.605469 36.847656 31.980469 36.691406 L 31.980469 37.265625 C 31.691406 37.410156 31.332031 37.480469 30.902344 37.484375 Z M 35.90625 37.40625 L 35.90625 34.652344 C 35.902344 34.304688 35.824219 34.046875 35.667969 33.875 C 35.507812 33.703125 35.261719 33.617188 34.925781 33.617188 C 34.476562 33.617188 34.148438 33.742188 33.941406 33.984375 C 33.738281 34.234375 33.636719 34.628906 33.636719 35.179688 L 33.636719 37.40625 L 32.992188 37.40625 L 32.992188 31.359375 L 33.636719 31.359375 L 33.636719 33.191406 C 33.636719 33.417969 33.625 33.597656 33.605469 33.738281 L 33.644531 33.738281 C 33.769531 33.535156 33.949219 33.375 34.183594 33.257812 C 34.417969 33.140625 34.6875 33.082031 34.988281 33.078125 C 35.507812 33.082031 35.898438 33.207031 36.160156 33.453125 C 36.417969 33.699219 36.550781 34.09375 36.550781 34.628906 L 36.550781 37.40625 Z M 39.675781 37.484375 C 39.046875 37.480469 38.550781 37.296875 38.183594 36.910156 C 37.820312 36.53125 37.636719 35.996094 37.640625 35.3125 C 37.636719 34.628906 37.804688 34.082031 38.144531 33.675781 C 38.480469 33.273438 38.933594 33.070312 39.507812 33.070312 C 40.039062 33.070312 40.460938 33.25 40.777344 33.597656 C 41.082031 33.953125 41.238281 34.414062 41.242188 34.988281 L 41.242188 35.394531 L 38.308594 35.394531 C 38.316406 35.898438 38.445312 36.277344 38.683594 36.535156 C 38.925781 36.792969 39.265625 36.925781 39.699219 36.921875 C 40.160156 36.925781 40.609375 36.828125 41.058594 36.632812 L 41.058594 37.210938 C 40.828125 37.3125 40.613281 37.382812 40.410156 37.417969 C 40.207031 37.460938 39.964844 37.480469 39.675781 37.484375 Z M 39.5 33.609375 C 39.160156 33.613281 38.882812 33.722656 38.679688 33.945312 C 38.476562 34.171875 38.359375 34.480469 38.324219 34.871094 L 40.550781 34.871094 C 40.550781 34.464844 40.457031 34.15625 40.277344 33.9375 C 40.09375 33.722656 39.835938 33.613281 39.5 33.609375 Z M 49.46875 37.40625 L 48.8125 37.40625 L 47.667969 33.601562 C 47.613281 33.4375 47.550781 33.222656 47.484375 32.964844 C 47.414062 32.710938 47.378906 32.558594 47.378906 32.503906 C 47.320312 32.847656 47.230469 33.222656 47.109375 33.625 L 45.996094 37.40625 L 45.34375 37.40625 L 43.832031 31.726562 L 44.53125 31.726562 L 45.429688 35.234375 C 45.554688 35.730469 45.640625 36.175781 45.699219 36.574219 C 45.765625 36.101562 45.871094 35.636719 46.011719 35.179688 L 47.03125 31.726562 L 47.730469 31.726562 L 48.796875 35.210938 C 48.921875 35.617188 49.027344 36.070312 49.113281 36.574219 C 49.160156 36.207031 49.253906 35.757812 49.394531 35.226562 L 50.289062 31.726562 L 50.988281 31.726562 Z M 54.238281 37.40625 L 54.113281 36.800781 L 54.082031 36.800781 C 53.863281 37.070312 53.652344 37.253906 53.445312 37.347656 C 53.234375 37.4375 52.96875 37.480469 52.65625 37.484375 C 52.230469 37.480469 51.898438 37.378906 51.660156 37.160156 C 51.417969 36.945312 51.296875 36.632812 51.300781 36.230469 C 51.296875 35.371094 51.984375 34.921875 53.367188 34.878906 L 54.089844 34.855469 L 54.089844 34.589844 C 54.085938 34.261719 54.011719 34.011719 53.871094 33.851562 C 53.722656 33.691406 53.492188 33.613281 53.183594 33.609375 C 52.824219 33.613281 52.425781 33.722656 51.976562 33.9375 L 51.78125 33.445312 C 51.984375 33.332031 52.214844 33.242188 52.46875 33.175781 C 52.714844 33.113281 52.96875 33.082031 53.222656 33.078125 C 53.726562 33.082031 54.101562 33.195312 54.347656 33.417969 C 54.589844 33.644531 54.714844 34.007812 54.71875 34.5 L 54.71875 37.40625 Z M 52.78125 36.953125 C 53.183594 36.953125 53.496094 36.84375 53.726562 36.625 C 53.957031 36.40625 54.074219 36.097656 54.074219 35.699219 L 54.074219 35.3125 L 53.429688 35.339844 C 52.910156 35.359375 52.542969 35.441406 52.316406 35.582031 C 52.085938 35.726562 51.972656 35.941406 51.976562 36.238281 C 51.972656 36.476562 52.042969 36.652344 52.1875 36.769531 C 52.328125 36.894531 52.527344 36.953125 52.78125 36.953125 Z M 57.75 37.484375 C 57.128906 37.480469 56.648438 37.296875 56.316406 36.917969 C 55.972656 36.539062 55.804688 36 55.808594 35.304688 C 55.804688 34.59375 55.976562 34.042969 56.324219 33.652344 C 56.664062 33.265625 57.15625 33.070312 57.792969 33.070312 C 57.996094 33.070312 58.199219 33.09375 58.40625 33.136719 C 58.609375 33.183594 58.769531 33.234375 58.890625 33.292969 L 58.691406 33.839844 C 58.546875 33.785156 58.390625 33.738281 58.222656 33.699219 C 58.054688 33.660156 57.90625 33.640625 57.777344 33.640625 C 56.910156 33.640625 56.476562 34.195312 56.480469 35.296875 C 56.476562 35.824219 56.578125 36.226562 56.792969 36.503906 C 57.003906 36.785156 57.320312 36.925781 57.734375 36.921875 C 58.089844 36.925781 58.453125 36.847656 58.828125 36.691406 L 58.828125 37.265625 C 58.539062 37.410156 58.175781 37.480469 57.75 37.484375 Z M 62.753906 37.40625 L 62.753906 34.652344 C 62.75 34.304688 62.671875 34.046875 62.515625 33.875 C 62.355469 33.703125 62.105469 33.617188 61.773438 33.617188 C 61.320312 33.617188 60.996094 33.742188 60.789062 33.984375 C 60.582031 34.234375 60.484375 34.628906 60.484375 35.179688 L 60.484375 37.40625 L 59.835938 37.40625 L 59.835938 31.359375 L 60.484375 31.359375 L 60.484375 33.191406 C 60.484375 33.417969 60.472656 33.597656 60.453125 33.738281 L 60.488281 33.738281 C 60.613281 33.535156 60.796875 33.375 61.03125 33.257812 C 61.265625 33.140625 61.53125 33.082031 61.835938 33.078125 C 62.355469 33.082031 62.746094 33.207031 63.003906 33.453125 C 63.265625 33.699219 63.398438 34.09375 63.398438 34.628906 L 63.398438 37.40625 Z M 67.472656 36.246094 C 67.46875 36.644531 67.320312 36.949219 67.027344 37.164062 C 66.730469 37.378906 66.3125 37.480469 65.785156 37.484375 C 65.214844 37.480469 64.777344 37.398438 64.460938 37.21875 L 64.460938 36.621094 C 64.664062 36.726562 64.882812 36.808594 65.121094 36.863281 C 65.351562 36.925781 65.582031 36.953125 65.800781 36.953125 C 66.132812 36.953125 66.390625 36.902344 66.578125 36.792969 C 66.753906 36.6875 66.847656 36.523438 66.847656 36.300781 C 66.847656 36.136719 66.773438 35.996094 66.632812 35.875 C 66.488281 35.761719 66.207031 35.621094 65.792969 35.457031 C 65.390625 35.3125 65.109375 35.183594 64.945312 35.070312 C 64.773438 34.964844 64.648438 34.839844 64.570312 34.695312 C 64.484375 34.558594 64.445312 34.390625 64.449219 34.195312 C 64.445312 33.851562 64.585938 33.574219 64.875 33.375 C 65.15625 33.171875 65.542969 33.070312 66.035156 33.070312 C 66.492188 33.070312 66.9375 33.164062 67.382812 33.351562 L 67.152344 33.875 C 66.726562 33.699219 66.335938 33.613281 65.988281 33.609375 C 65.683594 33.613281 65.453125 33.660156 65.296875 33.753906 C 65.144531 33.851562 65.066406 33.984375 65.066406 34.152344 C 65.066406 34.269531 65.09375 34.363281 65.152344 34.441406 C 65.207031 34.523438 65.300781 34.601562 65.433594 34.671875 C 65.558594 34.75 65.808594 34.855469 66.179688 34.988281 C 66.683594 35.171875 67.023438 35.355469 67.203125 35.542969 C 67.378906 35.730469 67.46875 35.964844 67.472656 36.246094 Z M 69.894531 36.953125 C 70.003906 36.953125 70.117188 36.945312 70.226562 36.929688 C 70.332031 36.914062 70.414062 36.898438 70.480469 36.875 L 70.480469 37.371094 C 70.40625 37.40625 70.304688 37.425781 70.167969 37.449219 C 70.03125 37.46875 69.90625 37.480469 69.804688 37.484375 C 68.976562 37.480469 68.5625 37.050781 68.566406 36.183594 L 68.566406 33.648438 L 67.957031 33.648438 L 67.957031 33.339844 L 68.566406 33.070312 L 68.839844 32.160156 L 69.210938 32.160156 L 69.210938 33.148438 L 70.449219 33.148438 L 70.449219 33.648438 L 69.210938 33.648438 L 69.210938 36.15625 C 69.210938 36.417969 69.269531 36.617188 69.394531 36.746094 C 69.511719 36.886719 69.679688 36.953125 69.894531 36.953125 Z M 71.9375 33.148438 L 71.9375 35.910156 C 71.933594 36.261719 72.015625 36.523438 72.175781 36.6875 C 72.328125 36.863281 72.574219 36.949219 72.917969 36.945312 C 73.359375 36.949219 73.6875 36.824219 73.890625 36.582031 C 74.097656 36.339844 74.203125 35.941406 74.203125 35.386719 L 74.203125 33.148438 L 74.847656 33.148438 L 74.847656 37.40625 L 74.316406 37.40625 L 74.222656 36.835938 L 74.1875 36.835938 C 74.050781 37.046875 73.867188 37.210938 73.636719 37.320312 C 73.398438 37.429688 73.128906 37.480469 72.835938 37.484375 C 72.3125 37.480469 71.925781 37.363281 71.667969 37.117188 C 71.410156 36.871094 71.28125 36.480469 71.285156 35.933594 L 71.285156 33.148438 Z M 81.644531 37.40625 L 81.644531 34.636719 C 81.640625 34.300781 81.570312 34.046875 81.429688 33.875 C 81.28125 33.703125 81.054688 33.617188 80.753906 33.617188 C 80.347656 33.617188 80.050781 33.734375 79.863281 33.964844 C 79.667969 34.199219 79.570312 34.550781 79.574219 35.03125 L 79.574219 37.40625 L 78.929688 37.40625 L 78.929688 34.636719 C 78.925781 34.300781 78.851562 34.046875 78.710938 33.875 C 78.5625 33.703125 78.339844 33.617188 78.03125 33.617188 C 77.625 33.617188 77.328125 33.742188 77.140625 33.984375 C 76.953125 34.230469 76.863281 34.625 76.863281 35.171875 L 76.863281 37.40625 L 76.214844 37.40625 L 76.214844 33.148438 L 76.742188 33.148438 L 76.847656 33.730469 L 76.878906 33.730469 C 76.996094 33.523438 77.167969 33.363281 77.390625 33.246094 C 77.613281 33.128906 77.859375 33.070312 78.136719 33.070312 C 78.800781 33.070312 79.234375 33.3125 79.441406 33.792969 L 79.472656 33.792969 C 79.597656 33.570312 79.78125 33.398438 80.023438 33.265625 C 80.261719 33.136719 80.539062 33.070312 80.847656 33.070312 C 81.332031 33.070312 81.6875 33.195312 81.929688 33.445312 C 82.167969 33.691406 82.289062 34.089844 82.292969 34.628906 L 82.292969 37.40625 Z M 86.367188 36.246094 C 86.363281 36.644531 86.21875 36.949219 85.925781 37.164062 C 85.625 37.378906 85.210938 37.480469 84.683594 37.484375 C 84.113281 37.480469 83.675781 37.398438 83.359375 37.21875 L 83.359375 36.621094 C 83.5625 36.726562 83.78125 36.808594 84.015625 36.863281 C 84.25 36.925781 84.480469 36.953125 84.699219 36.953125 C 85.03125 36.953125 85.289062 36.902344 85.476562 36.792969 C 85.652344 36.6875 85.746094 36.523438 85.746094 36.300781 C 85.746094 36.136719 85.671875 35.996094 85.527344 35.875 C 85.386719 35.761719 85.105469 35.621094 84.691406 35.457031 C 84.289062 35.3125 84.003906 35.183594 83.84375 35.070312 C 83.671875 34.964844 83.546875 34.839844 83.46875 34.695312 C 83.382812 34.558594 83.34375 34.390625 83.347656 34.195312 C 83.34375 33.851562 83.484375 33.574219 83.773438 33.375 C 84.050781 33.171875 84.441406 33.070312 84.933594 33.070312 C 85.390625 33.070312 85.835938 33.164062 86.277344 33.351562 L 86.050781 33.875 C 85.621094 33.699219 85.234375 33.613281 84.886719 33.609375 C 84.582031 33.613281 84.351562 33.660156 84.195312 33.753906 C 84.039062 33.851562 83.960938 33.984375 83.960938 34.152344 C 83.960938 34.269531 83.988281 34.363281 84.046875 34.441406 C 84.105469 34.523438 84.199219 34.601562 84.332031 34.671875 C 84.457031 34.75 84.703125 34.855469 85.078125 34.988281 C 85.578125 35.171875 85.921875 35.355469 86.101562 35.542969 C 86.273438 35.730469 86.363281 35.964844 86.367188 36.246094 Z M 89.363281 33.070312 C 89.546875 33.070312 89.71875 33.085938 89.871094 33.117188 L 89.78125 33.714844 C 89.601562 33.679688 89.445312 33.660156 89.316406 33.65625 C 88.96875 33.660156 88.671875 33.800781 88.429688 34.078125 C 88.183594 34.359375 88.0625 34.707031 88.0625 35.121094 L 88.0625 37.40625 L 87.417969 37.40625 L 87.417969 33.148438 L 87.949219 33.148438 L 88.023438 33.9375 L 88.054688 33.9375 C 88.210938 33.664062 88.402344 33.453125 88.625 33.296875 C 88.847656 33.148438 89.09375 33.070312 89.363281 33.070312 Z M 93.128906 37.40625 L 93 36.800781 L 92.96875 36.800781 C 92.75 37.070312 92.539062 37.253906 92.332031 37.347656 C 92.121094 37.4375 91.855469 37.480469 91.542969 37.484375 C 91.117188 37.480469 90.789062 37.378906 90.546875 37.160156 C 90.304688 36.945312 90.183594 36.632812 90.1875 36.230469 C 90.183594 35.371094 90.875 34.921875 92.253906 34.878906 L 92.976562 34.855469 L 92.976562 34.589844 C 92.972656 34.261719 92.898438 34.011719 92.757812 33.851562 C 92.609375 33.691406 92.382812 33.613281 92.070312 33.609375 C 91.714844 33.613281 91.3125 33.722656 90.867188 33.9375 L 90.667969 33.445312 C 90.875 33.332031 91.101562 33.242188 91.355469 33.175781 C 91.605469 33.113281 91.855469 33.082031 92.109375 33.078125 C 92.613281 33.082031 92.988281 33.195312 93.238281 33.417969 C 93.476562 33.644531 93.601562 34.007812 93.605469 34.5 L 93.605469 37.40625 Z M 91.671875 36.953125 C 92.070312 36.953125 92.386719 36.84375 92.613281 36.625 C 92.84375 36.40625 92.960938 36.097656 92.960938 35.699219 L 92.960938 35.3125 L 92.316406 35.339844 C 91.796875 35.359375 91.429688 35.441406 91.203125 35.582031 C 90.972656 35.726562 90.863281 35.941406 90.867188 36.238281 C 90.863281 36.476562 90.933594 36.652344 91.074219 36.769531 C 91.214844 36.894531 91.414062 36.953125 91.671875 36.953125 Z M 96.3125 36.953125 C 96.421875 36.953125 96.53125 36.945312 96.640625 36.929688 C 96.746094 36.914062 96.828125 36.898438 96.894531 36.875 L 96.894531 37.371094 C 96.820312 37.40625 96.71875 37.425781 96.582031 37.449219 C 96.445312 37.46875 96.324219 37.480469 96.21875 37.484375 C 95.390625 37.480469 94.976562 37.050781 94.980469 36.183594 L 94.980469 33.648438 L 94.371094 33.648438 L 94.371094 33.339844 L 94.980469 33.070312 L 95.253906 32.160156 L 95.628906 32.160156 L 95.628906 33.148438 L 96.863281 33.148438 L 96.863281 33.648438 L 95.628906 33.648438 L 95.628906 36.15625 C 95.628906 36.417969 95.683594 36.617188 95.808594 36.746094 C 95.925781 36.886719 96.09375 36.953125 96.3125 36.953125 Z M 99.546875 37.484375 C 98.914062 37.480469 98.417969 37.296875 98.050781 36.910156 C 97.6875 36.53125 97.503906 35.996094 97.507812 35.3125 C 97.503906 34.628906 97.671875 34.082031 98.011719 33.675781 C 98.347656 33.273438 98.800781 33.070312 99.378906 33.070312 C 99.90625 33.070312 100.328125 33.25 100.644531 33.597656 C 100.953125 33.953125 101.109375 34.414062 101.109375 34.988281 L 101.109375 35.394531 L 98.175781 35.394531 C 98.183594 35.898438 98.3125 36.277344 98.554688 36.535156 C 98.792969 36.792969 99.132812 36.925781 99.566406 36.921875 C 100.027344 36.925781 100.476562 36.828125 100.929688 36.632812 L 100.929688 37.210938 C 100.695312 37.3125 100.480469 37.382812 100.28125 37.417969 C 100.078125 37.460938 99.832031 37.480469 99.546875 37.484375 Z M 99.371094 33.609375 C 99.027344 33.613281 98.753906 33.722656 98.550781 33.945312 C 98.34375 34.171875 98.226562 34.480469 98.191406 34.871094 L 100.417969 34.871094 C 100.417969 34.464844 100.328125 34.15625 100.148438 33.9375 C 99.960938 33.722656 99.703125 33.613281 99.371094 33.609375 Z M -0.949219 28.898438 "/>
<path fill="none" stroke-width="0.5" stroke-linecap="butt" stroke-linejoin="miter" stroke="rgb(0%, 0%, 0%)" stroke-opacity="1" stroke-miterlimit="4" d="M 214.389828 -42.566894 L 200.889066 -51.564784 L 173.887544 -51.564784 L 160.390709 -42.566894 L 173.887544 -33.565078 L 200.889066 -33.565078 Z M 214.389828 -42.566894 " transform="matrix(0.995025, 0, 0, 0.995025, 4.422874, 148.023089)"/>
<path fill-rule="nonzero" fill="rgb(0%, 0%, 0%)" fill-opacity="1" d="M 178.746094 107.058594 L 178.085938 107.058594 L 177.894531 103.308594 C 177.871094 102.960938 177.859375 102.59375 177.863281 102.214844 L 177.839844 102.214844 C 177.773438 102.402344 177.695312 102.601562 177.605469 102.816406 C 177.511719 103.03125 176.859375 104.445312 175.644531 107.058594 L 174.96875 107.058594 L 174.726562 101.378906 L 175.386719 101.378906 L 175.507812 104.878906 L 175.515625 105.222656 C 175.515625 105.476562 175.5 105.8125 175.476562 106.222656 L 175.5 106.222656 C 175.726562 105.597656 175.929688 105.101562 176.109375 104.734375 L 177.679688 101.378906 L 178.375 101.378906 L 178.539062 104.71875 C 178.558594 105.121094 178.570312 105.511719 178.574219 105.902344 L 178.570312 106.222656 L 178.605469 106.222656 C 178.800781 105.648438 178.96875 105.191406 179.117188 104.847656 L 180.621094 101.378906 L 181.328125 101.378906 Z M 182.96875 102.722656 C 183.203125 102.722656 183.414062 102.789062 183.605469 102.917969 C 183.789062 103.042969 183.933594 103.226562 184.039062 103.46875 L 184.082031 103.46875 L 184.34375 102.800781 L 184.835938 102.800781 L 183.929688 107.058594 L 183.414062 107.058594 L 183.515625 106.246094 L 183.484375 106.246094 C 183.019531 106.84375 182.527344 107.132812 182.019531 107.136719 C 181.652344 107.132812 181.375 107.007812 181.171875 106.753906 C 180.964844 106.5 180.859375 106.152344 180.863281 105.699219 C 180.859375 105.164062 180.953125 104.660156 181.140625 104.199219 C 181.324219 103.742188 181.578125 103.378906 181.902344 103.113281 C 182.222656 102.855469 182.578125 102.722656 182.96875 102.722656 Z M 182.230469 106.597656 C 182.476562 106.601562 182.730469 106.480469 182.980469 106.238281 C 183.226562 106.003906 183.429688 105.691406 183.585938 105.304688 C 183.742188 104.921875 183.820312 104.535156 183.820312 104.144531 C 183.820312 103.878906 183.746094 103.671875 183.601562 103.507812 C 183.453125 103.351562 183.261719 103.269531 183.03125 103.269531 C 182.757812 103.269531 182.503906 103.382812 182.277344 103.605469 C 182.042969 103.828125 181.863281 104.132812 181.730469 104.511719 C 181.597656 104.894531 181.535156 105.296875 181.535156 105.714844 C 181.535156 106.015625 181.589844 106.234375 181.714844 106.378906 C 181.832031 106.527344 182.003906 106.601562 182.230469 106.597656 Z M 186.949219 107.136719 C 186.441406 107.132812 186.054688 106.996094 185.777344 106.722656 C 185.496094 106.445312 185.359375 106.058594 185.363281 105.546875 C 185.359375 105.035156 185.457031 104.558594 185.648438 104.113281 C 185.839844 103.679688 186.105469 103.335938 186.441406 103.089844 C 186.78125 102.847656 187.160156 102.722656 187.585938 102.722656 C 187.9375 102.722656 188.285156 102.789062 188.625 102.921875 L 188.445312 103.46875 C 188.132812 103.335938 187.847656 103.269531 187.59375 103.269531 C 187.300781 103.269531 187.035156 103.371094 186.796875 103.570312 C 186.554688 103.769531 186.367188 104.042969 186.234375 104.398438 C 186.097656 104.75 186.03125 105.136719 186.03125 105.546875 C 186.03125 105.882812 186.117188 106.140625 186.285156 106.320312 C 186.457031 106.507812 186.695312 106.601562 187.003906 106.597656 C 187.183594 106.601562 187.359375 106.574219 187.53125 106.519531 C 187.695312 106.46875 187.855469 106.40625 188.019531 106.335938 L 188.019531 106.894531 C 187.695312 107.054688 187.335938 107.132812 186.949219 107.136719 Z M 191.398438 107.058594 L 191.972656 104.371094 C 192.015625 104.128906 192.039062 103.953125 192.042969 103.84375 C 192.039062 103.464844 191.847656 103.269531 191.472656 103.269531 C 191.238281 103.269531 191.011719 103.347656 190.796875 103.5 C 190.574219 103.65625 190.378906 103.875 190.214844 104.167969 C 190.046875 104.460938 189.921875 104.8125 189.839844 105.222656 L 189.445312 107.058594 L 188.792969 107.058594 L 190.078125 101.011719 L 190.730469 101.011719 C 190.679688 101.230469 190.636719 101.4375 190.59375 101.628906 C 190.550781 101.832031 190.503906 102.035156 190.460938 102.242188 C 190.414062 102.445312 190.367188 102.660156 190.3125 102.886719 C 190.257812 103.109375 190.195312 103.355469 190.132812 103.621094 L 190.171875 103.621094 C 190.414062 103.300781 190.652344 103.074219 190.894531 102.9375 C 191.125 102.804688 191.375 102.734375 191.640625 102.730469 C 191.972656 102.734375 192.238281 102.828125 192.425781 103.011719 C 192.609375 103.199219 192.703125 103.464844 192.703125 103.804688 C 192.703125 103.964844 192.671875 104.179688 192.613281 104.449219 C 192.511719 104.949219 192.324219 105.820312 192.050781 107.058594 Z M 196.015625 105.851562 C 196.015625 106.257812 195.871094 106.574219 195.585938 106.800781 C 195.296875 107.023438 194.890625 107.132812 194.375 107.136719 C 193.9375 107.132812 193.539062 107.046875 193.191406 106.871094 L 193.191406 106.253906 C 193.367188 106.363281 193.566406 106.449219 193.777344 106.507812 C 193.988281 106.570312 194.179688 106.601562 194.359375 106.597656 C 194.6875 106.601562 194.929688 106.535156 195.097656 106.402344 C 195.261719 106.273438 195.34375 106.109375 195.347656 105.90625 C 195.34375 105.757812 195.300781 105.632812 195.210938 105.53125 C 195.117188 105.429688 194.917969 105.296875 194.625 105.117188 C 194.28125 104.929688 194.046875 104.742188 193.910156 104.5625 C 193.765625 104.382812 193.695312 104.167969 193.699219 103.914062 C 193.695312 103.5625 193.828125 103.273438 194.089844 103.050781 C 194.351562 102.835938 194.695312 102.722656 195.125 102.722656 C 195.566406 102.722656 195.992188 102.820312 196.410156 103.011719 L 196.199219 103.542969 L 195.980469 103.445312 C 195.714844 103.335938 195.429688 103.28125 195.125 103.277344 C 194.878906 103.28125 194.695312 103.339844 194.558594 103.449219 C 194.417969 103.566406 194.347656 103.710938 194.351562 103.882812 C 194.347656 104.03125 194.394531 104.15625 194.488281 104.257812 C 194.582031 104.363281 194.773438 104.496094 195.058594 104.65625 C 195.335938 104.8125 195.535156 104.949219 195.652344 105.058594 C 195.773438 105.175781 195.863281 105.296875 195.925781 105.417969 C 195.984375 105.550781 196.015625 105.695312 196.015625 105.851562 Z M 198.101562 106.605469 C 198.242188 106.605469 198.429688 106.574219 198.664062 106.503906 L 198.664062 107.003906 C 198.570312 107.042969 198.460938 107.070312 198.335938 107.097656 C 198.203125 107.121094 198.101562 107.132812 198.023438 107.136719 C 197.699219 107.132812 197.449219 107.058594 197.277344 106.910156 C 197.109375 106.753906 197.023438 106.523438 197.023438 106.214844 C 197.023438 106.050781 197.046875 105.855469 197.09375 105.632812 L 197.585938 103.292969 L 196.917969 103.292969 L 196.972656 103.011719 L 197.691406 102.707031 L 198.175781 101.820312 L 198.558594 101.820312 L 198.34375 102.800781 L 199.410156 102.800781 L 199.308594 103.292969 L 198.246094 103.292969 L 197.746094 105.640625 C 197.699219 105.871094 197.675781 106.042969 197.675781 106.15625 C 197.675781 106.300781 197.710938 106.410156 197.789062 106.488281 C 197.859375 106.566406 197.964844 106.605469 198.101562 106.605469 Z M 200.902344 102.800781 L 200.320312 105.5 C 200.269531 105.734375 200.246094 105.914062 200.25 106.042969 C 200.246094 106.414062 200.433594 106.601562 200.820312 106.597656 C 201.046875 106.601562 201.269531 106.523438 201.492188 106.363281 C 201.710938 106.210938 201.902344 105.988281 202.074219 105.695312 C 202.242188 105.40625 202.371094 105.058594 202.460938 104.644531 L 202.847656 102.800781 L 203.492188 102.800781 L 202.597656 107.058594 L 202.054688 107.058594 L 202.140625 106.269531 L 202.09375 106.269531 C 201.839844 106.597656 201.597656 106.824219 201.367188 106.945312 C 201.132812 107.074219 200.898438 107.132812 200.652344 107.136719 C 200.320312 107.132812 200.058594 107.046875 199.871094 106.871094 C 199.679688 106.691406 199.582031 106.433594 199.585938 106.097656 C 199.582031 105.941406 199.613281 105.714844 199.671875 105.425781 L 200.242188 102.800781 Z M 206.449219 107.058594 L 207.023438 104.371094 C 207.066406 104.128906 207.089844 103.953125 207.09375 103.84375 C 207.089844 103.667969 207.050781 103.523438 206.972656 103.421875 C 206.890625 103.320312 206.75 103.269531 206.5625 103.269531 C 206.339844 103.269531 206.128906 103.347656 205.921875 103.503906 C 205.71875 103.660156 205.535156 103.882812 205.378906 104.171875 C 205.21875 104.464844 205.097656 104.808594 205.015625 105.214844 L 204.625 107.058594 L 203.972656 107.058594 L 204.882812 102.800781 L 205.421875 102.800781 L 205.335938 103.589844 L 205.375 103.589844 C 205.601562 103.285156 205.820312 103.0625 206.046875 102.925781 C 206.269531 102.792969 206.503906 102.722656 206.742188 102.722656 C 207.035156 102.722656 207.261719 102.808594 207.417969 102.976562 C 207.574219 103.144531 207.667969 103.378906 207.699219 103.679688 L 207.730469 103.679688 C 207.953125 103.355469 208.1875 103.117188 208.441406 102.960938 C 208.691406 102.804688 208.941406 102.722656 209.203125 102.722656 C 209.53125 102.722656 209.78125 102.8125 209.964844 102.988281 C 210.144531 103.164062 210.238281 103.421875 210.238281 103.757812 C 210.238281 103.933594 210.207031 104.164062 210.152344 104.449219 L 209.59375 107.058594 L 208.929688 107.058594 L 209.507812 104.371094 C 209.558594 104.105469 209.585938 103.914062 209.585938 103.804688 C 209.585938 103.644531 209.539062 103.515625 209.449219 103.417969 C 209.359375 103.320312 209.21875 103.269531 209.027344 103.269531 C 208.816406 103.269531 208.609375 103.347656 208.40625 103.496094 C 208.199219 103.652344 208.019531 103.863281 207.867188 104.136719 C 207.710938 104.417969 207.59375 104.742188 207.515625 105.117188 L 207.101562 107.058594 Z M 173.859375 98.550781 "/>
<path fill="none" stroke-width="0.7" stroke-linecap="butt" stroke-linejoin="miter" stroke="rgb(100%, 38.823529%, 27.843137%)" stroke-opacity="1" stroke-miterlimit="4" d="M 118.388776 -131.564352 C 161.858951 -131.564352 183.980727 -103.243767 187.023208 -61.783593 " transform="matrix(0.995025, 0, 0, 0.995025, 4.422874, 148.023089)"/>
<path fill-rule="nonzero" fill="rgb(100%, 38.823529%, 27.843137%)" fill-opacity="1" stroke-width="0.7" stroke-linecap="butt" stroke-linejoin="miter" stroke="rgb(100%, 38.823529%, 27.843137%)" stroke-opacity="1" stroke-miterlimit="4" d="M 190.52893 -61.685448 L 187.388305 -51.564784 L 183.533188 -61.434198 Z M 190.52893 -61.685448 " transform="matrix(0.995025, 0, 0, 0.995025, 4.422874, 148.023089)"/>
<path fill="none" stroke-width="0.7" stroke-linecap="butt" stroke-linejoin="miter" stroke="rgb(0%, 0%, 0%)" stroke-opacity="1" stroke-miterlimit="4" d="M 120.685358 -84.5649 C 120.685358 -76.120545 113.83487 -69.270057 105.390515 -69.270057 C 96.942234 -69.270057 90.091746 -76.120545 90.091746 -84.5649 C 90.091746 -93.013181 96.942234 -99.863669 105.390515 -99.863669 C 113.83487 -99.863669 120.685358 -93.013181 120.685358 -84.5649 Z M 120.685358 -84.5649 " transform="matrix(0.995025, 0, 0, 0.995025, 4.422874, 148.023089)"/>
<path fill-rule="nonzero" fill="rgb(0%, 0%, 0%)" fill-opacity="1" d="M 111.730469 66.265625 L 110.953125 66.265625 L 108.882812 63.507812 L 108.285156 64.035156 L 108.285156 66.265625 L 107.625 66.265625 L 107.625 60.582031 L 108.285156 60.582031 L 108.285156 63.398438 L 110.863281 60.582031 L 111.644531 60.582031 L 109.359375 63.050781 Z M 106.84375 57.753906 "/>
<path fill-rule="nonzero" fill="rgb(0%, 0%, 0%)" fill-opacity="1" d="M 38.636719 86.363281 L 37.859375 86.363281 L 35.789062 83.605469 L 35.195312 84.136719 L 35.195312 86.363281 L 34.535156 86.363281 L 34.535156 80.679688 L 35.195312 80.679688 L 35.195312 83.5 L 37.773438 80.679688 L 38.554688 80.679688 L 36.265625 83.148438 Z M 41.941406 86.363281 L 41.8125 85.757812 L 41.78125 85.757812 C 41.566406 86.023438 41.355469 86.207031 41.144531 86.300781 C 40.9375 86.394531 40.671875 86.4375 40.355469 86.441406 C 39.933594 86.4375 39.601562 86.332031 39.363281 86.113281 C 39.121094 85.898438 39 85.589844 39.003906 85.183594 C 39 84.324219 39.6875 83.875 41.066406 83.832031 L 41.789062 83.808594 L 41.789062 83.542969 C 41.785156 83.214844 41.714844 82.964844 41.574219 82.804688 C 41.425781 82.648438 41.195312 82.570312 40.886719 82.566406 C 40.527344 82.570312 40.128906 82.679688 39.679688 82.890625 L 39.480469 82.398438 C 39.6875 82.285156 39.917969 82.195312 40.167969 82.128906 C 40.417969 82.066406 40.671875 82.035156 40.925781 82.03125 C 41.429688 82.035156 41.800781 82.148438 42.050781 82.371094 C 42.292969 82.601562 42.417969 82.960938 42.421875 83.457031 L 42.421875 86.363281 Z M 40.484375 85.90625 C 40.886719 85.90625 41.199219 85.800781 41.429688 85.578125 C 41.660156 85.359375 41.773438 85.054688 41.773438 84.652344 L 41.773438 84.269531 L 41.128906 84.292969 C 40.613281 84.3125 40.242188 84.394531 40.019531 84.535156 C 39.789062 84.679688 39.675781 84.898438 39.679688 85.191406 C 39.675781 85.429688 39.746094 85.609375 39.890625 85.726562 C 40.03125 85.847656 40.226562 85.90625 40.484375 85.90625 Z M 45.730469 86.441406 C 45.453125 86.4375 45.199219 86.390625 44.96875 86.289062 C 44.742188 86.1875 44.550781 86.027344 44.394531 85.816406 L 44.347656 85.816406 C 44.378906 86.0625 44.394531 86.296875 44.394531 86.523438 L 44.394531 88.273438 L 43.75 88.273438 L 43.75 82.101562 L 44.273438 82.101562 L 44.363281 82.6875 L 44.394531 82.6875 C 44.558594 82.457031 44.75 82.289062 44.972656 82.179688 C 45.191406 82.078125 45.445312 82.023438 45.730469 82.023438 C 46.292969 82.023438 46.726562 82.21875 47.039062 82.605469 C 47.339844 82.992188 47.496094 83.53125 47.5 84.230469 C 47.496094 84.929688 47.339844 85.472656 47.03125 85.859375 C 46.71875 86.246094 46.285156 86.4375 45.730469 86.441406 Z M 45.640625 82.574219 C 45.199219 82.574219 44.882812 82.695312 44.695312 82.933594 C 44.496094 83.175781 44.398438 83.558594 44.394531 84.085938 L 44.394531 84.230469 C 44.394531 84.828125 44.492188 85.257812 44.695312 85.515625 C 44.886719 85.777344 45.210938 85.902344 45.652344 85.898438 C 46.019531 85.902344 46.308594 85.753906 46.515625 85.453125 C 46.726562 85.15625 46.832031 84.75 46.832031 84.222656 C 46.832031 83.691406 46.726562 83.285156 46.515625 83 C 46.308594 82.71875 46.011719 82.574219 45.640625 82.574219 Z M 51.246094 86.363281 L 51.117188 85.757812 L 51.089844 85.757812 C 50.871094 86.023438 50.660156 86.207031 50.449219 86.300781 C 50.242188 86.394531 49.976562 86.4375 49.660156 86.441406 C 49.238281 86.4375 48.90625 86.332031 48.667969 86.113281 C 48.425781 85.898438 48.304688 85.589844 48.308594 85.183594 C 48.304688 84.324219 48.992188 83.875 50.371094 83.832031 L 51.097656 83.808594 L 51.097656 83.542969 C 51.09375 83.214844 51.019531 82.964844 50.878906 82.804688 C 50.730469 82.648438 50.5 82.570312 50.191406 82.566406 C 49.832031 82.570312 49.433594 82.679688 48.984375 82.890625 L 48.785156 82.398438 C 48.992188 82.285156 49.222656 82.195312 49.476562 82.128906 C 49.722656 82.066406 49.976562 82.035156 50.230469 82.03125 C 50.734375 82.035156 51.109375 82.148438 51.355469 82.371094 C 51.597656 82.601562 51.722656 82.960938 51.726562 83.457031 L 51.726562 86.363281 Z M 49.789062 85.90625 C 50.191406 85.90625 50.503906 85.800781 50.734375 85.578125 C 50.964844 85.359375 51.082031 85.054688 51.082031 84.652344 L 51.082031 84.269531 L 50.433594 84.292969 C 49.917969 84.3125 49.546875 84.394531 49.324219 84.535156 C 49.09375 84.679688 48.980469 84.898438 48.984375 85.191406 C 48.980469 85.429688 49.050781 85.609375 49.195312 85.726562 C 49.335938 85.847656 49.535156 85.90625 49.789062 85.90625 Z M 55.78125 86.363281 L 52.6875 86.363281 L 52.6875 85.921875 L 55.015625 82.605469 L 52.832031 82.605469 L 52.832031 82.101562 L 55.722656 82.101562 L 55.722656 82.605469 L 53.429688 85.859375 L 55.78125 85.859375 Z M 57.421875 86.363281 L 56.777344 86.363281 L 56.777344 82.101562 L 57.421875 82.101562 Z M 56.722656 80.949219 C 56.722656 80.804688 56.757812 80.695312 56.832031 80.625 C 56.902344 80.554688 56.992188 80.519531 57.105469 80.519531 C 57.207031 80.519531 57.296875 80.554688 57.371094 80.625 C 57.441406 80.695312 57.480469 80.804688 57.484375 80.949219 C 57.480469 81.097656 57.441406 81.203125 57.371094 81.273438 C 57.296875 81.347656 57.207031 81.382812 57.105469 81.378906 C 56.992188 81.382812 56.902344 81.347656 56.832031 81.273438 C 56.757812 81.203125 56.722656 81.097656 56.722656 80.949219 Z M 60.167969 85.90625 C 60.277344 85.90625 60.390625 85.898438 60.496094 85.882812 C 60.601562 85.867188 60.683594 85.851562 60.75 85.832031 L 60.75 86.324219 C 60.675781 86.359375 60.574219 86.382812 60.441406 86.40625 C 60.304688 86.425781 60.179688 86.4375 60.074219 86.441406 C 59.246094 86.4375 58.835938 86.003906 58.839844 85.136719 L 58.839844 82.605469 L 58.226562 82.605469 L 58.226562 82.292969 L 58.839844 82.023438 L 59.109375 81.117188 L 59.484375 81.117188 L 59.484375 82.101562 L 60.71875 82.101562 L 60.71875 82.605469 L 59.484375 82.605469 L 59.484375 85.109375 C 59.484375 85.371094 59.542969 85.570312 59.667969 85.703125 C 59.78125 85.84375 59.949219 85.90625 60.167969 85.90625 Z M 64.222656 86.363281 L 64.09375 85.757812 L 64.0625 85.757812 C 63.84375 86.023438 63.632812 86.207031 63.425781 86.300781 C 63.214844 86.394531 62.949219 86.4375 62.636719 86.441406 C 62.210938 86.4375 61.882812 86.332031 61.640625 86.113281 C 61.398438 85.898438 61.277344 85.589844 61.28125 85.183594 C 61.277344 84.324219 61.96875 83.875 63.347656 83.832031 L 64.070312 83.808594 L 64.070312 83.542969 C 64.066406 83.214844 63.992188 82.964844 63.851562 82.804688 C 63.703125 82.648438 63.476562 82.570312 63.164062 82.566406 C 62.808594 82.570312 62.40625 82.679688 61.960938 82.890625 L 61.761719 82.398438 C 61.96875 82.285156 62.195312 82.195312 62.449219 82.128906 C 62.699219 82.066406 62.949219 82.035156 63.203125 82.03125 C 63.707031 82.035156 64.082031 82.148438 64.332031 82.371094 C 64.570312 82.601562 64.695312 82.960938 64.699219 83.457031 L 64.699219 86.363281 Z M 62.765625 85.90625 C 63.164062 85.90625 63.480469 85.800781 63.707031 85.578125 C 63.9375 85.359375 64.054688 85.054688 64.054688 84.652344 L 64.054688 84.269531 L 63.410156 84.292969 C 62.890625 84.3125 62.523438 84.394531 62.296875 84.535156 C 62.066406 84.679688 61.957031 84.898438 61.960938 85.191406 C 61.957031 85.429688 62.027344 85.609375 62.167969 85.726562 C 62.308594 85.847656 62.507812 85.90625 62.765625 85.90625 Z M 62.003906 80.949219 C 62.003906 80.816406 62.035156 80.71875 62.101562 80.65625 C 62.167969 80.597656 62.253906 80.566406 62.351562 80.566406 C 62.449219 80.566406 62.53125 80.597656 62.605469 80.65625 C 62.675781 80.71875 62.714844 80.816406 62.714844 80.949219 C 62.714844 81.082031 62.675781 81.175781 62.605469 81.238281 C 62.53125 81.304688 62.449219 81.335938 62.351562 81.332031 C 62.253906 81.335938 62.167969 81.304688 62.101562 81.238281 C 62.035156 81.175781 62.003906 81.082031 62.003906 80.949219 Z M 63.484375 80.949219 C 63.484375 80.816406 63.515625 80.71875 63.585938 80.65625 C 63.648438 80.597656 63.734375 80.566406 63.832031 80.566406 C 63.925781 80.566406 64.007812 80.597656 64.082031 80.65625 C 64.152344 80.71875 64.1875 80.816406 64.191406 80.949219 C 64.1875 81.082031 64.152344 81.175781 64.082031 81.238281 C 64.007812 81.304688 63.925781 81.335938 63.832031 81.332031 C 63.734375 81.335938 63.648438 81.304688 63.585938 81.238281 C 63.515625 81.175781 63.484375 81.082031 63.484375 80.949219 Z M 67.40625 85.90625 C 67.515625 85.90625 67.625 85.898438 67.734375 85.882812 C 67.839844 85.867188 67.921875 85.851562 67.988281 85.832031 L 67.988281 86.324219 C 67.914062 86.359375 67.8125 86.382812 67.675781 86.40625 C 67.539062 86.425781 67.417969 86.4375 67.3125 86.441406 C 66.484375 86.4375 66.070312 86.003906 66.074219 85.136719 L 66.074219 82.605469 L 65.464844 82.605469 L 65.464844 82.292969 L 66.074219 82.023438 L 66.347656 81.117188 L 66.722656 81.117188 L 66.722656 82.101562 L 67.957031 82.101562 L 67.957031 82.605469 L 66.722656 82.605469 L 66.722656 85.109375 C 66.722656 85.371094 66.777344 85.570312 66.902344 85.703125 C 67.019531 85.84375 67.1875 85.90625 67.40625 85.90625 Z M 71.585938 85.199219 C 71.582031 85.601562 71.433594 85.902344 71.144531 86.117188 C 70.84375 86.332031 70.429688 86.4375 69.898438 86.441406 C 69.332031 86.4375 68.894531 86.351562 68.578125 86.171875 L 68.578125 85.574219 C 68.78125 85.683594 69 85.765625 69.234375 85.820312 C 69.46875 85.878906 69.699219 85.90625 69.914062 85.90625 C 70.25 85.90625 70.507812 85.855469 70.691406 85.75 C 70.871094 85.644531 70.964844 85.476562 70.964844 85.253906 C 70.964844 85.089844 70.890625 84.953125 70.746094 84.832031 C 70.605469 84.714844 70.324219 84.574219 69.90625 84.410156 C 69.507812 84.269531 69.222656 84.140625 69.0625 84.027344 C 68.890625 83.917969 68.765625 83.792969 68.6875 83.648438 C 68.601562 83.511719 68.5625 83.347656 68.566406 83.148438 C 68.5625 82.804688 68.703125 82.53125 68.992188 82.328125 C 69.269531 82.125 69.660156 82.023438 70.152344 82.023438 C 70.609375 82.023438 71.054688 82.117188 71.496094 82.304688 L 71.269531 82.828125 C 70.839844 82.65625 70.453125 82.570312 70.105469 82.566406 C 69.800781 82.570312 69.570312 82.617188 69.414062 82.710938 C 69.257812 82.804688 69.179688 82.9375 69.179688 83.105469 C 69.179688 83.222656 69.207031 83.320312 69.265625 83.398438 C 69.324219 83.480469 69.417969 83.554688 69.550781 83.625 C 69.675781 83.703125 69.921875 83.808594 70.296875 83.941406 C 70.796875 84.128906 71.140625 84.308594 71.320312 84.496094 C 71.492188 84.683594 71.582031 84.921875 71.585938 85.199219 Z M 76.121094 82.101562 L 76.121094 82.511719 L 75.332031 82.605469 C 75.402344 82.699219 75.464844 82.816406 75.527344 82.960938 C 75.582031 83.109375 75.613281 83.273438 75.613281 83.457031 C 75.613281 83.875 75.46875 84.210938 75.1875 84.453125 C 74.898438 84.707031 74.507812 84.832031 74.011719 84.828125 C 73.878906 84.832031 73.765625 84.820312 73.65625 84.796875 C 73.378906 84.945312 73.238281 85.125 73.242188 85.34375 C 73.238281 85.464844 73.289062 85.550781 73.386719 85.605469 C 73.480469 85.660156 73.644531 85.6875 73.878906 85.6875 L 74.632812 85.6875 C 75.09375 85.6875 75.445312 85.785156 75.695312 85.976562 C 75.945312 86.171875 76.070312 86.453125 76.070312 86.824219 C 76.070312 87.292969 75.878906 87.652344 75.5 87.902344 C 75.121094 88.152344 74.566406 88.273438 73.84375 88.273438 C 73.285156 88.273438 72.855469 88.171875 72.554688 87.964844 C 72.25 87.753906 72.105469 87.460938 72.105469 87.085938 C 72.105469 86.824219 72.1875 86.601562 72.351562 86.414062 C 72.515625 86.222656 72.75 86.097656 73.050781 86.027344 C 72.941406 85.980469 72.847656 85.902344 72.777344 85.800781 C 72.699219 85.699219 72.664062 85.578125 72.667969 85.4375 C 72.664062 85.285156 72.707031 85.148438 72.792969 85.03125 C 72.875 84.917969 73 84.804688 73.183594 84.691406 C 72.960938 84.601562 72.78125 84.445312 72.644531 84.230469 C 72.503906 84.011719 72.433594 83.761719 72.4375 83.484375 C 72.433594 83.015625 72.574219 82.660156 72.859375 82.40625 C 73.132812 82.152344 73.53125 82.023438 74.046875 82.023438 C 74.265625 82.023438 74.46875 82.050781 74.648438 82.101562 Z M 72.726562 87.078125 C 72.722656 87.308594 72.820312 87.480469 73.015625 87.601562 C 73.207031 87.71875 73.488281 87.777344 73.851562 87.78125 C 74.394531 87.777344 74.792969 87.695312 75.054688 87.535156 C 75.316406 87.375 75.441406 87.15625 75.445312 86.878906 C 75.441406 86.644531 75.371094 86.488281 75.234375 86.398438 C 75.089844 86.3125 74.820312 86.269531 74.429688 86.265625 L 73.65625 86.265625 C 73.359375 86.269531 73.128906 86.335938 72.972656 86.476562 C 72.804688 86.613281 72.722656 86.8125 72.726562 87.078125 Z M 73.074219 83.46875 C 73.070312 83.765625 73.15625 83.992188 73.328125 84.144531 C 73.496094 84.296875 73.730469 84.375 74.03125 84.371094 C 74.65625 84.375 74.972656 84.070312 74.976562 83.457031 C 74.972656 82.816406 74.652344 82.5 74.019531 82.496094 C 73.714844 82.5 73.480469 82.582031 73.320312 82.738281 C 73.152344 82.90625 73.070312 83.148438 73.074219 83.46875 Z M 78.941406 82.023438 C 79.128906 82.023438 79.296875 82.039062 79.449219 82.070312 L 79.359375 82.671875 C 79.183594 82.636719 79.027344 82.617188 78.894531 82.613281 C 78.546875 82.617188 78.253906 82.753906 78.007812 83.03125 C 77.761719 83.316406 77.644531 83.660156 77.644531 84.078125 L 77.644531 86.363281 L 76.996094 86.363281 L 76.996094 82.101562 L 77.53125 82.101562 L 77.605469 82.890625 L 77.636719 82.890625 C 77.789062 82.621094 77.980469 82.40625 78.207031 82.25 C 78.429688 82.101562 78.671875 82.023438 78.941406 82.023438 Z M 81.886719 86.441406 C 81.257812 86.4375 80.761719 86.25 80.394531 85.863281 C 80.027344 85.484375 79.847656 84.953125 79.851562 84.269531 C 79.847656 83.582031 80.015625 83.035156 80.355469 82.632812 C 80.691406 82.226562 81.144531 82.023438 81.71875 82.023438 C 82.25 82.023438 82.671875 82.203125 82.988281 82.554688 C 83.292969 82.90625 83.449219 83.371094 83.453125 83.941406 L 83.453125 84.347656 L 80.519531 84.347656 C 80.527344 84.855469 80.65625 85.230469 80.894531 85.488281 C 81.136719 85.75 81.476562 85.878906 81.910156 85.875 C 82.367188 85.878906 82.820312 85.785156 83.269531 85.589844 L 83.269531 86.164062 C 83.039062 86.265625 82.824219 86.335938 82.621094 86.375 C 82.417969 86.417969 82.175781 86.4375 81.886719 86.441406 Z M 81.710938 82.566406 C 81.371094 82.570312 81.09375 82.679688 80.890625 82.898438 C 80.6875 83.125 80.570312 83.4375 80.535156 83.824219 L 82.761719 83.824219 C 82.761719 83.421875 82.667969 83.109375 82.488281 82.890625 C 82.304688 82.679688 82.046875 82.570312 81.710938 82.566406 Z M 87.46875 86.363281 L 87.46875 83.605469 C 87.464844 83.261719 87.386719 83 87.230469 82.828125 C 87.070312 82.660156 86.824219 82.574219 86.488281 82.574219 C 86.039062 82.574219 85.710938 82.695312 85.507812 82.933594 C 85.300781 83.175781 85.199219 83.574219 85.199219 84.128906 L 85.199219 86.363281 L 84.554688 86.363281 L 84.554688 82.101562 L 85.078125 82.101562 L 85.183594 82.6875 L 85.214844 82.6875 C 85.34375 82.480469 85.527344 82.316406 85.769531 82.199219 C 86.007812 82.082031 86.269531 82.023438 86.566406 82.023438 C 87.074219 82.023438 87.460938 82.148438 87.726562 82.398438 C 87.980469 82.648438 88.113281 83.042969 88.113281 83.582031 L 88.113281 86.363281 Z M 92.164062 86.363281 L 89.074219 86.363281 L 89.074219 85.921875 L 91.398438 82.605469 L 89.21875 82.605469 L 89.21875 82.101562 L 92.105469 82.101562 L 92.105469 82.605469 L 89.8125 85.859375 L 92.164062 85.859375 Z M 94.960938 86.441406 C 94.332031 86.4375 93.835938 86.25 93.46875 85.863281 C 93.105469 85.484375 92.921875 84.953125 92.925781 84.269531 C 92.921875 83.582031 93.089844 83.035156 93.429688 82.632812 C 93.765625 82.226562 94.21875 82.023438 94.796875 82.023438 C 95.324219 82.023438 95.746094 82.203125 96.0625 82.554688 C 96.371094 82.90625 96.523438 83.371094 96.527344 83.941406 L 96.527344 84.347656 L 93.59375 84.347656 C 93.601562 84.855469 93.730469 85.230469 93.972656 85.488281 C 94.210938 85.75 94.550781 85.878906 94.984375 85.875 C 95.445312 85.878906 95.894531 85.785156 96.347656 85.589844 L 96.347656 86.164062 C 96.113281 86.265625 95.898438 86.335938 95.695312 86.375 C 95.496094 86.417969 95.25 86.4375 94.960938 86.441406 Z M 94.789062 82.566406 C 94.445312 82.570312 94.167969 82.679688 93.96875 82.898438 C 93.761719 83.125 93.644531 83.4375 93.609375 83.824219 L 95.835938 83.824219 C 95.835938 83.421875 95.742188 83.109375 95.566406 82.890625 C 95.378906 82.679688 95.121094 82.570312 94.789062 82.566406 Z M 33.753906 77.855469 "/>
<path fill="none" stroke-width="0.7" stroke-linecap="butt" stroke-linejoin="miter" stroke="rgb(100%, 38.823529%, 27.843137%)" stroke-opacity="1" stroke-miterlimit="4" d="M 121.388073 -84.5649 C 150.47026 -84.5649 179.870434 -84.403943 186.159536 -61.504862 " transform="matrix(0.995025, 0, 0, 0.995025, 4.422874, 148.023089)"/>
<path fill-rule="nonzero" fill="rgb(100%, 38.823529%, 27.843137%)" fill-opacity="1" stroke-width="0.7" stroke-linecap="butt" stroke-linejoin="miter" stroke="rgb(100%, 38.823529%, 27.843137%)" stroke-opacity="1" stroke-miterlimit="4" d="M 189.633852 -61.920995 L 187.388305 -51.564784 L 182.689145 -61.061249 Z M 189.633852 -61.920995 " transform="matrix(0.995025, 0, 0, 0.995025, 4.422874, 148.023089)"/>
<path fill="none" stroke-width="2" stroke-linecap="butt" stroke-linejoin="miter" stroke="rgb(0%, 0%, 0%)" stroke-opacity="1" stroke-miterlimit="4" d="M 316.950859 -51.172206 L 258.060217 -51.172206 L 258.060217 -33.961582 L 316.950859 -33.961582 Z M 316.950859 -51.172206 " transform="matrix(0.995025, 0, 0, 0.995025, 4.422874, 148.023089)"/>
<path fill-rule="nonzero" fill="rgb(0%, 0%, 0%)" fill-opacity="1" d="M 270.683594 104.027344 C 270.683594 104.605469 270.488281 105.050781 270.09375 105.359375 C 269.703125 105.667969 269.140625 105.824219 268.410156 105.820312 L 267.742188 105.820312 L 267.742188 108.054688 L 267.082031 108.054688 L 267.082031 102.371094 L 268.554688 102.371094 C 269.972656 102.375 270.683594 102.929688 270.683594 104.027344 Z M 267.742188 105.253906 L 268.335938 105.253906 C 268.921875 105.257812 269.34375 105.164062 269.609375 104.96875 C 269.863281 104.78125 269.996094 104.480469 270 104.058594 C 269.996094 103.6875 269.871094 103.40625 269.632812 103.21875 C 269.382812 103.039062 269.003906 102.949219 268.480469 102.945312 L 267.742188 102.945312 Z M 275.453125 105.921875 C 275.453125 106.617188 275.28125 107.160156 274.929688 107.550781 C 274.578125 107.9375 274.09375 108.128906 273.480469 108.132812 C 273.09375 108.128906 272.757812 108.042969 272.464844 107.863281 C 272.167969 107.691406 271.941406 107.433594 271.78125 107.09375 C 271.617188 106.765625 271.535156 106.371094 271.539062 105.921875 C 271.535156 105.230469 271.710938 104.6875 272.0625 104.300781 C 272.40625 103.910156 272.890625 103.71875 273.507812 103.71875 C 274.101562 103.71875 274.570312 103.914062 274.925781 104.3125 C 275.277344 104.707031 275.453125 105.246094 275.453125 105.921875 Z M 272.207031 105.921875 C 272.203125 106.464844 272.3125 106.882812 272.535156 107.164062 C 272.75 107.453125 273.070312 107.597656 273.496094 107.59375 C 273.914062 107.597656 274.234375 107.453125 274.457031 107.167969 C 274.671875 106.886719 274.78125 106.46875 274.785156 105.921875 C 274.78125 105.378906 274.671875 104.972656 274.457031 104.6875 C 274.234375 104.410156 273.910156 104.265625 273.488281 104.265625 C 273.0625 104.265625 272.746094 104.40625 272.53125 104.679688 C 272.3125 104.960938 272.203125 105.375 272.207031 105.921875 Z M 278.566406 108.132812 C 278.289062 108.128906 278.035156 108.082031 277.804688 107.980469 C 277.578125 107.878906 277.386719 107.71875 277.230469 107.507812 L 277.183594 107.507812 C 277.214844 107.753906 277.230469 107.988281 277.230469 108.214844 L 277.230469 109.96875 L 276.585938 109.96875 L 276.585938 103.796875 L 277.109375 103.796875 L 277.199219 104.378906 L 277.230469 104.378906 C 277.394531 104.148438 277.585938 103.980469 277.808594 103.871094 C 278.027344 103.773438 278.28125 103.71875 278.566406 103.71875 C 279.128906 103.71875 279.5625 103.910156 279.875 104.296875 C 280.175781 104.683594 280.332031 105.226562 280.335938 105.921875 C 280.332031 106.621094 280.175781 107.164062 279.867188 107.554688 C 279.554688 107.9375 279.121094 108.128906 278.566406 108.132812 Z M 278.472656 104.265625 C 278.035156 104.265625 277.71875 104.386719 277.53125 104.625 C 277.332031 104.867188 277.234375 105.253906 277.230469 105.777344 L 277.230469 105.921875 C 277.230469 106.519531 277.328125 106.949219 277.53125 107.207031 C 277.722656 107.46875 278.046875 107.597656 278.488281 107.59375 C 278.855469 107.597656 279.144531 107.445312 279.351562 107.144531 C 279.5625 106.851562 279.667969 106.441406 279.667969 105.914062 C 279.667969 105.382812 279.5625 104.976562 279.351562 104.691406 C 279.144531 104.410156 278.847656 104.265625 278.472656 104.265625 Z M 282.070312 103.796875 L 282.070312 106.558594 C 282.066406 106.910156 282.148438 107.167969 282.308594 107.335938 C 282.460938 107.511719 282.707031 107.597656 283.050781 107.59375 C 283.492188 107.597656 283.820312 107.472656 284.023438 107.226562 C 284.230469 106.984375 284.335938 106.589844 284.335938 106.035156 L 284.335938 103.796875 L 284.980469 103.796875 L 284.980469 108.054688 L 284.449219 108.054688 L 284.355469 107.484375 L 284.320312 107.484375 C 284.183594 107.695312 284 107.855469 283.769531 107.964844 C 283.53125 108.078125 283.261719 108.128906 282.96875 108.132812 C 282.445312 108.128906 282.058594 108.007812 281.800781 107.761719 C 281.542969 107.519531 281.414062 107.125 281.417969 106.582031 L 281.417969 103.796875 Z M 286.996094 108.054688 L 286.347656 108.054688 L 286.347656 102.007812 L 286.996094 102.007812 Z M 290.980469 108.054688 L 290.855469 107.449219 L 290.824219 107.449219 C 290.605469 107.71875 290.394531 107.898438 290.183594 107.992188 C 289.976562 108.085938 289.710938 108.128906 289.394531 108.132812 C 288.972656 108.128906 288.640625 108.023438 288.402344 107.804688 C 288.160156 107.59375 288.039062 107.28125 288.042969 106.878906 C 288.039062 106.019531 288.726562 105.566406 290.109375 105.523438 L 290.832031 105.5 L 290.832031 105.238281 C 290.828125 104.90625 290.753906 104.65625 290.613281 104.5 C 290.464844 104.339844 290.234375 104.261719 289.925781 104.257812 C 289.566406 104.261719 289.167969 104.371094 288.71875 104.585938 L 288.523438 104.089844 C 288.726562 103.976562 288.957031 103.886719 289.210938 103.820312 C 289.457031 103.761719 289.710938 103.730469 289.964844 103.726562 C 290.46875 103.730469 290.84375 103.839844 291.089844 104.0625 C 291.332031 104.292969 291.457031 104.652344 291.460938 105.148438 L 291.460938 108.054688 Z M 289.523438 107.601562 C 289.925781 107.601562 290.238281 107.492188 290.46875 107.269531 C 290.699219 107.050781 290.816406 106.746094 290.816406 106.34375 L 290.816406 105.960938 L 290.171875 105.988281 C 289.652344 106.007812 289.285156 106.089844 289.058594 106.226562 C 288.828125 106.371094 288.714844 106.589844 288.71875 106.886719 C 288.714844 107.121094 288.785156 107.300781 288.929688 107.417969 C 289.070312 107.542969 289.269531 107.601562 289.523438 107.601562 Z M 294.164062 107.601562 C 294.273438 107.601562 294.386719 107.59375 294.496094 107.578125 C 294.601562 107.5625 294.683594 107.546875 294.75 107.523438 L 294.75 108.015625 C 294.675781 108.050781 294.574219 108.074219 294.4375 108.097656 C 294.300781 108.117188 294.175781 108.128906 294.074219 108.132812 C 293.246094 108.128906 292.832031 107.699219 292.835938 106.832031 L 292.835938 104.296875 L 292.226562 104.296875 L 292.226562 103.984375 L 292.835938 103.71875 L 293.109375 102.808594 L 293.480469 102.808594 L 293.480469 103.796875 L 294.71875 103.796875 L 294.71875 104.296875 L 293.480469 104.296875 L 293.480469 106.804688 C 293.480469 107.0625 293.539062 107.261719 293.664062 107.394531 C 293.78125 107.535156 293.949219 107.601562 294.164062 107.601562 Z M 296.246094 108.054688 L 295.601562 108.054688 L 295.601562 103.796875 L 296.246094 103.796875 Z M 295.546875 102.640625 C 295.546875 102.496094 295.582031 102.386719 295.652344 102.316406 C 295.722656 102.25 295.8125 102.214844 295.925781 102.214844 C 296.027344 102.214844 296.117188 102.25 296.195312 102.316406 C 296.265625 102.386719 296.304688 102.496094 296.308594 102.640625 C 296.304688 102.789062 296.265625 102.898438 296.195312 102.96875 C 296.117188 103.039062 296.027344 103.074219 295.925781 103.070312 C 295.8125 103.074219 295.722656 103.039062 295.652344 102.96875 C 295.582031 102.898438 295.546875 102.789062 295.546875 102.640625 Z M 301.289062 105.921875 C 301.289062 106.617188 301.113281 107.160156 300.765625 107.550781 C 300.414062 107.9375 299.929688 108.128906 299.316406 108.132812 C 298.929688 108.128906 298.59375 108.042969 298.300781 107.863281 C 298 107.691406 297.777344 107.433594 297.617188 107.09375 C 297.453125 106.765625 297.371094 106.371094 297.375 105.921875 C 297.371094 105.230469 297.546875 104.6875 297.898438 104.300781 C 298.242188 103.910156 298.726562 103.71875 299.34375 103.71875 C 299.9375 103.71875 300.40625 103.914062 300.761719 104.3125 C 301.109375 104.707031 301.289062 105.246094 301.289062 105.921875 Z M 298.042969 105.921875 C 298.039062 106.464844 298.148438 106.882812 298.371094 107.164062 C 298.585938 107.453125 298.90625 107.597656 299.332031 107.59375 C 299.75 107.597656 300.070312 107.453125 300.292969 107.167969 C 300.507812 106.886719 300.617188 106.46875 300.621094 105.921875 C 300.617188 105.378906 300.507812 104.972656 300.292969 104.6875 C 300.070312 104.410156 299.746094 104.265625 299.324219 104.265625 C 298.898438 104.265625 298.582031 104.40625 298.367188 104.679688 C 298.148438 104.960938 298.039062 105.375 298.042969 105.921875 Z M 305.335938 108.054688 L 305.335938 105.300781 C 305.332031 104.953125 305.253906 104.691406 305.097656 104.523438 C 304.941406 104.351562 304.691406 104.265625 304.355469 104.265625 C 303.90625 104.265625 303.578125 104.386719 303.378906 104.625 C 303.167969 104.867188 303.066406 105.269531 303.066406 105.820312 L 303.066406 108.054688 L 302.421875 108.054688 L 302.421875 103.796875 L 302.945312 103.796875 L 303.050781 104.378906 L 303.082031 104.378906 C 303.210938 104.171875 303.398438 104.007812 303.636719 103.890625 C 303.875 103.777344 304.140625 103.71875 304.433594 103.71875 C 304.945312 103.71875 305.328125 103.839844 305.59375 104.089844 C 305.847656 104.339844 305.980469 104.734375 305.980469 105.277344 L 305.980469 108.054688 Z M 313.910156 108.054688 L 313.15625 108.054688 L 310.050781 103.285156 L 310.019531 103.285156 C 310.058594 103.84375 310.078125 104.359375 310.082031 104.824219 L 310.082031 108.054688 L 309.472656 108.054688 L 309.472656 102.371094 L 310.21875 102.371094 L 313.316406 107.121094 L 313.347656 107.121094 C 313.339844 107.050781 313.328125 106.832031 313.3125 106.449219 C 313.292969 106.074219 313.285156 105.800781 313.292969 105.632812 L 313.292969 102.371094 L 313.910156 102.371094 Z M 266.300781 99.546875 "/>
<path fill="none" stroke-width="0.7" stroke-linecap="butt" stroke-linejoin="miter" stroke="rgb(100%, 38.823529%, 27.843137%)" stroke-opacity="1" stroke-miterlimit="4" d="M 287.503575 -33.565078 C 287.503575 7.278749 203.138539 10.631366 189.300161 -23.515078 " transform="matrix(0.995025, 0, 0, 0.995025, 4.422874, 148.023089)"/>
<path fill-rule="nonzero" fill="rgb(100%, 38.823529%, 27.843137%)" fill-opacity="1" stroke-width="0.7" stroke-linecap="butt" stroke-linejoin="miter" stroke="rgb(100%, 38.823529%, 27.843137%)" stroke-opacity="1" stroke-miterlimit="4" d="M 185.817993 -23.087168 L 187.388305 -33.565078 L 192.695961 -24.394453 Z M 185.817993 -23.087168 " transform="matrix(0.995025, 0, 0, 0.995025, 4.422874, 148.023089)"/>
<path fill-rule="nonzero" fill="rgb(0%, 0%, 0%)" fill-opacity="1" d="M 240.132812 134.546875 L 240.132812 138.363281 L 243.945312 138.363281 L 243.945312 139.464844 L 240.132812 139.464844 L 240.132812 143.28125 L 239.042969 143.28125 L 239.042969 139.464844 L 235.226562 139.464844 L 235.226562 138.363281 L 239.042969 138.363281 L 239.042969 134.546875 Z M 233.75 130.351562 "/>
<path fill="none" stroke-width="0.5" stroke-linecap="butt" stroke-linejoin="miter" stroke="rgb(0%, 0%, 0%)" stroke-opacity="1" stroke-miterlimit="4" d="M 123.390222 -41.322421 C 123.390222 -41.322421 123.390222 -43.807441 123.390222 -43.807441 C 123.390222 -45.051914 122.279226 -46.849921 121.164304 -47.407382 C 121.164304 -47.407382 115.067566 -50.453788 115.067566 -50.453788 C 113.95657 -51.011249 111.601101 -51.564784 110.360554 -51.564784 C 110.360554 -51.564784 100.416551 -51.564784 100.416551 -51.564784 C 99.176004 -51.564784 96.820535 -51.011249 95.709539 -50.453788 C 95.709539 -50.453788 89.612801 -47.407382 89.612801 -47.407382 C 88.501805 -46.849921 87.390809 -45.051914 87.390809 -43.807441 C 87.390809 -43.807441 87.390809 -41.322421 87.390809 -41.322421 C 87.390809 -40.081875 88.501805 -38.283867 89.612801 -37.726406 C 89.612801 -37.726406 95.709539 -34.676074 95.709539 -34.676074 C 96.820535 -34.122539 99.176004 -33.565078 100.416551 -33.565078 C 100.416551 -33.565078 110.360554 -33.565078 110.360554 -33.565078 C 111.601101 -33.565078 113.95657 -34.122539 115.067566 -34.676074 C 115.067566 -34.676074 121.164304 -37.726406 121.164304 -37.726406 C 122.279226 -38.283867 123.390222 -40.081875 123.390222 -41.322421 " transform="matrix(0.995025, 0, 0, 0.995025, 4.422874, 148.023089)"/>
<path fill-rule="nonzero" fill="rgb(0%, 0%, 0%)" fill-opacity="1" d="M 102.980469 105.207031 C 102.980469 105.9375 102.832031 106.542969 102.542969 107.019531 C 102.246094 107.507812 101.835938 107.832031 101.300781 108 L 102.65625 109.40625 L 101.695312 109.40625 L 100.585938 108.125 L 100.371094 108.132812 C 99.535156 108.128906 98.886719 107.875 98.433594 107.367188 C 97.980469 106.855469 97.75 106.132812 97.753906 105.199219 C 97.75 104.273438 97.980469 103.558594 98.4375 103.046875 C 98.890625 102.539062 99.542969 102.28125 100.378906 102.28125 C 101.195312 102.28125 101.835938 102.542969 102.292969 103.058594 C 102.75 103.582031 102.980469 104.296875 102.980469 105.207031 Z M 98.453125 105.207031 C 98.449219 105.980469 98.613281 106.5625 98.941406 106.957031 C 99.269531 107.355469 99.746094 107.554688 100.371094 107.554688 C 101 107.554688 101.472656 107.355469 101.800781 106.957031 C 102.117188 106.5625 102.28125 105.980469 102.28125 105.207031 C 102.28125 104.445312 102.117188 103.863281 101.800781 103.46875 C 101.476562 103.074219 101.007812 102.878906 100.378906 102.875 C 99.75 102.878906 99.269531 103.074219 98.941406 103.472656 C 98.613281 103.867188 98.449219 104.449219 98.453125 105.207031 Z M 104.757812 103.796875 L 104.757812 106.558594 C 104.753906 106.910156 104.835938 107.167969 104.996094 107.335938 C 105.148438 107.511719 105.394531 107.597656 105.738281 107.59375 C 106.179688 107.597656 106.507812 107.472656 106.710938 107.226562 C 106.917969 106.984375 107.023438 106.589844 107.023438 106.035156 L 107.023438 103.796875 L 107.667969 103.796875 L 107.667969 108.054688 L 107.136719 108.054688 L 107.042969 107.484375 L 107.007812 107.484375 C 106.871094 107.695312 106.6875 107.855469 106.457031 107.964844 C 106.21875 108.078125 105.949219 108.128906 105.65625 108.132812 C 105.132812 108.128906 104.746094 108.007812 104.488281 107.761719 C 104.230469 107.519531 104.101562 107.125 104.105469 106.582031 L 104.105469 103.796875 Z M 110.835938 108.132812 C 110.207031 108.128906 109.707031 107.941406 109.34375 107.558594 C 108.976562 107.175781 108.796875 106.644531 108.800781 105.960938 C 108.796875 105.277344 108.960938 104.726562 109.304688 104.324219 C 109.640625 103.917969 110.09375 103.71875 110.667969 103.71875 C 111.199219 103.71875 111.621094 103.894531 111.9375 104.246094 C 112.242188 104.597656 112.398438 105.0625 112.402344 105.632812 L 112.402344 106.042969 L 109.46875 106.042969 C 109.476562 106.546875 109.605469 106.925781 109.84375 107.179688 C 110.085938 107.441406 110.425781 107.574219 110.859375 107.570312 C 111.316406 107.574219 111.769531 107.476562 112.21875 107.28125 L 112.21875 107.855469 C 111.988281 107.957031 111.773438 108.027344 111.570312 108.066406 C 111.367188 108.109375 111.125 108.128906 110.835938 108.132812 Z M 110.660156 104.257812 C 110.320312 104.261719 110.042969 104.371094 109.839844 104.59375 C 109.636719 104.816406 109.519531 105.128906 109.484375 105.515625 L 111.710938 105.515625 C 111.710938 105.113281 111.617188 104.800781 111.4375 104.585938 C 111.253906 104.371094 110.996094 104.261719 110.660156 104.257812 Z M 114.148438 108.054688 L 113.503906 108.054688 L 113.503906 102.007812 L 114.148438 102.007812 Z M 116.160156 108.054688 L 115.515625 108.054688 L 115.515625 102.007812 L 116.160156 102.007812 Z M 119.328125 108.132812 C 118.699219 108.128906 118.203125 107.941406 117.835938 107.558594 C 117.472656 107.175781 117.289062 106.644531 117.292969 105.960938 C 117.289062 105.277344 117.457031 104.726562 117.796875 104.324219 C 118.132812 103.917969 118.585938 103.71875 119.160156 103.71875 C 119.691406 103.71875 120.113281 103.894531 120.429688 104.246094 C 120.734375 104.597656 120.890625 105.0625 120.894531 105.632812 L 120.894531 106.042969 L 117.960938 106.042969 C 117.96875 106.546875 118.097656 106.925781 118.335938 107.179688 C 118.578125 107.441406 118.917969 107.574219 119.351562 107.570312 C 119.8125 107.574219 120.261719 107.476562 120.710938 107.28125 L 120.710938 107.855469 C 120.480469 107.957031 120.265625 108.027344 120.0625 108.066406 C 119.859375 108.109375 119.617188 108.128906 119.328125 108.132812 Z M 119.152344 104.257812 C 118.8125 104.261719 118.535156 104.371094 118.332031 104.59375 C 118.128906 104.816406 118.011719 105.128906 117.976562 105.515625 L 120.203125 105.515625 C 120.203125 105.113281 120.109375 104.800781 119.929688 104.585938 C 119.746094 104.371094 119.488281 104.261719 119.152344 104.257812 Z M 97.265625 99.546875 "/>
<path fill="none" stroke-width="1.5" stroke-linecap="butt" stroke-linejoin="miter" stroke="rgb(0%, 0%, 100%)" stroke-opacity="1" stroke-miterlimit="4" d="M 123.586511 -42.566894 C 134.343151 -42.566894 148.173678 -42.566894 160.206197 -42.566894 " transform="matrix(0.995025, 0, 0, 0.995025, 4.422874, 148.023089)"/>
<path fill="none" stroke-width="1.5" stroke-linecap="butt" stroke-linejoin="miter" stroke="rgb(0%, 0%, 100%)" stroke-opacity="1" stroke-miterlimit="4" d="M 214.480121 -42.566894 C 224.85596 -42.566894 236.912034 -42.566894 248.20258 -42.566894 " transform="matrix(0.995025, 0, 0, 0.995025, 4.422874, 148.023089)"/>
<path fill-rule="nonzero" fill="rgb(0%, 0%, 100%)" fill-opacity="1" stroke-width="1.5" stroke-linecap="butt" stroke-linejoin="miter" stroke="rgb(0%, 0%, 100%)" stroke-opacity="1" stroke-miterlimit="4" d="M 248.285022 -46.064765 L 258.283986 -42.566894 L 248.285022 -39.065097 Z M 248.285022 -46.064765 " transform="matrix(0.995025, 0, 0, 0.995025, 4.422874, 148.023089)"/>
</svg>
