<?xml version="1.0" encoding="UTF-8"?>
<svg xmlns="http://www.w3.org/2000/svg" xmlns:xlink="http://www.w3.org/1999/xlink" width="295" height="103" viewBox="0 0 295 103">
<path fill="none" stroke-width="0.7" stroke-linecap="butt" stroke-linejoin="miter" stroke="rgb(0%, 0%, 0%)" stroke-opacity="1" stroke-miterlimit="4" d="M 89.688075 -82.56693 C 89.688075 -75.168993 83.691024 -69.168007 76.293087 -69.168007 C 68.89515 -69.168007 62.898098 -75.168993 62.898098 -82.56693 C 62.898098 -89.964867 68.89515 -95.961918 76.293087 -95.961918 C 83.691024 -95.961918 89.688075 -89.964867 89.688075 -82.56693 Z M 89.688075 -82.56693 " transform="matrix(0.992675, 0, 0, 0.992675, 4.738387, 99.032472)"/>
<path fill-rule="nonzero" fill="rgb(0%, 0%, 0%)" fill-opacity="1" d="M 81.472656 15.125 C 81.660156 15.125 81.828125 15.140625 81.980469 15.171875 L 81.890625 15.769531 C 81.714844 15.734375 81.558594 15.714844 81.425781 15.710938 C 81.082031 15.714844 80.785156 15.851562 80.542969 16.128906 C 80.296875 16.410156 80.179688 16.757812 80.179688 17.171875 L 80.179688 19.453125 L 79.535156 19.453125 L 79.535156 15.203125 L 80.066406 15.203125 L 80.140625 15.988281 L 80.171875 15.988281 C 80.324219 15.71875 80.515625 15.503906 80.738281 15.347656 C 80.960938 15.203125 81.207031 15.125 81.472656 15.125 Z M 78.851562 10.964844 "/>
<path fill-rule="nonzero" fill="rgb(0%, 0%, 0%)" fill-opacity="1" d="M 2.96875 34.960938 L 2.96875 37.320312 L 2.3125 37.320312 L 2.3125 31.652344 L 3.867188 31.652344 C 4.554688 31.65625 5.070312 31.785156 5.40625 32.050781 C 5.738281 32.316406 5.90625 32.722656 5.90625 33.253906 C 5.90625 34.003906 5.527344 34.507812 4.765625 34.773438 L 6.304688 37.320312 L 5.527344 37.320312 L 4.152344 34.960938 Z M 2.96875 34.394531 L 3.875 34.394531 C 4.335938 34.398438 4.675781 34.308594 4.898438 34.121094 C 5.109375 33.933594 5.21875 33.660156 5.222656 33.289062 C 5.21875 32.914062 5.105469 32.644531 4.890625 32.476562 C 4.664062 32.3125 4.3125 32.230469 3.828125 32.230469 L 2.96875 32.230469 Z M 8.917969 37.398438 C 8.289062 37.394531 7.792969 37.207031 7.429688 36.824219 C 7.066406 36.445312 6.882812 35.914062 6.886719 35.230469 C 6.882812 34.546875 7.050781 34 7.390625 33.597656 C 7.722656 33.195312 8.179688 32.992188 8.75 32.992188 C 9.277344 32.992188 9.703125 33.171875 10.015625 33.519531 C 10.320312 33.871094 10.476562 34.335938 10.480469 34.902344 L 10.480469 35.3125 L 7.554688 35.3125 C 7.5625 35.816406 7.6875 36.191406 7.929688 36.449219 C 8.171875 36.707031 8.507812 36.839844 8.941406 36.835938 C 9.398438 36.839844 9.847656 36.742188 10.300781 36.546875 L 10.300781 37.121094 C 10.066406 37.222656 9.851562 37.292969 9.652344 37.332031 C 9.449219 37.375 9.207031 37.394531 8.917969 37.398438 Z M 8.742188 33.53125 C 8.402344 33.535156 8.128906 33.644531 7.925781 33.863281 C 7.71875 34.089844 7.605469 34.398438 7.570312 34.789062 L 9.789062 34.789062 C 9.789062 34.382812 9.699219 34.074219 9.519531 33.855469 C 9.332031 33.644531 9.078125 33.535156 8.742188 33.53125 Z M 13.554688 37.398438 C 13.277344 37.394531 13.023438 37.347656 12.796875 37.246094 C 12.566406 37.144531 12.378906 36.988281 12.222656 36.773438 L 12.175781 36.773438 C 12.207031 37.019531 12.222656 37.253906 12.222656 37.480469 L 12.222656 39.226562 L 11.578125 39.226562 L 11.578125 33.070312 L 12.101562 33.070312 L 12.191406 33.652344 L 12.222656 33.652344 C 12.386719 33.421875 12.574219 33.257812 12.800781 33.148438 C 13.015625 33.046875 13.269531 32.992188 13.554688 32.992188 C 14.113281 32.992188 14.546875 33.1875 14.859375 33.570312 C 15.160156 33.957031 15.316406 34.496094 15.320312 35.191406 C 15.316406 35.890625 15.160156 36.433594 14.851562 36.820312 C 14.542969 37.203125 14.105469 37.394531 13.554688 37.398438 Z M 13.464844 33.539062 C 13.023438 33.539062 12.710938 33.660156 12.519531 33.898438 C 12.324219 34.140625 12.226562 34.523438 12.222656 35.046875 L 12.222656 35.191406 C 12.222656 35.789062 12.320312 36.21875 12.519531 36.472656 C 12.714844 36.734375 13.035156 36.863281 13.480469 36.859375 C 13.84375 36.863281 14.128906 36.710938 14.339844 36.414062 C 14.546875 36.117188 14.652344 35.710938 14.652344 35.183594 C 14.652344 34.65625 14.546875 34.25 14.339844 33.964844 C 14.128906 33.683594 13.835938 33.539062 13.464844 33.539062 Z M 18.382812 32.992188 C 18.570312 32.992188 18.742188 33.007812 18.890625 33.039062 L 18.800781 33.636719 C 18.625 33.601562 18.46875 33.582031 18.335938 33.578125 C 17.992188 33.582031 17.699219 33.722656 17.453125 33.996094 C 17.207031 34.28125 17.089844 34.625 17.089844 35.039062 L 17.089844 37.320312 L 16.445312 37.320312 L 16.445312 33.070312 L 16.976562 33.070312 L 17.050781 33.855469 L 17.082031 33.855469 C 17.234375 33.585938 17.425781 33.371094 17.652344 33.21875 C 17.871094 33.070312 18.117188 32.992188 18.382812 32.992188 Z M 23.195312 35.191406 C 23.195312 35.886719 23.019531 36.429688 22.671875 36.816406 C 22.324219 37.203125 21.839844 37.394531 21.226562 37.398438 C 20.84375 37.394531 20.503906 37.308594 20.214844 37.128906 C 19.914062 36.957031 19.691406 36.699219 19.53125 36.363281 C 19.367188 36.03125 19.289062 35.640625 19.292969 35.191406 C 19.289062 34.5 19.460938 33.960938 19.8125 33.574219 C 20.15625 33.1875 20.636719 32.992188 21.253906 32.992188 C 21.847656 32.992188 22.316406 33.191406 22.667969 33.585938 C 23.015625 33.980469 23.195312 34.515625 23.195312 35.191406 Z M 19.957031 35.191406 C 19.953125 35.734375 20.0625 36.148438 20.285156 36.433594 C 20.496094 36.71875 20.820312 36.863281 21.242188 36.859375 C 21.660156 36.863281 21.976562 36.71875 22.199219 36.4375 C 22.417969 36.152344 22.523438 35.738281 22.527344 35.191406 C 22.523438 34.652344 22.417969 34.246094 22.199219 33.960938 C 21.976562 33.683594 21.65625 33.539062 21.234375 33.539062 C 20.8125 33.539062 20.492188 33.679688 20.28125 33.953125 C 20.0625 34.234375 19.953125 34.644531 19.957031 35.191406 Z M 27.21875 36.75 L 27.183594 36.75 C 26.882812 37.179688 26.4375 37.394531 25.847656 37.398438 C 25.289062 37.394531 24.859375 37.207031 24.550781 36.828125 C 24.238281 36.453125 24.082031 35.914062 24.085938 35.207031 C 24.082031 34.507812 24.238281 33.960938 24.554688 33.574219 C 24.859375 33.1875 25.289062 32.992188 25.847656 32.992188 C 26.421875 32.992188 26.863281 33.203125 27.175781 33.621094 L 27.226562 33.621094 L 27.199219 33.3125 L 27.183594 33.015625 L 27.183594 31.285156 L 27.824219 31.285156 L 27.824219 37.320312 L 27.300781 37.320312 Z M 25.929688 36.859375 C 26.363281 36.863281 26.683594 36.742188 26.882812 36.5 C 27.078125 36.265625 27.179688 35.878906 27.183594 35.34375 L 27.183594 35.207031 C 27.179688 34.609375 27.078125 34.179688 26.878906 33.917969 C 26.679688 33.664062 26.359375 33.535156 25.921875 33.53125 C 25.542969 33.535156 25.25 33.683594 25.054688 33.972656 C 24.851562 34.269531 24.75 34.679688 24.753906 35.214844 C 24.75 35.757812 24.851562 36.167969 25.054688 36.445312 C 25.25 36.722656 25.542969 36.863281 25.929688 36.859375 Z M 29.796875 33.070312 L 29.796875 35.828125 C 29.792969 36.175781 29.875 36.4375 30.03125 36.601562 C 30.1875 36.777344 30.429688 36.863281 30.773438 36.859375 C 31.214844 36.863281 31.539062 36.738281 31.746094 36.492188 C 31.953125 36.253906 32.054688 35.859375 32.054688 35.304688 L 32.054688 33.070312 L 32.699219 33.070312 L 32.699219 37.320312 L 32.167969 37.320312 L 32.074219 36.75 L 32.039062 36.75 C 31.90625 36.960938 31.722656 37.121094 31.488281 37.230469 C 31.253906 37.34375 30.984375 37.394531 30.691406 37.398438 C 30.171875 37.394531 29.785156 37.273438 29.527344 37.027344 C 29.269531 36.785156 29.140625 36.394531 29.144531 35.851562 L 29.144531 33.070312 Z M 34.699219 35.144531 C 34.808594 34.988281 34.980469 34.785156 35.207031 34.523438 L 36.582031 33.070312 L 37.34375 33.070312 L 35.625 34.878906 L 37.464844 37.320312 L 36.6875 37.320312 L 35.1875 35.3125 L 34.699219 35.730469 L 34.699219 37.320312 L 34.066406 37.320312 L 34.066406 31.285156 L 34.699219 31.285156 L 34.699219 34.484375 C 34.695312 34.632812 34.683594 34.851562 34.667969 35.144531 Z M 39.605469 36.867188 C 39.714844 36.867188 39.828125 36.859375 39.9375 36.84375 C 40.039062 36.828125 40.121094 36.8125 40.1875 36.789062 L 40.1875 37.28125 C 40.113281 37.316406 40.011719 37.339844 39.878906 37.363281 C 39.742188 37.382812 39.617188 37.394531 39.511719 37.398438 C 38.6875 37.394531 38.277344 36.964844 38.28125 36.097656 L 38.28125 33.570312 L 37.671875 33.570312 L 37.671875 33.261719 L 38.28125 32.992188 L 38.550781 32.085938 L 38.921875 32.085938 L 38.921875 33.070312 L 40.15625 33.070312 L 40.15625 33.570312 L 38.921875 33.570312 L 38.921875 36.070312 C 38.921875 36.332031 38.980469 36.527344 39.105469 36.660156 C 39.222656 36.800781 39.390625 36.867188 39.605469 36.867188 Z M 41.679688 37.320312 L 41.035156 37.320312 L 41.035156 33.070312 L 41.679688 33.070312 Z M 40.984375 31.917969 C 40.984375 31.773438 41.015625 31.667969 41.089844 31.597656 C 41.160156 31.527344 41.25 31.492188 41.363281 31.492188 C 41.464844 31.492188 41.550781 31.527344 41.628906 31.597656 C 41.699219 31.667969 41.738281 31.773438 41.742188 31.917969 C 41.738281 32.066406 41.699219 32.175781 41.628906 32.242188 C 41.550781 32.316406 41.464844 32.351562 41.363281 32.347656 C 41.25 32.351562 41.160156 32.316406 41.089844 32.242188 C 41.015625 32.175781 40.984375 32.066406 40.984375 31.917969 Z M 46.714844 35.191406 C 46.714844 35.886719 46.539062 36.429688 46.191406 36.816406 C 45.839844 37.203125 45.355469 37.394531 44.742188 37.398438 C 44.359375 37.394531 44.023438 37.308594 43.730469 37.128906 C 43.433594 36.957031 43.207031 36.699219 43.050781 36.363281 C 42.886719 36.03125 42.804688 35.640625 42.808594 35.191406 C 42.804688 34.5 42.980469 33.960938 43.328125 33.574219 C 43.671875 33.1875 44.15625 32.992188 44.769531 32.992188 C 45.363281 32.992188 45.832031 33.191406 46.1875 33.585938 C 46.535156 33.980469 46.714844 34.515625 46.714844 35.191406 Z M 43.476562 35.191406 C 43.472656 35.734375 43.582031 36.148438 43.800781 36.433594 C 44.015625 36.71875 44.335938 36.863281 44.757812 36.859375 C 45.179688 36.863281 45.496094 36.71875 45.71875 36.4375 C 45.933594 36.152344 46.042969 35.738281 46.046875 35.191406 C 46.042969 34.652344 45.933594 34.246094 45.71875 33.960938 C 45.496094 33.683594 45.175781 33.539062 44.75 33.539062 C 44.328125 33.539062 44.011719 33.679688 43.796875 33.953125 C 43.582031 34.234375 43.472656 34.644531 43.476562 35.191406 Z M 50.75 37.320312 L 50.75 34.570312 C 50.746094 34.226562 50.667969 33.964844 50.515625 33.796875 C 50.355469 33.625 50.105469 33.539062 49.773438 33.539062 C 49.324219 33.539062 48.996094 33.660156 48.796875 33.898438 C 48.585938 34.140625 48.484375 34.539062 48.484375 35.089844 L 48.484375 37.320312 L 47.84375 37.320312 L 47.84375 33.070312 L 48.367188 33.070312 L 48.46875 33.652344 L 48.5 33.652344 C 48.628906 33.445312 48.816406 33.285156 49.054688 33.167969 C 49.292969 33.050781 49.554688 32.992188 49.851562 32.992188 C 50.359375 32.992188 50.742188 33.117188 51.007812 33.363281 C 51.261719 33.613281 51.394531 34.007812 51.394531 34.546875 L 51.394531 37.320312 Z M 55.457031 36.160156 C 55.453125 36.558594 55.308594 36.863281 55.015625 37.074219 C 54.71875 37.289062 54.300781 37.394531 53.773438 37.398438 C 53.207031 37.394531 52.769531 37.308594 52.457031 37.128906 L 52.457031 36.53125 C 52.660156 36.640625 52.875 36.722656 53.113281 36.777344 C 53.34375 36.839844 53.574219 36.867188 53.789062 36.867188 C 54.125 36.867188 54.378906 36.816406 54.566406 36.707031 C 54.746094 36.601562 54.835938 36.4375 54.835938 36.214844 C 54.835938 36.050781 54.765625 35.914062 54.621094 35.792969 C 54.476562 35.675781 54.199219 35.535156 53.78125 35.375 C 53.382812 35.230469 53.101562 35.101562 52.9375 34.988281 C 52.765625 34.878906 52.644531 34.757812 52.566406 34.613281 C 52.480469 34.476562 52.441406 34.3125 52.445312 34.113281 C 52.441406 33.773438 52.582031 33.496094 52.867188 33.292969 C 53.148438 33.09375 53.535156 32.992188 54.027344 32.992188 C 54.480469 32.992188 54.925781 33.085938 55.367188 33.273438 L 55.140625 33.796875 C 54.714844 33.621094 54.324219 33.535156 53.980469 33.53125 C 53.675781 33.535156 53.445312 33.582031 53.289062 33.675781 C 53.136719 33.773438 53.058594 33.902344 53.058594 34.070312 C 53.058594 34.1875 53.085938 34.285156 53.144531 34.359375 C 53.199219 34.441406 53.292969 34.519531 53.425781 34.589844 C 53.550781 34.667969 53.796875 34.773438 54.171875 34.902344 C 54.671875 35.089844 55.011719 35.273438 55.191406 35.457031 C 55.363281 35.644531 55.453125 35.882812 55.457031 36.160156 Z M 58.445312 32.992188 C 58.628906 32.992188 58.800781 33.007812 58.953125 33.039062 L 58.863281 33.636719 C 58.683594 33.601562 58.527344 33.582031 58.398438 33.578125 C 58.050781 33.582031 57.757812 33.722656 57.511719 33.996094 C 57.269531 34.28125 57.148438 34.625 57.148438 35.039062 L 57.148438 37.320312 L 56.503906 37.320312 L 56.503906 33.070312 L 57.035156 33.070312 L 57.109375 33.855469 L 57.140625 33.855469 C 57.296875 33.585938 57.484375 33.371094 57.710938 33.21875 C 57.933594 33.070312 58.175781 32.992188 58.445312 32.992188 Z M 62.199219 37.320312 L 62.074219 36.714844 L 62.042969 36.714844 C 61.824219 36.984375 61.617188 37.164062 61.40625 37.257812 C 61.195312 37.351562 60.933594 37.394531 60.617188 37.398438 C 60.195312 37.394531 59.867188 37.289062 59.625 37.070312 C 59.386719 36.859375 59.265625 36.546875 59.269531 36.144531 C 59.265625 35.289062 59.953125 34.839844 61.328125 34.796875 L 62.050781 34.773438 L 62.050781 34.507812 C 62.046875 34.179688 61.972656 33.929688 61.832031 33.773438 C 61.683594 33.613281 61.457031 33.535156 61.144531 33.53125 C 60.789062 33.535156 60.390625 33.644531 59.945312 33.855469 L 59.746094 33.363281 C 59.953125 33.253906 60.179688 33.164062 60.433594 33.097656 C 60.679688 33.035156 60.933594 33.003906 61.183594 33 C 61.6875 33.003906 62.0625 33.117188 62.308594 33.335938 C 62.550781 33.566406 62.675781 33.925781 62.679688 34.417969 L 62.679688 37.320312 Z M 60.746094 36.867188 C 61.144531 36.867188 61.460938 36.757812 61.6875 36.535156 C 61.917969 36.320312 62.035156 36.011719 62.035156 35.613281 L 62.035156 35.230469 L 61.390625 35.257812 C 60.875 35.277344 60.507812 35.359375 60.28125 35.496094 C 60.054688 35.640625 59.941406 35.859375 59.945312 36.152344 C 59.941406 36.390625 60.011719 36.566406 60.152344 36.683594 C 60.292969 36.808594 60.492188 36.867188 60.746094 36.867188 Z M 65.375 36.867188 C 65.484375 36.867188 65.597656 36.859375 65.707031 36.84375 C 65.8125 36.828125 65.894531 36.8125 65.957031 36.789062 L 65.957031 37.28125 C 65.886719 37.316406 65.785156 37.339844 65.648438 37.363281 C 65.511719 37.382812 65.386719 37.394531 65.285156 37.398438 C 64.457031 37.394531 64.046875 36.964844 64.050781 36.097656 L 64.050781 33.570312 L 63.441406 33.570312 L 63.441406 33.261719 L 64.050781 32.992188 L 64.320312 32.085938 L 64.695312 32.085938 L 64.695312 33.070312 L 65.925781 33.070312 L 65.925781 33.570312 L 64.695312 33.570312 L 64.695312 36.070312 C 64.695312 36.332031 64.753906 36.527344 64.875 36.660156 C 64.992188 36.800781 65.160156 36.867188 65.375 36.867188 Z M 68.601562 37.398438 C 67.976562 37.394531 67.480469 37.207031 67.113281 36.824219 C 66.75 36.445312 66.566406 35.914062 66.570312 35.230469 C 66.566406 34.546875 66.734375 34 67.074219 33.597656 C 67.410156 33.195312 67.863281 32.992188 68.4375 32.992188 C 68.964844 32.992188 69.386719 33.171875 69.699219 33.519531 C 70.007812 33.871094 70.160156 34.335938 70.164062 34.902344 L 70.164062 35.3125 L 67.238281 35.3125 C 67.246094 35.816406 67.375 36.191406 67.613281 36.449219 C 67.855469 36.707031 68.191406 36.839844 68.625 36.835938 C 69.082031 36.839844 69.535156 36.742188 69.984375 36.546875 L 69.984375 37.121094 C 69.75 37.222656 69.539062 37.292969 69.335938 37.332031 C 69.132812 37.375 68.890625 37.394531 68.601562 37.398438 Z M 68.429688 33.53125 C 68.085938 33.535156 67.8125 33.644531 67.609375 33.863281 C 67.40625 34.089844 67.289062 34.398438 67.253906 34.789062 L 69.476562 34.789062 C 69.476562 34.382812 69.382812 34.074219 69.203125 33.855469 C 69.019531 33.644531 68.761719 33.535156 68.429688 33.53125 Z M 1.53125 28.832031 "/>
<path fill="none" stroke-width="0.5" stroke-linecap="butt" stroke-linejoin="miter" stroke="rgb(0%, 0%, 0%)" stroke-opacity="1" stroke-miterlimit="4" d="M 185.294606 -42.566914 L 171.793371 -51.566426 L 144.794836 -51.566426 L 131.2936 -42.566914 L 144.794836 -33.567403 L 171.793371 -33.567403 Z M 185.294606 -42.566914 " transform="matrix(0.992675, 0, 0, 0.992675, 4.738387, 99.032472)"/>
<path fill-rule="nonzero" fill="rgb(0%, 0%, 0%)" fill-opacity="1" d="M 149.765625 58.167969 L 149.105469 58.167969 L 148.917969 54.425781 C 148.894531 54.074219 148.882812 53.710938 148.886719 53.332031 L 148.863281 53.332031 C 148.796875 53.519531 148.71875 53.71875 148.625 53.933594 C 148.53125 54.144531 147.882812 55.554688 146.671875 58.167969 L 145.996094 58.167969 L 145.757812 52.496094 L 146.414062 52.496094 L 146.535156 55.992188 L 146.542969 56.332031 C 146.542969 56.585938 146.527344 56.921875 146.503906 57.332031 L 146.527344 57.332031 C 146.753906 56.707031 146.953125 56.210938 147.132812 55.847656 L 148.703125 52.496094 L 149.394531 52.496094 L 149.558594 55.832031 C 149.578125 56.230469 149.589844 56.621094 149.59375 57.011719 L 149.589844 57.332031 L 149.625 57.332031 C 149.820312 56.757812 149.988281 56.300781 150.132812 55.960938 L 151.636719 52.496094 L 152.339844 52.496094 Z M 153.976562 53.839844 C 154.214844 53.839844 154.421875 53.90625 154.613281 54.03125 C 154.796875 54.160156 154.941406 54.34375 155.046875 54.582031 L 155.089844 54.582031 L 155.351562 53.917969 L 155.84375 53.917969 L 154.9375 58.167969 L 154.421875 58.167969 L 154.523438 57.355469 L 154.492188 57.355469 C 154.027344 57.949219 153.539062 58.238281 153.03125 58.242188 C 152.667969 58.238281 152.386719 58.117188 152.1875 57.859375 C 151.980469 57.609375 151.875 57.257812 151.878906 56.808594 C 151.875 56.273438 151.96875 55.773438 152.15625 55.3125 C 152.335938 54.855469 152.589844 54.492188 152.914062 54.230469 C 153.234375 53.96875 153.589844 53.839844 153.976562 53.839844 Z M 153.242188 57.703125 C 153.488281 57.707031 153.742188 57.589844 153.988281 57.347656 C 154.238281 57.109375 154.4375 56.800781 154.59375 56.414062 C 154.75 56.035156 154.828125 55.644531 154.828125 55.257812 C 154.828125 54.992188 154.753906 54.785156 154.609375 54.621094 C 154.460938 54.464844 154.273438 54.386719 154.039062 54.386719 C 153.769531 54.386719 153.515625 54.496094 153.285156 54.71875 C 153.054688 54.945312 152.875 55.246094 152.742188 55.621094 C 152.613281 56.007812 152.546875 56.40625 152.546875 56.824219 C 152.546875 57.121094 152.605469 57.34375 152.726562 57.488281 C 152.84375 57.636719 153.015625 57.707031 153.242188 57.703125 Z M 157.949219 58.242188 C 157.445312 58.238281 157.054688 58.105469 156.78125 57.828125 C 156.5 57.554688 156.363281 57.164062 156.367188 56.65625 C 156.363281 56.144531 156.457031 55.667969 156.652344 55.226562 C 156.84375 54.792969 157.105469 54.453125 157.445312 54.207031 C 157.78125 53.960938 158.160156 53.839844 158.582031 53.839844 C 158.9375 53.839844 159.28125 53.90625 159.621094 54.035156 L 159.441406 54.582031 C 159.128906 54.453125 158.847656 54.386719 158.589844 54.386719 C 158.300781 54.386719 158.03125 54.484375 157.796875 54.683594 C 157.554688 54.882812 157.371094 55.15625 157.234375 55.511719 C 157.097656 55.863281 157.03125 56.246094 157.03125 56.65625 C 157.03125 56.992188 157.117188 57.246094 157.289062 57.429688 C 157.460938 57.617188 157.695312 57.707031 158.003906 57.703125 C 158.183594 57.707031 158.359375 57.679688 158.53125 57.628906 C 158.691406 57.578125 158.855469 57.515625 159.019531 57.445312 L 159.019531 58 C 158.691406 58.164062 158.335938 58.238281 157.949219 58.242188 Z M 162.386719 58.167969 L 162.960938 55.484375 C 163.003906 55.242188 163.027344 55.066406 163.03125 54.960938 C 163.027344 54.578125 162.835938 54.386719 162.460938 54.386719 C 162.230469 54.386719 162.003906 54.464844 161.785156 54.613281 C 161.566406 54.769531 161.371094 54.992188 161.207031 55.28125 C 161.039062 55.570312 160.914062 55.925781 160.832031 56.332031 L 160.441406 58.167969 L 159.789062 58.167969 L 161.070312 52.132812 L 161.71875 52.132812 C 161.671875 52.347656 161.628906 52.554688 161.585938 52.75 C 161.542969 52.949219 161.496094 53.152344 161.453125 53.359375 C 161.40625 53.5625 161.359375 53.777344 161.304688 54 C 161.25 54.226562 161.191406 54.46875 161.125 54.734375 L 161.167969 54.734375 C 161.40625 54.417969 161.644531 54.191406 161.882812 54.050781 C 162.117188 53.921875 162.363281 53.851562 162.628906 53.847656 C 162.960938 53.851562 163.226562 53.941406 163.410156 54.125 C 163.597656 54.316406 163.691406 54.578125 163.691406 54.917969 C 163.691406 55.078125 163.660156 55.292969 163.601562 55.558594 C 163.496094 56.058594 163.308594 56.929688 163.039062 58.167969 Z M 166.996094 56.960938 C 166.996094 57.367188 166.851562 57.679688 166.5625 57.90625 C 166.277344 58.132812 165.875 58.238281 165.359375 58.242188 C 164.917969 58.238281 164.523438 58.15625 164.175781 57.976562 L 164.175781 57.363281 C 164.355469 57.472656 164.550781 57.558594 164.761719 57.617188 C 164.96875 57.675781 165.164062 57.707031 165.34375 57.703125 C 165.667969 57.707031 165.914062 57.640625 166.078125 57.511719 C 166.242188 57.382812 166.324219 57.214844 166.328125 57.015625 C 166.324219 56.867188 166.28125 56.742188 166.191406 56.640625 C 166.097656 56.542969 165.902344 56.40625 165.605469 56.226562 C 165.265625 56.042969 165.027344 55.855469 164.894531 55.671875 C 164.75 55.496094 164.679688 55.28125 164.683594 55.027344 C 164.679688 54.675781 164.8125 54.390625 165.074219 54.167969 C 165.335938 53.949219 165.675781 53.839844 166.105469 53.839844 C 166.542969 53.839844 166.972656 53.933594 167.386719 54.125 L 167.175781 54.65625 L 166.960938 54.558594 C 166.695312 54.453125 166.410156 54.398438 166.105469 54.394531 C 165.863281 54.398438 165.675781 54.457031 165.539062 54.5625 C 165.402344 54.679688 165.332031 54.824219 165.335938 54.996094 C 165.332031 55.144531 165.378906 55.269531 165.46875 55.371094 C 165.5625 55.476562 165.753906 55.605469 166.039062 55.769531 C 166.316406 55.925781 166.511719 56.058594 166.632812 56.167969 C 166.753906 56.285156 166.84375 56.40625 166.90625 56.53125 C 166.964844 56.660156 166.996094 56.804688 166.996094 56.960938 Z M 169.078125 57.710938 C 169.214844 57.710938 169.402344 57.679688 169.636719 57.613281 L 169.636719 58.113281 C 169.542969 58.152344 169.433594 58.175781 169.308594 58.203125 C 169.175781 58.226562 169.078125 58.238281 169 58.242188 C 168.671875 58.238281 168.425781 58.167969 168.253906 58.015625 C 168.082031 57.859375 168 57.632812 168 57.324219 C 168 57.15625 168.023438 56.964844 168.070312 56.742188 L 168.5625 54.410156 L 167.894531 54.410156 L 167.949219 54.125 L 168.664062 53.824219 L 169.148438 52.9375 L 169.53125 52.9375 L 169.316406 53.917969 L 170.378906 53.917969 L 170.277344 54.410156 L 169.21875 54.410156 L 168.71875 56.75 C 168.671875 56.980469 168.648438 57.148438 168.648438 57.261719 C 168.648438 57.410156 168.683594 57.519531 168.761719 57.597656 C 168.832031 57.671875 168.9375 57.710938 169.078125 57.710938 Z M 171.867188 53.917969 L 171.285156 56.609375 C 171.238281 56.84375 171.214844 57.023438 171.21875 57.148438 C 171.214844 57.523438 171.402344 57.707031 171.785156 57.703125 C 172.011719 57.707031 172.238281 57.632812 172.457031 57.472656 C 172.675781 57.320312 172.867188 57.097656 173.039062 56.804688 C 173.207031 56.519531 173.335938 56.167969 173.421875 55.757812 L 173.8125 53.917969 L 174.453125 53.917969 L 173.558594 58.167969 L 173.019531 58.167969 L 173.105469 57.378906 L 173.058594 57.378906 C 172.804688 57.703125 172.5625 57.929688 172.332031 58.054688 C 172.101562 58.179688 171.863281 58.238281 171.621094 58.242188 C 171.285156 58.238281 171.027344 58.15625 170.839844 57.976562 C 170.652344 57.796875 170.554688 57.542969 170.558594 57.203125 C 170.554688 57.050781 170.585938 56.824219 170.644531 56.539062 L 171.210938 53.917969 Z M 177.402344 58.167969 L 177.976562 55.484375 C 178.019531 55.242188 178.042969 55.066406 178.046875 54.960938 C 178.042969 54.78125 178.003906 54.636719 177.925781 54.535156 C 177.84375 54.4375 177.703125 54.386719 177.515625 54.386719 C 177.292969 54.386719 177.082031 54.464844 176.878906 54.617188 C 176.671875 54.773438 176.492188 54.996094 176.335938 55.285156 C 176.175781 55.574219 176.054688 55.921875 175.976562 56.324219 L 175.582031 58.167969 L 174.933594 58.167969 L 175.839844 53.917969 L 176.378906 53.917969 L 176.292969 54.703125 L 176.332031 54.703125 C 176.554688 54.402344 176.777344 54.179688 177.003906 54.039062 C 177.222656 53.910156 177.457031 53.839844 177.695312 53.839844 C 177.988281 53.839844 178.210938 53.925781 178.371094 54.089844 C 178.527344 54.261719 178.621094 54.492188 178.652344 54.792969 L 178.679688 54.792969 C 178.902344 54.46875 179.140625 54.234375 179.390625 54.074219 C 179.640625 53.921875 179.890625 53.839844 180.152344 53.839844 C 180.476562 53.839844 180.730469 53.929688 180.910156 54.101562 C 181.089844 54.28125 181.183594 54.535156 181.183594 54.871094 C 181.183594 55.046875 181.152344 55.277344 181.097656 55.558594 L 180.539062 58.167969 L 179.878906 58.167969 L 180.453125 55.484375 C 180.503906 55.21875 180.53125 55.027344 180.53125 54.917969 C 180.53125 54.757812 180.484375 54.628906 180.394531 54.53125 C 180.304688 54.4375 180.167969 54.386719 179.976562 54.386719 C 179.761719 54.386719 179.558594 54.464844 179.355469 54.609375 C 179.152344 54.765625 178.96875 54.980469 178.816406 55.25 C 178.660156 55.527344 178.546875 55.855469 178.46875 56.226562 L 178.054688 58.167969 Z M 144.890625 49.679688 "/>
<path fill="none" stroke-width="0.7" stroke-linecap="butt" stroke-linejoin="miter" stroke="rgb(100%, 38.823529%, 27.843137%)" stroke-opacity="1" stroke-miterlimit="4" d="M 89.294567 -82.56693 C 119.102745 -82.56693 150.300003 -84.624973 156.985691 -61.652018 " transform="matrix(0.992675, 0, 0, 0.992675, 4.738387, 99.032472)"/>
<path fill-rule="nonzero" fill="rgb(100%, 38.823529%, 27.843137%)" fill-opacity="1" stroke-width="0.7" stroke-linecap="butt" stroke-linejoin="miter" stroke="rgb(100%, 38.823529%, 27.843137%)" stroke-opacity="1" stroke-miterlimit="4" d="M 160.476101 -61.935343 L 158.292136 -51.566426 L 153.534632 -61.034211 Z M 160.476101 -61.935343 " transform="matrix(0.992675, 0, 0, 0.992675, 4.738387, 99.032472)"/>
<path fill="none" stroke-width="2" stroke-linecap="butt" stroke-linejoin="miter" stroke="rgb(0%, 0%, 0%)" stroke-opacity="1" stroke-miterlimit="4" d="M 287.854411 -51.168984 L 228.966045 -51.168984 L 228.966045 -33.96091 L 287.854411 -33.96091 Z M 287.854411 -51.168984 " transform="matrix(0.992675, 0, 0, 0.992675, 4.738387, 99.032472)"/>
<path fill-rule="nonzero" fill="rgb(0%, 0%, 0%)" fill-opacity="1" d="M 241.492188 55.140625 C 241.492188 55.71875 241.292969 56.160156 240.902344 56.46875 C 240.511719 56.777344 239.953125 56.933594 239.222656 56.929688 L 238.554688 56.929688 L 238.554688 59.160156 L 237.898438 59.160156 L 237.898438 53.488281 L 239.367188 53.488281 C 240.78125 53.492188 241.492188 54.042969 241.492188 55.140625 Z M 238.554688 56.363281 L 239.148438 56.363281 C 239.730469 56.367188 240.152344 56.273438 240.417969 56.078125 C 240.671875 55.894531 240.804688 55.589844 240.808594 55.171875 C 240.804688 54.800781 240.679688 54.519531 240.441406 54.335938 C 240.191406 54.15625 239.8125 54.0625 239.292969 54.058594 L 238.554688 54.058594 Z M 246.25 57.03125 C 246.25 57.722656 246.074219 58.265625 245.726562 58.65625 C 245.375 59.042969 244.890625 59.230469 244.28125 59.234375 C 243.894531 59.230469 243.558594 59.148438 243.265625 58.96875 C 242.96875 58.792969 242.742188 58.539062 242.585938 58.199219 C 242.421875 57.871094 242.339844 57.480469 242.34375 57.03125 C 242.339844 56.339844 242.515625 55.800781 242.863281 55.414062 C 243.210938 55.023438 243.691406 54.832031 244.304688 54.832031 C 244.898438 54.832031 245.367188 55.027344 245.722656 55.425781 C 246.070312 55.820312 246.25 56.355469 246.25 57.03125 Z M 243.011719 57.03125 C 243.007812 57.574219 243.117188 57.988281 243.335938 58.269531 C 243.550781 58.558594 243.871094 58.699219 244.296875 58.699219 C 244.714844 58.699219 245.03125 58.558594 245.253906 58.273438 C 245.46875 57.992188 245.578125 57.578125 245.582031 57.03125 C 245.578125 56.492188 245.46875 56.082031 245.253906 55.800781 C 245.03125 55.523438 244.710938 55.378906 244.289062 55.378906 C 243.863281 55.378906 243.546875 55.519531 243.332031 55.792969 C 243.117188 56.070312 243.007812 56.484375 243.011719 57.03125 Z M 249.355469 59.234375 C 249.074219 59.230469 248.824219 59.1875 248.59375 59.085938 C 248.367188 58.984375 248.175781 58.824219 248.019531 58.613281 L 247.976562 58.613281 C 248.007812 58.859375 248.019531 59.09375 248.019531 59.316406 L 248.019531 61.066406 L 247.378906 61.066406 L 247.378906 54.910156 L 247.902344 54.910156 L 247.992188 55.492188 L 248.019531 55.492188 C 248.183594 55.261719 248.375 55.09375 248.597656 54.988281 C 248.816406 54.886719 249.070312 54.832031 249.355469 54.832031 C 249.914062 54.832031 250.347656 55.023438 250.65625 55.410156 C 250.960938 55.796875 251.117188 56.335938 251.121094 57.03125 C 251.117188 57.726562 250.960938 58.269531 250.652344 58.660156 C 250.339844 59.042969 249.90625 59.230469 249.355469 59.234375 Z M 249.261719 55.378906 C 248.824219 55.378906 248.511719 55.5 248.320312 55.738281 C 248.121094 55.980469 248.023438 56.363281 248.019531 56.886719 L 248.019531 57.03125 C 248.019531 57.628906 248.117188 58.058594 248.320312 58.3125 C 248.515625 58.574219 248.835938 58.699219 249.277344 58.699219 C 249.640625 58.699219 249.929688 58.550781 250.136719 58.25 C 250.347656 57.957031 250.453125 57.550781 250.453125 57.023438 C 250.453125 56.496094 250.347656 56.085938 250.136719 55.804688 C 249.929688 55.523438 249.632812 55.378906 249.261719 55.378906 Z M 252.847656 54.910156 L 252.847656 57.664062 C 252.84375 58.015625 252.925781 58.273438 253.085938 58.441406 C 253.242188 58.617188 253.484375 58.699219 253.828125 58.699219 C 254.269531 58.699219 254.59375 58.578125 254.800781 58.332031 C 255.003906 58.09375 255.109375 57.695312 255.109375 57.140625 L 255.109375 54.910156 L 255.753906 54.910156 L 255.753906 59.160156 L 255.222656 59.160156 L 255.128906 58.589844 L 255.09375 58.589844 C 254.957031 58.796875 254.777344 58.960938 254.542969 59.070312 C 254.308594 59.183594 254.039062 59.230469 253.746094 59.234375 C 253.226562 59.230469 252.835938 59.113281 252.582031 58.867188 C 252.320312 58.625 252.195312 58.230469 252.199219 57.6875 L 252.199219 54.910156 Z M 257.761719 59.160156 L 257.117188 59.160156 L 257.117188 53.125 L 257.761719 53.125 Z M 261.742188 59.160156 L 261.613281 58.554688 L 261.582031 58.554688 C 261.363281 58.820312 261.15625 59.003906 260.945312 59.097656 C 260.734375 59.191406 260.472656 59.230469 260.160156 59.234375 C 259.734375 59.230469 259.40625 59.128906 259.164062 58.910156 C 258.925781 58.699219 258.804688 58.386719 258.808594 57.984375 C 258.804688 57.125 259.492188 56.675781 260.867188 56.632812 L 261.589844 56.609375 L 261.589844 56.347656 C 261.585938 56.019531 261.511719 55.769531 261.371094 55.609375 C 261.226562 55.453125 260.996094 55.375 260.6875 55.371094 C 260.328125 55.375 259.929688 55.484375 259.484375 55.695312 L 259.285156 55.203125 C 259.492188 55.089844 259.71875 55 259.972656 54.9375 C 260.21875 54.875 260.472656 54.84375 260.722656 54.839844 C 261.230469 54.84375 261.601562 54.957031 261.847656 55.175781 C 262.089844 55.40625 262.214844 55.765625 262.21875 56.257812 L 262.21875 59.160156 Z M 260.285156 58.703125 C 260.6875 58.703125 261 58.597656 261.230469 58.375 C 261.457031 58.160156 261.574219 57.851562 261.574219 57.453125 L 261.574219 57.070312 L 260.929688 57.097656 C 260.414062 57.113281 260.046875 57.195312 259.820312 57.335938 C 259.59375 57.480469 259.480469 57.695312 259.484375 57.992188 C 259.480469 58.226562 259.550781 58.40625 259.691406 58.523438 C 259.832031 58.648438 260.03125 58.703125 260.285156 58.703125 Z M 264.917969 58.703125 C 265.023438 58.703125 265.136719 58.699219 265.246094 58.683594 C 265.351562 58.667969 265.433594 58.652344 265.496094 58.628906 L 265.496094 59.121094 C 265.425781 59.15625 265.324219 59.179688 265.1875 59.203125 C 265.050781 59.222656 264.929688 59.230469 264.824219 59.234375 C 263.996094 59.230469 263.585938 58.800781 263.589844 57.9375 L 263.589844 55.410156 L 262.980469 55.410156 L 262.980469 55.097656 L 263.589844 54.832031 L 263.863281 53.925781 L 264.234375 53.925781 L 264.234375 54.910156 L 265.46875 54.910156 L 265.46875 55.410156 L 264.234375 55.410156 L 264.234375 57.910156 C 264.234375 58.167969 264.292969 58.367188 264.417969 58.5 C 264.53125 58.640625 264.699219 58.703125 264.917969 58.703125 Z M 266.992188 59.160156 L 266.347656 59.160156 L 266.347656 54.910156 L 266.992188 54.910156 Z M 266.292969 53.757812 C 266.292969 53.613281 266.328125 53.503906 266.402344 53.433594 C 266.472656 53.367188 266.558594 53.332031 266.671875 53.332031 C 266.773438 53.332031 266.863281 53.367188 266.941406 53.433594 C 267.011719 53.503906 267.050781 53.613281 267.054688 53.757812 C 267.050781 53.90625 267.011719 54.011719 266.941406 54.082031 C 266.863281 54.15625 266.773438 54.191406 266.671875 54.1875 C 266.558594 54.191406 266.472656 54.15625 266.402344 54.082031 C 266.328125 54.011719 266.292969 53.90625 266.292969 53.757812 Z M 272.023438 57.03125 C 272.023438 57.722656 271.847656 58.265625 271.5 58.65625 C 271.152344 59.042969 270.667969 59.230469 270.054688 59.234375 C 269.671875 59.230469 269.332031 59.148438 269.042969 58.96875 C 268.742188 58.792969 268.519531 58.539062 268.359375 58.199219 C 268.195312 57.871094 268.117188 57.480469 268.121094 57.03125 C 268.117188 56.339844 268.289062 55.800781 268.640625 55.414062 C 268.984375 55.023438 269.464844 54.832031 270.082031 54.832031 C 270.675781 54.832031 271.144531 55.027344 271.496094 55.425781 C 271.84375 55.820312 272.023438 56.355469 272.023438 57.03125 Z M 268.785156 57.03125 C 268.78125 57.574219 268.890625 57.988281 269.113281 58.269531 C 269.324219 58.558594 269.648438 58.699219 270.070312 58.699219 C 270.488281 58.699219 270.804688 58.558594 271.027344 58.273438 C 271.246094 57.992188 271.351562 57.578125 271.355469 57.03125 C 271.351562 56.492188 271.246094 56.082031 271.027344 55.800781 C 270.804688 55.523438 270.484375 55.378906 270.0625 55.378906 C 269.640625 55.378906 269.320312 55.519531 269.109375 55.792969 C 268.890625 56.070312 268.78125 56.484375 268.785156 57.03125 Z M 276.0625 59.160156 L 276.0625 56.410156 C 276.058594 56.0625 275.980469 55.804688 275.824219 55.632812 C 275.664062 55.464844 275.417969 55.378906 275.082031 55.378906 C 274.632812 55.378906 274.308594 55.5 274.105469 55.738281 C 273.898438 55.980469 273.796875 56.378906 273.796875 56.929688 L 273.796875 59.160156 L 273.152344 59.160156 L 273.152344 54.910156 L 273.675781 54.910156 L 273.78125 55.492188 L 273.8125 55.492188 C 273.941406 55.285156 274.125 55.121094 274.367188 55.003906 C 274.601562 54.890625 274.867188 54.832031 275.160156 54.832031 C 275.667969 54.832031 276.054688 54.957031 276.316406 55.203125 C 276.574219 55.453125 276.703125 55.847656 276.703125 56.386719 L 276.703125 59.160156 Z M 284.613281 59.160156 L 283.863281 59.160156 L 280.765625 54.402344 L 280.734375 54.402344 C 280.773438 54.960938 280.792969 55.472656 280.796875 55.9375 L 280.796875 59.160156 L 280.1875 59.160156 L 280.1875 53.488281 L 280.929688 53.488281 L 284.019531 58.226562 L 284.050781 58.226562 C 284.042969 58.160156 284.03125 57.9375 284.015625 57.558594 C 284 57.179688 283.992188 56.910156 284 56.742188 L 284 53.488281 L 284.613281 53.488281 Z M 237.117188 50.671875 "/>
<path fill="none" stroke-width="0.7" stroke-linecap="butt" stroke-linejoin="miter" stroke="rgb(100%, 38.823529%, 27.843137%)" stroke-opacity="1" stroke-miterlimit="4" d="M 258.40826 -33.567403 C 258.40826 7.278654 174.044232 10.631336 160.204581 -23.513291 " transform="matrix(0.992675, 0, 0, 0.992675, 4.738387, 99.032472)"/>
<path fill-rule="nonzero" fill="rgb(100%, 38.823529%, 27.843137%)" fill-opacity="1" stroke-width="0.7" stroke-linecap="butt" stroke-linejoin="miter" stroke="rgb(100%, 38.823529%, 27.843137%)" stroke-opacity="1" stroke-miterlimit="4" d="M 156.722042 -23.088303 L 158.292136 -33.567403 L 163.600549 -24.394748 Z M 156.722042 -23.088303 " transform="matrix(0.992675, 0, 0, 0.992675, 4.738387, 99.032472)"/>
<path fill-rule="nonzero" fill="rgb(0%, 0%, 0%)" fill-opacity="1" d="M 211.003906 85.589844 L 211.003906 89.398438 L 214.808594 89.398438 L 214.808594 90.492188 L 211.003906 90.492188 L 211.003906 94.300781 L 209.917969 94.300781 L 209.917969 90.492188 L 206.113281 90.492188 L 206.113281 89.398438 L 209.917969 89.398438 L 209.917969 85.589844 Z M 204.636719 81.402344 "/>
<path fill="none" stroke-width="0.5" stroke-linecap="butt" stroke-linejoin="miter" stroke="rgb(0%, 0%, 0%)" stroke-opacity="1" stroke-miterlimit="4" d="M 94.29211 -41.323431 C 94.29211 -41.323431 94.29211 -43.810397 94.29211 -43.810397 C 94.29211 -45.049945 93.182419 -46.848274 92.068794 -47.407054 C 92.068794 -47.407054 85.973366 -50.456735 85.973366 -50.456735 C 84.85974 -51.011581 82.506567 -51.566426 81.263084 -51.566426 C 81.263084 -51.566426 71.32309 -51.566426 71.32309 -51.566426 C 70.079607 -51.566426 67.726433 -51.011581 66.612807 -50.456735 C 66.612807 -50.456735 60.517379 -47.407054 60.517379 -47.407054 C 59.403754 -46.848274 58.294063 -45.049945 58.294063 -43.810397 C 58.294063 -43.810397 58.294063 -41.323431 58.294063 -41.323431 C 58.294063 -40.079948 59.403754 -38.28162 60.517379 -37.726775 C 60.517379 -37.726775 66.612807 -34.677093 66.612807 -34.677093 C 67.726433 -34.122248 70.079607 -33.567403 71.32309 -33.567403 C 71.32309 -33.567403 81.263084 -33.567403 81.263084 -33.567403 C 82.506567 -33.567403 84.85974 -34.122248 85.973366 -34.677093 C 85.973366 -34.677093 92.068794 -37.726775 92.068794 -37.726775 C 93.182419 -38.28162 94.29211 -40.079948 94.29211 -41.323431 " transform="matrix(0.992675, 0, 0, 0.992675, 4.738387, 99.032472)"/>
<path fill-rule="nonzero" fill="rgb(0%, 0%, 0%)" fill-opacity="1" d="M 74.179688 56.316406 C 74.179688 57.046875 74.03125 57.648438 73.742188 58.128906 C 73.445312 58.613281 73.035156 58.9375 72.503906 59.105469 L 73.851562 60.507812 L 72.894531 60.507812 L 71.789062 59.226562 L 71.578125 59.234375 C 70.738281 59.230469 70.097656 58.980469 69.640625 58.472656 C 69.1875 57.960938 68.960938 57.238281 68.964844 56.308594 C 68.960938 55.386719 69.1875 54.671875 69.644531 54.164062 C 70.101562 53.65625 70.746094 53.402344 71.585938 53.402344 C 72.398438 53.402344 73.035156 53.660156 73.492188 54.175781 C 73.949219 54.695312 74.179688 55.410156 74.179688 56.316406 Z M 69.660156 56.316406 C 69.65625 57.089844 69.820312 57.667969 70.148438 58.066406 C 70.476562 58.460938 70.953125 58.660156 71.578125 58.660156 C 72.203125 58.660156 72.675781 58.460938 73 58.066406 C 73.316406 57.667969 73.480469 57.089844 73.480469 56.316406 C 73.480469 55.554688 73.316406 54.980469 73 54.582031 C 72.679688 54.191406 72.210938 53.992188 71.585938 53.988281 C 70.957031 53.992188 70.476562 54.191406 70.148438 54.585938 C 69.820312 54.984375 69.65625 55.558594 69.660156 56.316406 Z M 75.953125 54.910156 L 75.953125 57.664062 C 75.949219 58.015625 76.027344 58.273438 76.1875 58.441406 C 76.34375 58.617188 76.585938 58.699219 76.929688 58.699219 C 77.371094 58.699219 77.695312 58.578125 77.902344 58.332031 C 78.105469 58.09375 78.210938 57.695312 78.210938 57.140625 L 78.210938 54.910156 L 78.855469 54.910156 L 78.855469 59.160156 L 78.324219 59.160156 L 78.230469 58.589844 L 78.195312 58.589844 C 78.0625 58.796875 77.878906 58.960938 77.644531 59.070312 C 77.410156 59.183594 77.140625 59.230469 76.847656 59.234375 C 76.328125 59.230469 75.941406 59.113281 75.683594 58.867188 C 75.425781 58.625 75.296875 58.230469 75.300781 57.6875 L 75.300781 54.910156 Z M 82.015625 59.234375 C 81.386719 59.230469 80.890625 59.046875 80.527344 58.664062 C 80.164062 58.28125 79.980469 57.75 79.984375 57.070312 C 79.980469 56.386719 80.148438 55.839844 80.488281 55.4375 C 80.820312 55.03125 81.273438 54.832031 81.847656 54.832031 C 82.375 54.832031 82.800781 55.007812 83.113281 55.359375 C 83.417969 55.710938 83.574219 56.171875 83.578125 56.742188 L 83.578125 57.148438 L 80.652344 57.148438 C 80.660156 57.652344 80.785156 58.03125 81.027344 58.285156 C 81.265625 58.546875 81.605469 58.679688 82.039062 58.675781 C 82.496094 58.679688 82.945312 58.582031 83.394531 58.386719 L 83.394531 58.960938 C 83.164062 59.0625 82.949219 59.132812 82.75 59.171875 C 82.546875 59.214844 82.304688 59.230469 82.015625 59.234375 Z M 81.839844 55.371094 C 81.5 55.375 81.226562 55.484375 81.023438 55.703125 C 80.816406 55.929688 80.703125 56.238281 80.667969 56.625 L 82.886719 56.625 C 82.886719 56.222656 82.796875 55.914062 82.617188 55.695312 C 82.429688 55.484375 82.175781 55.375 81.839844 55.371094 Z M 85.320312 59.160156 L 84.675781 59.160156 L 84.675781 53.125 L 85.320312 53.125 Z M 87.328125 59.160156 L 86.683594 59.160156 L 86.683594 53.125 L 87.328125 53.125 Z M 90.488281 59.234375 C 89.859375 59.230469 89.363281 59.046875 89 58.664062 C 88.636719 58.28125 88.453125 57.75 88.457031 57.070312 C 88.453125 56.386719 88.621094 55.839844 88.960938 55.4375 C 89.292969 55.03125 89.746094 54.832031 90.320312 54.832031 C 90.847656 54.832031 91.273438 55.007812 91.585938 55.359375 C 91.890625 55.710938 92.046875 56.171875 92.050781 56.742188 L 92.050781 57.148438 L 89.125 57.148438 C 89.132812 57.652344 89.257812 58.03125 89.5 58.285156 C 89.738281 58.546875 90.078125 58.679688 90.511719 58.675781 C 90.96875 58.679688 91.417969 58.582031 91.867188 58.386719 L 91.867188 58.960938 C 91.636719 59.0625 91.421875 59.132812 91.222656 59.171875 C 91.019531 59.214844 90.777344 59.230469 90.488281 59.234375 Z M 90.3125 55.371094 C 89.972656 55.375 89.699219 55.484375 89.496094 55.703125 C 89.289062 55.929688 89.175781 56.238281 89.140625 56.625 L 91.359375 56.625 C 91.359375 56.222656 91.269531 55.914062 91.089844 55.695312 C 90.902344 55.484375 90.648438 55.375 90.3125 55.371094 Z M 68.480469 50.671875 "/>
<path fill="none" stroke-width="1.5" stroke-linecap="butt" stroke-linejoin="miter" stroke="rgb(0%, 0%, 100%)" stroke-opacity="1" stroke-miterlimit="4" d="M 94.492799 -42.566914 C 105.247353 -42.566914 119.079134 -42.566914 131.108652 -42.566914 " transform="matrix(0.992675, 0, 0, 0.992675, 4.738387, 99.032472)"/>
<path fill="none" stroke-width="1.5" stroke-linecap="butt" stroke-linejoin="miter" stroke="rgb(0%, 0%, 100%)" stroke-opacity="1" stroke-miterlimit="4" d="M 185.385113 -42.566914 C 195.7619 -42.566914 207.815028 -42.566914 219.104752 -42.566914 " transform="matrix(0.992675, 0, 0, 0.992675, 4.738387, 99.032472)"/>
<path fill-rule="nonzero" fill="rgb(0%, 0%, 100%)" fill-opacity="1" stroke-width="1.5" stroke-linecap="butt" stroke-linejoin="miter" stroke="rgb(0%, 0%, 100%)" stroke-opacity="1" stroke-miterlimit="4" d="M 219.187389 -46.065194 L 229.186409 -42.566914 L 219.187389 -39.064699 Z M 219.187389 -46.065194 " transform="matrix(0.992675, 0, 0, 0.992675, 4.738387, 99.032472)"/>
</svg>
