<?xml version="1.0" encoding="UTF-8" standalone="no"?>
<!-- Created with Inkscape (http://www.inkscape.org/) -->

<svg
   version="1.1"
   id="svg1"
   width="583.76587"
   height="230.57582"
   viewBox="0 0 583.76587 230.57582"
   sodipodi:docname="graph_resource.svg"
   inkscape:version="1.4.4 (dcaf3e7, 2026-05-05)"
   xmlns:inkscape="http://www.inkscape.org/namespaces/inkscape"
   xmlns:sodipodi="http://sodipodi.sourceforge.net/DTD/sodipodi-0.dtd"
   xmlns="http://www.w3.org/2000/svg"
   xmlns:svg="http://www.w3.org/2000/svg">
  <defs
     id="defs1">
    <clipPath
       clipPathUnits="userSpaceOnUse"
       id="clipPath2">
      <path
         d="M 240.00002,240.00002 H 2400 V 1365 H 240.00002 Z"
         transform="matrix(0.16355555,0,0,0.16355555,-43.253335,-182.41014)"
         clip-rule="evenodd"
         id="path2" />
    </clipPath>
    <clipPath
       clipPathUnits="userSpaceOnUse"
       id="clipPath4">
      <path
         d="M 240.00002,240.00002 H 2400 V 1365 H 240.00002 Z"
         transform="matrix(0.16355555,0,0,0.16355555,-43.253335,-182.41014)"
         clip-rule="evenodd"
         id="path4" />
    </clipPath>
    <clipPath
       clipPathUnits="userSpaceOnUse"
       id="clipPath6">
      <path
         d="M 240.00002,240.00002 H 2400 V 1365 H 240.00002 Z"
         transform="matrix(0.16355555,0,0,0.16355555,-43.253335,-182.41014)"
         clip-rule="evenodd"
         id="path6" />
    </clipPath>
    <clipPath
       clipPathUnits="userSpaceOnUse"
       id="clipPath8">
      <path
         d="M 240.00002,240.00002 H 2400 V 1365 H 240.00002 Z"
         transform="matrix(0.16355555,0,0,0.16355555,-43.253335,-182.41014)"
         clip-rule="evenodd"
         id="path8" />
    </clipPath>
    <clipPath
       clipPathUnits="userSpaceOnUse"
       id="clipPath10">
      <path
         d="M 240.00002,240.00002 H 2400 V 1365 H 240.00002 Z"
         transform="matrix(0.16355555,0,0,0.16355555,-43.253335,-182.41014)"
         clip-rule="evenodd"
         id="path10" />
    </clipPath>
    <clipPath
       clipPathUnits="userSpaceOnUse"
       id="clipPath12">
      <path
         d="M 240.00002,240.00002 H 2400 V 1365 H 240.00002 Z"
         transform="matrix(0.16355555,0,0,0.16355555,-43.253335,-182.41014)"
         clip-rule="evenodd"
         id="path12" />
    </clipPath>
    <clipPath
       clipPathUnits="userSpaceOnUse"
       id="clipPath14">
      <path
         d="M 240.00002,240.00002 H 2400 V 1365 H 240.00002 Z"
         transform="matrix(0.16355555,0,0,0.16355555,-43.253335,-182.41014)"
         clip-rule="evenodd"
         id="path14" />
    </clipPath>
    <clipPath
       clipPathUnits="userSpaceOnUse"
       id="clipPath16">
      <path
         d="M 240.00002,240.00002 H 2400 V 1365 H 240.00002 Z"
         transform="matrix(0.16355555,0,0,0.16355555,-43.253335,-182.41014)"
         clip-rule="evenodd"
         id="path16" />
    </clipPath>
    <clipPath
       clipPathUnits="userSpaceOnUse"
       id="clipPath18">
      <path
         d="M 240.00002,240.00002 H 2400 V 1365 H 240.00002 Z"
         transform="matrix(0.16355555,0,0,0.16355555,-43.253335,-182.41014)"
         clip-rule="evenodd"
         id="path18" />
    </clipPath>
    <clipPath
       clipPathUnits="userSpaceOnUse"
       id="clipPath20">
      <path
         d="M 240.00002,240.00002 H 2400 V 1365 H 240.00002 Z"
         transform="matrix(0.16355555,0,0,0.16355555,-43.253335,-182.41014)"
         clip-rule="evenodd"
         id="path20" />
    </clipPath>
    <clipPath
       clipPathUnits="userSpaceOnUse"
       id="clipPath22">
      <path
         d="M 240.00002,240.00002 H 2400 V 1365 H 240.00002 Z"
         transform="matrix(0.16355555,0,0,0.16355555,-43.253335,-182.41014)"
         clip-rule="evenodd"
         id="path22" />
    </clipPath>
  </defs>
  <sodipodi:namedview
     id="namedview1"
     pagecolor="#ffffff"
     bordercolor="#000000"
     borderopacity="0.25"
     inkscape:showpageshadow="2"
     inkscape:pageopacity="0.0"
     inkscape:pagecheckerboard="0"
     inkscape:deskcolor="#d1d1d1"
     inkscape:zoom="3.1931818"
     inkscape:cx="287.17438"
     inkscape:cy="225.95018"
     inkscape:window-width="3840"
     inkscape:window-height="2036"
     inkscape:window-x="3348"
     inkscape:window-y="-12"
     inkscape:window-maximized="1"
     inkscape:current-layer="g1">
    <inkscape:page
       x="0"
       y="0"
       inkscape:label="1"
       id="page1"
       width="583.76587"
       height="230.57582"
       margin="0"
       bleed="0" />
  </sodipodi:namedview>
  <g
     id="g1"
     inkscape:groupmode="layer"
     inkscape:label="1"
     transform="translate(-178.36069,-126.62484)">
    <path
       id="path1"
       d="m 114.7856,-89.119904 c 0,0.438759 -0.0215,0.876458 -0.0645,1.313111 -0.043,0.436645 -0.10731,0.870132 -0.19292,1.300468 -0.0856,0.430321 -0.19207,0.855423 -0.31944,1.275292 -0.12736,0.419861 -0.275,0.832473 -0.44291,1.237838 -0.1679,0.405358 -0.35527,0.801506 -0.5621,1.188454 -0.20682,0.386955 -0.43212,0.76284 -0.67589,1.127655 -0.24375,0.364807 -0.5048,0.716789 -0.78314,1.055954 -0.27834,0.339165 -0.57265,0.663879 -0.8829,0.974129 -0.31025,0.310249 -0.63495,0.604538 -0.97411,0.882881 -0.33917,0.278351 -0.69117,0.539406 -1.05599,0.783173 -0.36481,0.243759 -0.74069,0.469055 -1.12764,0.67588 -0.38696,0.206825 -0.78311,0.394196 -1.18847,0.562111 -0.40536,0.1679 -0.81797,0.315536 -1.23784,0.442894 -0.41987,0.127365 -0.84496,0.233848 -1.27529,0.319443 -0.43032,0.08559 -0.8638,0.149894 -1.30045,0.192901 -0.43663,0.04301 -0.87434,0.06451 -1.3131,0.06451 -0.43876,-7e-6 -0.87646,-0.02151 -1.31311,-0.06451 -0.436645,-0.04301 -0.870132,-0.107307 -1.30046,-0.192901 -0.430321,-0.08559 -0.855408,-0.192078 -1.275277,-0.319443 -0.41986,-0.127358 -0.832473,-0.274994 -1.237846,-0.442894 -0.405357,-0.167915 -0.801514,-0.355286 -1.188461,-0.562111 -0.386956,-0.206825 -0.762841,-0.432121 -1.127655,-0.67588 -0.364815,-0.243767 -0.716805,-0.504822 -1.05597,-0.783173 -0.339164,-0.278343 -0.663871,-0.572632 -0.974121,-0.882881 -0.310249,-0.31025 -0.604553,-0.634964 -0.882896,-0.974129 -0.278343,-0.339165 -0.539391,-0.691147 -0.783157,-1.055954 -0.24376,-0.364815 -0.469056,-0.7407 -0.675881,-1.127655 -0.206833,-0.386948 -0.394203,-0.783096 -0.562111,-1.188454 -0.1679,-0.405365 -0.315529,-0.817977 -0.442894,-1.237838 -0.127365,-0.419869 -0.233848,-0.844971 -0.31945,-1.275292 -0.08559,-0.430336 -0.149895,-0.863823 -0.192902,-1.300468 -0.043,-0.436653 -0.0645,-0.874352 -0.06451,-1.313111 7e-6,-0.438758 0.02151,-0.876464 0.06451,-1.313102 0.04301,-0.436653 0.107308,-0.870133 0.192902,-1.300453 0.0856,-0.430336 0.192085,-0.855431 0.31945,-1.2753 0.127365,-0.419868 0.274994,-0.832473 0.442894,-1.237823 0.167908,-0.405357 0.355278,-0.801521 0.562104,-1.188477 0.206832,-0.386947 0.432128,-0.762825 0.67588,-1.127639 0.243767,-0.364815 0.504829,-0.716812 0.783173,-1.055985 0.278343,-0.339157 0.572639,-0.663864 0.882888,-0.974113 0.31025,-0.31025 0.634957,-0.604554 0.974121,-0.882897 0.339165,-0.278343 0.691155,-0.539397 1.05597,-0.783147 0.364814,-0.24377 0.740699,-0.46907 1.127655,-0.67589 0.386947,-0.20683 0.783104,-0.3942 1.188461,-0.5621 0.405373,-0.1679 0.817986,-0.31554 1.237846,-0.4429 0.419869,-0.12737 0.844963,-0.23385 1.275284,-0.31944 0.430329,-0.0856 0.863816,-0.14991 1.300453,-0.19292 0.43665,-0.043 0.87435,-0.0645 1.31311,-0.0645 0.43876,0 0.87647,0.0215 1.3131,0.0645 0.43665,0.043 0.87013,0.10732 1.30045,0.19292 0.43033,0.0856 0.85542,0.19207 1.27529,0.31944 0.41987,0.12736 0.83248,0.275 1.23784,0.4429 0.40536,0.1679 0.80151,0.35527 1.18846,0.5621 0.38696,0.20682 0.76284,0.43212 1.12766,0.67589 0.36481,0.24375 0.71681,0.504804 1.05598,0.783147 0.33916,0.278343 0.66386,0.572647 0.97411,0.882897 0.31025,0.310249 0.60456,0.634956 0.8829,0.974121 0.27834,0.339165 0.53939,0.691162 0.78315,1.055977 0.24377,0.364814 0.46906,0.740692 0.67589,1.127639 0.20682,0.386956 0.39419,0.78312 0.56209,1.188477 0.16791,0.40535 0.31555,0.817955 0.44291,1.237823 0.12738,0.419869 0.23385,0.844964 0.31944,1.275292 0.0856,0.430321 0.14991,0.863808 0.19292,1.300453 0.043,0.436646 0.0645,0.874352 0.0645,1.31311 z"
       style="fill:none;stroke:#000000;stroke-width:0.7;stroke-linecap:butt;stroke-linejoin:miter;stroke-miterlimit:10;stroke-dasharray:none;stroke-opacity:1"
       transform="matrix(1.9565217,0,0,1.9565217,80.626089,354.8894)"
       clip-path="url(#clipPath2)" />
    <g
       id="g2"
       transform="translate(-4,-2)">
      <text
         id="text2"
         xml:space="preserve"
         transform="matrix(0.71999997,0,0,0.71999997,279.79108,187.22815)"><tspan
           id="tspan2"
           style="font-variant:normal;font-weight:normal;font-size:21.73px;font-family:'Open Sans';writing-mode:lr-tb;fill:#000000;fill-opacity:1;fill-rule:nonzero;stroke:none"
           x="0"
           y="0">r</tspan></text>
    </g>
    <path
       id="path3"
       d="m 247.38071,-49.1199 -20.4973,-14.241798 H 185.8889 l -20.4973,14.241798 20.4973,14.241799 h 40.99451 z"
       style="fill:none;stroke:#000000;stroke-width:0.5;stroke-linecap:butt;stroke-linejoin:miter;stroke-miterlimit:10;stroke-dasharray:none;stroke-opacity:1"
       transform="matrix(1.9565217,0,0,1.9565217,80.626089,354.8894)"
       clip-path="url(#clipPath4)" />
    <path
       id="path5"
       d="m 114.3889,-89.119904 c 38.6718,0 83.1579,-13.659396 90.8394,15.921303"
       style="fill:none;stroke:#ff6347;stroke-width:0.7;stroke-linecap:butt;stroke-linejoin:miter;stroke-miterlimit:10;stroke-dasharray:none;stroke-opacity:1"
       transform="matrix(1.9565217,0,0,1.9565217,80.626089,354.8894)"
       clip-path="url(#clipPath6)" />
    <path
       id="path7"
       d="m 208.72189,-73.454102 -2.3358,10.334202 -4.6185,-9.535198 z"
       style="fill:#ff6347;fill-opacity:1;fill-rule:nonzero;stroke:#ff6347;stroke-width:0.7;stroke-linecap:butt;stroke-linejoin:miter;stroke-miterlimit:10;stroke-dasharray:none;stroke-opacity:1"
       transform="matrix(1.9565217,0,0,1.9565217,80.626089,354.8894)"
       clip-path="url(#clipPath8)" />
    <path
       id="path9"
       d="M 128.3889,-57.7243 H 74.388901 v 17.208801 H 128.3889 Z"
       style="fill:none;stroke:#000000;stroke-width:2;stroke-linecap:butt;stroke-linejoin:miter;stroke-miterlimit:10;stroke-dasharray:none;stroke-opacity:1"
       transform="matrix(1.9565217,0,0,1.9565217,80.626089,354.8894)"
       clip-path="url(#clipPath10)" />
    <path
       id="path11"
       d="m 128.4283,-49.1199 c 11.1801,0 24.39281,0 36.73331,0"
       style="fill:none;stroke:#0000ff;stroke-width:1.5;stroke-linecap:butt;stroke-linejoin:miter;stroke-miterlimit:10;stroke-dasharray:none;stroke-opacity:1"
       transform="matrix(1.9565217,0,0,1.9565217,80.626089,354.8894)"
       clip-path="url(#clipPath12)" />
    <path
       id="path13"
       d="m 345.27802,-57.7243 h -54 v 17.208801 h 54 z"
       style="fill:none;stroke:#000000;stroke-width:2;stroke-linecap:butt;stroke-linejoin:miter;stroke-miterlimit:10;stroke-dasharray:none;stroke-opacity:1"
       transform="matrix(1.9565217,0,0,1.9565217,80.626089,354.8894)"
       clip-path="url(#clipPath14)" />
    <path
       id="path15"
       d="m 318.27802,-40.1199 c 0,46.0848 -95.89922,53.7905 -110.13431,15.182499"
       style="fill:none;stroke:#ff6347;stroke-width:0.7;stroke-linecap:butt;stroke-linejoin:miter;stroke-miterlimit:10;stroke-dasharray:none;stroke-opacity:1"
       transform="matrix(1.9565217,0,0,1.9565217,80.626089,354.8894)"
       clip-path="url(#clipPath16)" />
    <path
       id="path17"
       d="m 204.63811,-24.6703 1.74798,-10.4496 5.15001,9.2589 z"
       style="fill:#ff6347;fill-opacity:1;fill-rule:nonzero;stroke:#ff6347;stroke-width:0.7;stroke-linecap:butt;stroke-linejoin:miter;stroke-miterlimit:10;stroke-dasharray:none;stroke-opacity:1"
       transform="matrix(1.9565217,0,0,1.9565217,80.626089,354.8894)"
       clip-path="url(#clipPath18)" />
    <g
       id="g18"
       transform="translate(-4,-2)">
      <text
         id="text18"
         xml:space="preserve"
         transform="matrix(0.71999997,0,0,0.71999997,603.84732,344.52565)"><tspan
           id="tspan18"
           style="font-variant:normal;font-weight:normal;font-size:38.04px;font-family:'Times New Roman';writing-mode:lr-tb;fill:#000000;fill-opacity:1;fill-rule:nonzero;stroke:none"
           x="0"
           y="0">+</tspan></text>
    </g>
    <path
       id="path19"
       d="m 247.41521,-49.1199 c 10.94609,0 22.714,0 33.45439,0"
       style="fill:none;stroke:#0000ff;stroke-width:1.5;stroke-linecap:butt;stroke-linejoin:miter;stroke-miterlimit:10;stroke-dasharray:none;stroke-opacity:1"
       transform="matrix(1.9565217,0,0,1.9565217,80.626089,354.8894)"
       clip-path="url(#clipPath20)" />
    <path
       id="path21"
       d="m 281.19879,-52.619999 10,3.500099 -10,3.499901 z"
       style="fill:#0000ff;fill-opacity:1;fill-rule:nonzero;stroke:#0000ff;stroke-width:1.5;stroke-linecap:butt;stroke-linejoin:miter;stroke-miterlimit:10;stroke-dasharray:none;stroke-opacity:1"
       transform="matrix(1.9565217,0,0,1.9565217,80.626089,354.8894)"
       clip-path="url(#clipPath22)" />
    <text
       xml:space="preserve"
       style="font-weight:bold;font-size:13.3333px;font-family:'Noto Sans';-inkscape-font-specification:'Noto Sans Bold';writing-mode:lr-tb;direction:ltr;fill:#000000;fill-opacity:0.672241;stroke-width:0"
       x="191.76161"
       y="146.40947"
       id="text17-5"><tspan
         sodipodi:role="line"
         id="tspan17-5"
         x="191.76161"
         y="146.40947"
         style="font-style:normal;font-variant:normal;font-weight:normal;font-stretch:normal;font-size:13.3333px;font-family:'Noto Sans';-inkscape-font-specification:'Noto Sans';fill:#000000">intrinsic growth rate</tspan></text>
    <text
       xml:space="preserve"
       style="font-weight:bold;font-size:16px;font-family:'Noto Sans';-inkscape-font-specification:'Noto Sans Bold';writing-mode:lr-tb;direction:ltr;fill:#000000;fill-opacity:0.672241;stroke-width:0"
       x="457.31876"
       y="262.48117"
       id="text17-9"><tspan
         sodipodi:role="line"
         id="tspan17-4"
         x="457.31876"
         y="262.48117"
         style="font-style:normal;font-variant:normal;font-weight:normal;font-stretch:normal;font-size:16px;font-family:'Noto Sans';-inkscape-font-specification:'Noto Sans';fill:#000000">growth</tspan></text>
    <text
       xml:space="preserve"
       style="font-weight:bold;font-size:16px;font-family:'Noto Sans';-inkscape-font-specification:'Noto Sans Bold';writing-mode:lr-tb;direction:ltr;fill:#000000;fill-opacity:0.672241;stroke-width:0"
       x="233.43687"
       y="264.80273"
       id="text17-9-8"><tspan
         sodipodi:role="line"
         id="tspan17-4-2"
         x="233.43687"
         y="264.80273"
         style="font-style:normal;font-variant:normal;font-weight:normal;font-stretch:normal;font-size:16px;font-family:'Noto Sans';-inkscape-font-specification:'Noto Sans';fill:#000000">Phosphorus</tspan></text>
    <text
       xml:space="preserve"
       style="font-weight:bold;font-size:16px;font-family:'Noto Sans';-inkscape-font-specification:'Noto Sans Bold';writing-mode:lr-tb;direction:ltr;fill:#000000;fill-opacity:0.672241;stroke-width:0"
       x="681.30353"
       y="264.14969"
       id="text17-9-8-2"><tspan
         sodipodi:role="line"
         id="tspan17-4-2-3"
         x="681.30353"
         y="264.14969"
         style="font-style:normal;font-variant:normal;font-weight:normal;font-stretch:normal;font-size:16px;font-family:'Noto Sans';-inkscape-font-specification:'Noto Sans';fill:#000000">Algae</tspan></text>
  </g>
</svg>
