<?xml version="1.0" encoding="UTF-8" standalone="no"?>
<!-- Created with Inkscape (http://www.inkscape.org/) -->

<svg
   width="180.14026mm"
   height="144.25687mm"
   viewBox="-2 -2 214.27117 171.589"
   version="1.1"
   id="svg1"
   xmlns="http://www.w3.org/2000/svg"
   xmlns:svg="http://www.w3.org/2000/svg">
  <defs
     id="defs1" />
  <g
     id="layer1"
     transform="translate(-27.9131,-18.515527)">
    <path
       d="m 172.97277,102.40543 c 0,-46.114185 29.53233,-83.498196 65.96244,-83.498196"
       stroke="#000000"
       stroke-width="2.95684"
       stroke-linejoin="round"
       stroke-miterlimit="10"
       fill="none"
       fill-rule="evenodd"
       id="path1"
       style="stroke:#0cba3b;stroke-opacity:1" />
    <path
       d="M 238.13895,185.91197 C 202.0198,185.36503 172.96806,148.1355 172.96806,102.40543"
       stroke="#000000"
       stroke-width="2.95684"
       stroke-linejoin="round"
       stroke-miterlimit="10"
       fill="none"
       fill-rule="evenodd"
       id="path2"
       style="stroke:#0cba3b;stroke-opacity:1" />
    <path
       d="m 135.27995,102.4096 c 0,-27.668506 7.38309,-50.101418 16.49061,-50.101418 9.10753,0 16.49061,22.432912 16.49061,50.101418 0,27.66851 -7.38308,50.10143 -16.49061,50.10143 -9.10752,0 -16.49061,-22.43292 -16.49061,-50.10143 z"
       stroke="#000000"
       stroke-width="1.47842"
       stroke-linejoin="round"
       stroke-miterlimit="10"
       fill="#0cba3b"
       fill-rule="evenodd"
       id="path3"
       style="stroke:none" />
    <path
       d="m 172.97277,102.4096 c 0,-27.668506 7.38308,-50.101418 16.49061,-50.101418 9.10753,0 16.49061,22.432912 16.49061,50.101418 0,27.66851 -7.38308,50.10143 -16.49061,50.10143 -9.10753,0 -16.49061,-22.43292 -16.49061,-50.10143 z"
       stroke="#000000"
       stroke-width="1.47842"
       stroke-linejoin="round"
       stroke-miterlimit="10"
       fill="#0cba3b"
       fill-rule="evenodd"
       id="path4"
       style="stroke:none" />
    <path
       d="m 26.9131,18.907234 c 36.430109,0 65.962433,37.384011 65.962433,83.502366"
       stroke="#000000"
       stroke-width="2.95684"
       stroke-linejoin="round"
       stroke-miterlimit="10"
       fill="none"
       fill-rule="evenodd"
       id="path5"
       style="stroke:#0cba3b;stroke-opacity:1" />
    <path
       d="m 92.875533,102.4096 c 0,46.11419 -29.532324,83.4982 -65.962433,83.4982"
       stroke="#000000"
       stroke-width="2.95684"
       stroke-linejoin="round"
       stroke-miterlimit="10"
       fill="none"
       fill-rule="evenodd"
       id="path6"
       style="stroke:#0cba3b;stroke-opacity:1" />
    <path
       d="m 97.587136,102.4096 c 0,-27.668506 7.383084,-50.101418 16.490604,-50.101418 9.10753,0 16.49061,22.432912 16.49061,50.101418 0,27.66851 -7.38308,50.10143 -16.49061,50.10143 -9.10752,0 -16.490604,-22.43292 -16.490604,-50.10143 z"
       stroke="#000000"
       stroke-width="1.47842"
       stroke-linejoin="round"
       stroke-miterlimit="10"
       fill="#0cba3b"
       fill-rule="evenodd"
       id="path7"
       style="stroke:none" />
    <path
       d="m 55.182714,102.4096 c 0,-27.668506 8.43848,-50.101418 18.84641,-50.101418 10.407929,0 18.846409,22.432912 18.846409,50.101418 0,27.66851 -8.43848,50.10143 -18.846409,50.10143 -10.40793,0 -18.84641,-22.43292 -18.84641,-50.10143 z"
       stroke="#000000"
       stroke-width="1.47842"
       stroke-linejoin="round"
       stroke-miterlimit="10"
       fill="#0cba3b"
       fill-rule="evenodd"
       id="path8"
       style="stroke:none" />
  </g>
</svg>
