<?xml version="1.0" encoding="UTF-8" standalone="no"?>
<!-- Created with Inkscape (http://www.inkscape.org/) -->

<svg
   version="1.1"
   id="svg1"
   width="682.77368"
   height="150.07384"
   viewBox="0 0 682.77368 150.07384"
   sodipodi:docname="graph_lv_en.svg"
   inkscape:version="1.4.4 (dcaf3e7, 2026-05-05)"
   xmlns:inkscape="http://www.inkscape.org/namespaces/inkscape"
   xmlns:sodipodi="http://sodipodi.sourceforge.net/DTD/sodipodi-0.dtd"
   xmlns="http://www.w3.org/2000/svg"
   xmlns:svg="http://www.w3.org/2000/svg">
  <defs
     id="defs1">
    <clipPath
       clipPathUnits="userSpaceOnUse"
       id="clipPath2">
      <path
         d="M 240.00002,240.00002 H 2400 V 1365 H 240.00002 Z"
         transform="matrix(0.30417593,0,0,0.30417593,-77.002229,-315.0904)"
         clip-rule="evenodd"
         id="path2" />
    </clipPath>
    <clipPath
       clipPathUnits="userSpaceOnUse"
       id="clipPath4">
      <path
         d="M 240.00002,240.00002 H 2400 V 1365 H 240.00002 Z"
         transform="matrix(0.30417593,0,0,0.30417593,-77.002229,-315.0904)"
         clip-rule="evenodd"
         id="path4" />
    </clipPath>
    <clipPath
       clipPathUnits="userSpaceOnUse"
       id="clipPath6">
      <path
         d="M 240.00002,240.00002 H 2400 V 1365 H 240.00002 Z"
         transform="matrix(0.30417593,0,0,0.30417593,-77.002229,-315.0904)"
         clip-rule="evenodd"
         id="path6" />
    </clipPath>
    <clipPath
       clipPathUnits="userSpaceOnUse"
       id="clipPath8">
      <path
         d="M 240.00002,240.00002 H 2400 V 1365 H 240.00002 Z"
         transform="matrix(0.30417593,0,0,0.30417593,-77.002229,-315.0904)"
         clip-rule="evenodd"
         id="path8" />
    </clipPath>
    <clipPath
       clipPathUnits="userSpaceOnUse"
       id="clipPath10">
      <path
         d="M 240.00002,240.00002 H 2400 V 1365 H 240.00002 Z"
         transform="matrix(0.30417593,0,0,0.30417593,-77.002229,-315.0904)"
         clip-rule="evenodd"
         id="path10" />
    </clipPath>
    <clipPath
       clipPathUnits="userSpaceOnUse"
       id="clipPath12">
      <path
         d="M 240.00002,240.00002 H 2400 V 1365 H 240.00002 Z"
         transform="matrix(0.30417593,0,0,0.30417593,-77.002229,-315.0904)"
         clip-rule="evenodd"
         id="path12" />
    </clipPath>
    <clipPath
       clipPathUnits="userSpaceOnUse"
       id="clipPath14">
      <path
         d="M 240.00002,240.00002 H 2400 V 1365 H 240.00002 Z"
         transform="matrix(0.30417593,0,0,0.30417593,-77.002229,-315.0904)"
         clip-rule="evenodd"
         id="path14" />
    </clipPath>
    <clipPath
       clipPathUnits="userSpaceOnUse"
       id="clipPath16">
      <path
         d="M 240.00002,240.00002 H 2400 V 1365 H 240.00002 Z"
         transform="matrix(0.30417593,0,0,0.30417593,-77.002229,-315.0904)"
         clip-rule="evenodd"
         id="path16" />
    </clipPath>
    <clipPath
       clipPathUnits="userSpaceOnUse"
       id="clipPath18">
      <path
         d="M 240.00002,240.00002 H 2400 V 1365 H 240.00002 Z"
         transform="matrix(0.30417593,0,0,0.30417593,-77.002229,-315.0904)"
         clip-rule="evenodd"
         id="path18" />
    </clipPath>
    <clipPath
       clipPathUnits="userSpaceOnUse"
       id="clipPath20">
      <path
         d="M 240.00002,240.00002 H 2400 V 1365 H 240.00002 Z"
         transform="matrix(0.30417593,0,0,0.30417593,-77.002229,-315.0904)"
         clip-rule="evenodd"
         id="path20" />
    </clipPath>
    <clipPath
       clipPathUnits="userSpaceOnUse"
       id="clipPath22">
      <path
         d="M 240.00002,240.00002 H 2400 V 1365 H 240.00002 Z"
         transform="matrix(0.30417593,0,0,0.30417593,-77.002229,-315.0904)"
         clip-rule="evenodd"
         id="path22" />
    </clipPath>
    <clipPath
       clipPathUnits="userSpaceOnUse"
       id="clipPath24">
      <path
         d="M 240.00002,240.00002 H 2400 V 1365 H 240.00002 Z"
         transform="matrix(0.30417593,0,0,0.30417593,-77.002229,-315.0904)"
         clip-rule="evenodd"
         id="path24" />
    </clipPath>
    <clipPath
       clipPathUnits="userSpaceOnUse"
       id="clipPath26">
      <path
         d="M 240.00002,240.00002 H 2400 V 1365 H 240.00002 Z"
         transform="matrix(0.30417593,0,0,0.30417593,-77.002229,-315.0904)"
         clip-rule="evenodd"
         id="path26" />
    </clipPath>
    <clipPath
       clipPathUnits="userSpaceOnUse"
       id="clipPath28">
      <path
         d="M 240.00002,240.00002 H 2400 V 1365 H 240.00002 Z"
         transform="matrix(0.30417593,0,0,0.30417593,-77.002229,-315.0904)"
         clip-rule="evenodd"
         id="path28" />
    </clipPath>
    <clipPath
       clipPathUnits="userSpaceOnUse"
       id="clipPath30">
      <path
         d="M 240.00002,240.00002 H 2400 V 1365 H 240.00002 Z"
         transform="matrix(0.30417593,0,0,0.30417593,-77.002229,-315.0904)"
         clip-rule="evenodd"
         id="path30" />
    </clipPath>
    <clipPath
       clipPathUnits="userSpaceOnUse"
       id="clipPath32">
      <path
         d="M 240.00002,240.00002 H 2400 V 1365 H 240.00002 Z"
         transform="matrix(0.30417593,0,0,0.30417593,-77.002229,-315.0904)"
         clip-rule="evenodd"
         id="path32" />
    </clipPath>
    <clipPath
       clipPathUnits="userSpaceOnUse"
       id="clipPath34">
      <path
         d="M 240.00002,240.00002 H 2400 V 1365 H 240.00002 Z"
         transform="matrix(0.30417593,0,0,0.30417593,-77.002229,-315.0904)"
         clip-rule="evenodd"
         id="path34" />
    </clipPath>
    <clipPath
       clipPathUnits="userSpaceOnUse"
       id="clipPath36">
      <path
         d="M 240.00002,240.00002 H 2400 V 1365 H 240.00002 Z"
         transform="matrix(0.30417593,0,0,0.30417593,-77.002229,-315.0904)"
         clip-rule="evenodd"
         id="path36" />
    </clipPath>
    <clipPath
       clipPathUnits="userSpaceOnUse"
       id="clipPath38">
      <path
         d="M 240.00002,240.00002 H 2400 V 1365 H 240.00002 Z"
         transform="matrix(0.30417593,0,0,0.30417593,-77.002229,-315.0904)"
         clip-rule="evenodd"
         id="path38" />
    </clipPath>
    <clipPath
       clipPathUnits="userSpaceOnUse"
       id="clipPath40">
      <path
         d="M 240.00002,240.00002 H 2400 V 1365 H 240.00002 Z"
         transform="matrix(0.30417593,0,0,0.30417593,-77.002229,-315.0904)"
         clip-rule="evenodd"
         id="path40" />
    </clipPath>
    <clipPath
       clipPathUnits="userSpaceOnUse"
       id="clipPath42">
      <path
         d="M 240.00002,240.00002 H 2400 V 1365 H 240.00002 Z"
         transform="matrix(0.30417593,0,0,0.30417593,-77.002229,-315.0904)"
         clip-rule="evenodd"
         id="path42" />
    </clipPath>
    <clipPath
       clipPathUnits="userSpaceOnUse"
       id="clipPath44">
      <path
         d="M 240.00002,240.00002 H 2400 V 1365 H 240.00002 Z"
         transform="matrix(0.30417593,0,0,0.30417593,-77.002229,-315.0904)"
         clip-rule="evenodd"
         id="path44" />
    </clipPath>
    <clipPath
       clipPathUnits="userSpaceOnUse"
       id="clipPath46">
      <path
         d="M 240.00002,240.00002 H 2400 V 1365 H 240.00002 Z"
         transform="matrix(0.30417593,0,0,0.30417593,-77.002229,-315.0904)"
         clip-rule="evenodd"
         id="path46" />
    </clipPath>
    <clipPath
       clipPathUnits="userSpaceOnUse"
       id="clipPath48">
      <path
         d="M 240.00002,240.00002 H 2400 V 1365 H 240.00002 Z"
         transform="matrix(0.30417593,0,0,0.30417593,-77.002229,-315.0904)"
         clip-rule="evenodd"
         id="path48" />
    </clipPath>
    <clipPath
       clipPathUnits="userSpaceOnUse"
       id="clipPath50">
      <path
         d="M 240.00002,240.00002 H 2400 V 1365 H 240.00002 Z"
         transform="matrix(0.30417593,0,0,0.30417593,-77.002229,-315.0904)"
         clip-rule="evenodd"
         id="path50" />
    </clipPath>
    <clipPath
       clipPathUnits="userSpaceOnUse"
       id="clipPath52">
      <path
         d="M 240.00002,240.00002 H 2400 V 1365 H 240.00002 Z"
         transform="matrix(0.30417593,0,0,0.30417593,-77.002229,-315.0904)"
         clip-rule="evenodd"
         id="path52" />
    </clipPath>
    <clipPath
       clipPathUnits="userSpaceOnUse"
       id="clipPath54">
      <path
         d="M 240.00002,240.00002 H 2400 V 1365 H 240.00002 Z"
         transform="matrix(0.30417593,0,0,0.30417593,-77.002229,-315.0904)"
         clip-rule="evenodd"
         id="path54" />
    </clipPath>
    <clipPath
       clipPathUnits="userSpaceOnUse"
       id="clipPath56">
      <path
         d="M 240.00002,240.00002 H 2400 V 1365 H 240.00002 Z"
         transform="matrix(0.30417593,0,0,0.30417593,-77.002229,-315.0904)"
         clip-rule="evenodd"
         id="path56" />
    </clipPath>
    <clipPath
       clipPathUnits="userSpaceOnUse"
       id="clipPath58">
      <path
         d="M 240.00002,240.00002 H 2400 V 1365 H 240.00002 Z"
         transform="matrix(0.30417593,0,0,0.30417593,-77.002229,-315.0904)"
         clip-rule="evenodd"
         id="path58" />
    </clipPath>
    <clipPath
       clipPathUnits="userSpaceOnUse"
       id="clipPath60">
      <path
         d="M 240.00002,240.00002 H 2400 V 1365 H 240.00002 Z"
         transform="matrix(0.30417593,0,0,0.30417593,-77.002229,-315.0904)"
         clip-rule="evenodd"
         id="path60" />
    </clipPath>
    <clipPath
       clipPathUnits="userSpaceOnUse"
       id="clipPath62">
      <path
         d="M 240.00002,240.00002 H 2400 V 1365 H 240.00002 Z"
         transform="matrix(0.30417593,0,0,0.30417593,-77.002229,-315.0904)"
         clip-rule="evenodd"
         id="path62" />
    </clipPath>
    <clipPath
       clipPathUnits="userSpaceOnUse"
       id="clipPath64">
      <path
         d="M 240.00002,240.00002 H 2400 V 1365 H 240.00002 Z"
         transform="matrix(0.30417593,0,0,0.30417593,-77.002229,-315.0904)"
         clip-rule="evenodd"
         id="path64" />
    </clipPath>
    <clipPath
       clipPathUnits="userSpaceOnUse"
       id="clipPath66">
      <path
         d="M 240.00002,240.00002 H 2400 V 1365 H 240.00002 Z"
         transform="matrix(0.30417593,0,0,0.30417593,-77.002229,-315.0904)"
         clip-rule="evenodd"
         id="path66" />
    </clipPath>
    <clipPath
       clipPathUnits="userSpaceOnUse"
       id="clipPath68">
      <path
         d="M 240.00002,240.00002 H 2400 V 1365 H 240.00002 Z"
         transform="matrix(0.30417593,0,0,0.30417593,-77.002229,-315.0904)"
         clip-rule="evenodd"
         id="path68" />
    </clipPath>
    <clipPath
       clipPathUnits="userSpaceOnUse"
       id="clipPath70">
      <path
         d="M 240.00002,240.00002 H 2400 V 1365 H 240.00002 Z"
         transform="matrix(0.30417593,0,0,0.30417593,-77.002229,-315.0904)"
         clip-rule="evenodd"
         id="path70" />
    </clipPath>
    <clipPath
       clipPathUnits="userSpaceOnUse"
       id="clipPath72">
      <path
         d="M 240.00002,240.00002 H 2400 V 1365 H 240.00002 Z"
         transform="matrix(0.30417593,0,0,0.30417593,-77.002229,-315.0904)"
         clip-rule="evenodd"
         id="path72" />
    </clipPath>
  </defs>
  <sodipodi:namedview
     id="namedview1"
     pagecolor="#ffffff"
     bordercolor="#000000"
     borderopacity="0.25"
     inkscape:showpageshadow="2"
     inkscape:pageopacity="0.0"
     inkscape:pagecheckerboard="0"
     inkscape:deskcolor="#d1d1d1"
     inkscape:zoom="3.3068182"
     inkscape:cx="324.02749"
     inkscape:cy="150.14433"
     inkscape:window-width="3840"
     inkscape:window-height="2036"
     inkscape:window-x="3348"
     inkscape:window-y="-12"
     inkscape:window-maximized="1"
     inkscape:current-layer="g1">
    <inkscape:page
       x="1.0266234e-07"
       y="1.3690765e-06"
       inkscape:label="1"
       id="page1"
       width="682.77368"
       height="150.07384"
       margin="0"
       bleed="0" />
  </sodipodi:namedview>
  <g
     id="g1"
     inkscape:groupmode="layer"
     inkscape:label="1"
     transform="translate(-81.279513,-181.59763)">
    <path
       id="path1"
       d="m 84.435196,-80.837097 c -8e-6,0.946625 -0.09235,1.884155 -0.277023,2.812584 -0.184678,0.928428 -0.458146,1.829925 -0.820404,2.70449 -0.362259,0.874566 -0.806344,1.705391 -1.332245,2.492478 -0.525917,0.787079 -1.123558,1.515297 -1.792908,2.184662 -0.669365,0.669365 -1.397591,1.266998 -2.184677,1.792907 -0.787087,0.525917 -1.617912,0.970009 -2.492478,1.332261 -0.874565,0.362251 -1.776062,0.635719 -2.70449,0.820396 -0.928429,0.184677 -1.865952,0.277016 -2.812569,0.277016 -0.946625,0 -1.884155,-0.09234 -2.812591,-0.277016 -0.928429,-0.184677 -1.829926,-0.458138 -2.704491,-0.820389 -0.874565,-0.362259 -1.705391,-0.806343 -2.492474,-1.33226 -0.787086,-0.525917 -1.515308,-1.12355 -2.184669,-1.792915 -0.669361,-0.669365 -1.267002,-1.397583 -1.792916,-2.184662 -0.525913,-0.787087 -0.970001,-1.617912 -1.332256,-2.492478 -0.362255,-0.874565 -0.635719,-1.776062 -0.820392,-2.70449 -0.184678,-0.928429 -0.277016,-1.865959 -0.277012,-2.812584 -4e-6,-0.946617 0.09233,-1.88414 0.277012,-2.812569 0.184673,-0.928428 0.458141,-1.829925 0.820396,-2.70449 0.362255,-0.874566 0.806339,-1.705391 1.332252,-2.492478 0.525914,-0.787086 1.123555,-1.515312 1.792916,-2.184677 0.669361,-0.669365 1.397583,-1.266998 2.184673,-1.792915 0.787083,-0.52591 1.617905,-0.969994 2.49247,-1.332253 0.874565,-0.362251 1.776062,-0.635712 2.704491,-0.820396 0.928436,-0.184677 1.865966,-0.277016 2.812591,-0.277024 0.946617,8e-6 1.88414,0.09235 2.812569,0.277031 0.928428,0.184677 1.829925,0.458138 2.70449,0.820389 0.874566,0.362259 1.705384,0.806343 2.49247,1.33226 0.787087,0.52591 1.515312,1.123543 2.18467,1.792908 0.669365,0.669365 1.266998,1.397598 1.792915,2.184685 0.525909,0.787086 0.969994,1.617904 1.332253,2.49247 0.362258,0.874565 0.635726,1.776062 0.820404,2.70449 0.184677,0.928429 0.277015,1.865952 0.277023,2.812569 z"
       style="fill:none;stroke:#000000;stroke-width:0.7;stroke-linecap:butt;stroke-linejoin:miter;stroke-miterlimit:10;stroke-dasharray:none;stroke-opacity:1"
       transform="matrix(1.0520227,0,0,1.0520227,77.008093,325.48225)"
       clip-path="url(#clipPath2)" />
    <g
       id="g2"
       transform="translate(-4,-6)">
      <text
         id="text2"
         xml:space="preserve"
         transform="matrix(0.71999997,0,0,0.71999997,152.32184,248.97476)"><tspan
           id="tspan2"
           style="font-variant:normal;font-weight:normal;font-size:11.68px;font-family:Arial;writing-mode:lr-tb;fill:#000000;fill-opacity:1;fill-rule:nonzero;stroke:none"
           x="0"
           y="0">a</tspan></text>
    </g>
    <path
       id="path3"
       d="m 191.0184,-39.837101 -14.5,-9 h -29 l -14.5,9 14.5,9 h 29 z"
       style="fill:none;stroke:#000000;stroke-width:0.5;stroke-linecap:butt;stroke-linejoin:miter;stroke-miterlimit:10;stroke-dasharray:none;stroke-opacity:1"
       transform="matrix(1.0520227,0,0,1.0520227,77.008093,325.48225)"
       clip-path="url(#clipPath4)" />
    <path
       id="path5"
       d="m 85.018402,-80.837097 c 33.295898,0 68.916798,-4.084206 75.808898,21.962295"
       style="fill:none;stroke:#ff6347;stroke-width:0.7;stroke-linecap:butt;stroke-linejoin:miter;stroke-miterlimit:10;stroke-dasharray:none;stroke-opacity:1"
       transform="matrix(1.0520227,0,0,1.0520227,77.008093,325.48225)"
       clip-path="url(#clipPath6)" />
    <path
       id="path7"
       d="m 164.31551,-59.179901 -2.29711,10.3428 -4.6541,-9.517899 z"
       style="fill:#ff6347;fill-opacity:1;fill-rule:nonzero;stroke:#ff6347;stroke-width:0.7;stroke-linecap:butt;stroke-linejoin:miter;stroke-miterlimit:10;stroke-dasharray:none;stroke-opacity:1"
       transform="matrix(1.0520227,0,0,1.0520227,77.008093,325.48225)"
       clip-path="url(#clipPath8)" />
    <path
       id="path9"
       d="m 268.30411,-127.83711 c 0,0.93802 -0.0915,1.86703 -0.27451,2.78701 -0.18301,0.92 -0.45398,1.81331 -0.81296,2.67992 -0.35897,0.86661 -0.79901,1.68988 -1.32016,2.46981 -0.52111,0.77993 -1.11331,1.50152 -1.77658,2.1648 -0.6633,0.66327 -1.38491,1.25547 -2.16485,1.7766 -0.77991,0.52113 -1.60318,0.96118 -2.46979,1.32015 -0.86661,0.35895 -1.75992,0.62993 -2.67987,0.81292 -0.92,0.18299 -1.84898,0.27449 -2.78699,0.27449 -0.93802,0 -1.86703,-0.0915 -2.78703,-0.27449 -0.91998,-0.183 -1.81328,-0.45398 -2.6799,-0.81293 -0.86661,-0.35896 -1.68988,-0.79901 -2.4698,-1.32014 -0.77994,-0.52113 -1.50155,-1.11333 -2.16482,-1.7766 -0.66328,-0.66328 -1.25549,-1.38487 -1.77662,-2.1648 -0.52112,-0.77993 -0.96117,-1.6032 -1.32013,-2.46981 -0.35895,-0.86661 -0.62991,-1.75992 -0.81291,-2.67992 -0.183,-0.91998 -0.27449,-1.84899 -0.27449,-2.78701 0,-0.93801 0.0915,-1.86701 0.2745,-2.78697 0.18299,-0.92 0.45395,-1.8133 0.81291,-2.67991 0.35897,-0.86662 0.799,-1.68989 1.32013,-2.46981 0.52114,-0.77993 1.11333,-1.50153 1.77661,-2.16481 0.66327,-0.66329 1.38488,-1.25548 2.16482,-1.7766 0.77992,-0.52115 1.60317,-0.9612 2.46978,-1.32014 0.86663,-0.35897 1.75994,-0.62995 2.67993,-0.81293 0.92,-0.183 1.849,-0.27451 2.78702,-0.27452 0.93801,1e-5 1.86699,0.0915 2.78696,0.27452 0.91998,0.18298 1.81329,0.45396 2.6799,0.81293 0.86661,0.35894 1.68988,0.79899 2.46979,1.32014 0.77994,0.52112 1.50155,1.11331 2.16485,1.7766 0.66327,0.66328 1.25547,1.38487 1.77661,2.16479 0.52112,0.77994 0.96116,1.60321 1.32013,2.46983 0.35898,0.86661 0.62995,1.75991 0.81293,2.67991 0.18302,0.91996 0.27454,1.84896 0.27454,2.78697 z"
       style="fill:none;stroke:#000000;stroke-width:0.7;stroke-linecap:butt;stroke-linejoin:miter;stroke-miterlimit:10;stroke-dasharray:none;stroke-opacity:1"
       transform="matrix(1.0520227,0,0,1.0520227,109.01623,341.13623)"
       clip-path="url(#clipPath10)" />
    <g
       id="g10"
       transform="translate(28.008136,9.653976)">
      <text
         id="text10"
         xml:space="preserve"
         transform="matrix(0.71999997,0,0,0.71999997,346.13684,199.51976)"><tspan
           id="tspan10"
           style="font-variant:normal;font-weight:normal;font-size:11.68px;font-family:Arial;writing-mode:lr-tb;fill:#000000;fill-opacity:1;fill-rule:nonzero;stroke:none"
           x="0"
           y="0">c</tspan></text>
    </g>
    <g
       id="g11"
       transform="translate(20.096316,-10.018658)" />
    <path
       id="path11"
       d="m 375.0184,-39.837101 -14.5,-9 h -29 l -14.5,9 14.5,9 h 29 z"
       style="fill:none;stroke:#000000;stroke-width:0.5;stroke-linecap:butt;stroke-linejoin:miter;stroke-miterlimit:10;stroke-dasharray:none;stroke-opacity:1"
       transform="matrix(1.0520227,0,0,1.0520227,77.008093,325.48225)"
       clip-path="url(#clipPath12)" />
    <path
       id="path13"
       d="m 268.0184,-127.8371 c 45.87201,0 73.86759,25.6346 77.5777,68.8875"
       style="fill:none;stroke:#ff6347;stroke-width:0.7;stroke-linecap:butt;stroke-linejoin:miter;stroke-miterlimit:10;stroke-dasharray:none;stroke-opacity:1"
       transform="matrix(0.6371614,0,0,0.82526742,220.50727,312.14848)"
       clip-path="url(#clipPath14)" />
    <path
       id="path15"
       d="m 349.09799,-58.9744 -3.07959,10.137299 -3.9143,-9.8452 z"
       style="fill:#ff6347;fill-opacity:1;fill-rule:nonzero;stroke:#ff6347;stroke-width:0.7;stroke-linecap:butt;stroke-linejoin:miter;stroke-miterlimit:10;stroke-dasharray:none;stroke-opacity:1"
       transform="matrix(1.0520227,0,0,1.0520227,77.008093,325.48225)"
       clip-path="url(#clipPath16)" />
    <path
       id="path17"
       d="m 268.43521,-80.837097 c 0,0.946625 -0.0924,1.884155 -0.27704,2.812584 -0.18466,0.928428 -0.45813,1.829925 -0.8204,2.70449 -0.36228,0.874566 -0.80637,1.705391 -1.33228,2.492478 -0.52591,0.787079 -1.12353,1.515297 -1.79287,2.184662 -0.66938,0.669365 -1.39759,1.266998 -2.18467,1.792907 -0.78711,0.525917 -1.61795,0.970009 -2.49249,1.332261 -0.87457,0.362251 -1.77606,0.635719 -2.7045,0.820396 -0.92843,0.184677 -1.86595,0.277016 -2.81256,0.277016 -0.94662,0 -1.88415,-0.09234 -2.8126,-0.277016 -0.92843,-0.184677 -1.82993,-0.458138 -2.7045,-0.820389 -0.87456,-0.362259 -1.70539,-0.806343 -2.49247,-1.33226 -0.78709,-0.525917 -1.5153,-1.12355 -2.18466,-1.792915 -0.66935,-0.669365 -1.26701,-1.397583 -1.79294,-2.184662 -0.52589,-0.787087 -0.96998,-1.617912 -1.33224,-2.492478 -0.36226,-0.874565 -0.63571,-1.776062 -0.82039,-2.70449 -0.18468,-0.928429 -0.27701,-1.865959 -0.27699,-2.812584 -2e-5,-0.946617 0.0923,-1.88414 0.27699,-2.812569 0.18468,-0.928428 0.45815,-1.829925 0.82041,-2.70449 0.36225,-0.874566 0.80633,-1.705391 1.33226,-2.492478 0.5259,-0.787086 1.12355,-1.515312 1.79292,-2.184677 0.66936,-0.669365 1.39757,-1.266998 2.18464,-1.792915 0.78708,-0.52591 1.61791,-0.969994 2.49247,-1.332253 0.87457,-0.362251 1.77607,-0.635712 2.70451,-0.820396 0.92844,-0.184677 1.86597,-0.277016 2.81259,-0.277024 0.94661,8e-6 1.88413,0.09235 2.81256,0.277031 0.92841,0.184677 1.8299,0.458138 2.70447,0.820389 0.87454,0.362259 1.70538,0.806343 2.49246,1.33226 0.78711,0.52591 1.51535,1.123543 2.1847,1.792908 0.66934,0.669365 1.26699,1.397598 1.7929,2.184685 0.52591,0.787086 0.97,1.617904 1.33228,2.49247 0.36227,0.874565 0.63574,1.776062 0.8204,2.70449 0.18469,0.928429 0.27704,1.865952 0.27704,2.812569 z"
       style="fill:none;stroke:#000000;stroke-width:0.7;stroke-linecap:butt;stroke-linejoin:miter;stroke-miterlimit:10;stroke-dasharray:none;stroke-opacity:1"
       transform="matrix(1.0520227,0,0,1.0520227,77.008093,325.48225)"
       clip-path="url(#clipPath18)" />
    <g
       id="g18"
       transform="translate(-4,-6)">
      <text
         id="text18"
         xml:space="preserve"
         transform="matrix(0.71999997,0,0,0.71999997,345.90058,248.97476)"><tspan
           id="tspan18"
           style="font-variant:normal;font-weight:normal;font-size:11.68px;font-family:Arial;writing-mode:lr-tb;fill:#000000;fill-opacity:1;fill-rule:nonzero;stroke:none"
           x="0"
           y="0">b</tspan></text>
    </g>
    <path
       id="path19"
       d="m 269.0184,-80.837097 c 33.2959,0 68.91681,-4.084206 75.8089,21.962295"
       style="fill:none;stroke:#ff6347;stroke-width:0.7;stroke-linecap:butt;stroke-linejoin:miter;stroke-miterlimit:10;stroke-dasharray:none;stroke-opacity:1"
       transform="matrix(1.0520227,0,0,1.0520227,77.008093,325.48225)"
       clip-path="url(#clipPath20)" />
    <path
       id="path21"
       d="m 348.31549,-59.179901 -2.29709,10.3428 -4.65411,-9.517899 z"
       style="fill:#ff6347;fill-opacity:1;fill-rule:nonzero;stroke:#ff6347;stroke-width:0.7;stroke-linecap:butt;stroke-linejoin:miter;stroke-miterlimit:10;stroke-dasharray:none;stroke-opacity:1"
       transform="matrix(1.0520227,0,0,1.0520227,77.008093,325.48225)"
       clip-path="url(#clipPath22)" />
    <path
       id="path23"
       d="m 452.43518,-80.837097 c 0,0.946625 -0.0924,1.884155 -0.27707,2.812584 -0.18466,0.928428 -0.45816,1.829925 -0.82043,2.70449 -0.36225,0.874566 -0.80634,1.705391 -1.33225,2.492478 -0.52591,0.787079 -1.12353,1.515297 -1.79288,2.184662 -0.66937,0.669365 -1.39758,1.266998 -2.18466,1.792907 -0.78711,0.525917 -1.61795,0.970009 -2.49252,1.332261 -0.87454,0.362251 -1.77603,0.635719 -2.70447,0.820396 -0.92843,0.184677 -1.86593,0.277016 -2.81253,0.277016 -0.94662,0 -1.88415,-0.09234 -2.81259,-0.277016 -0.92844,-0.184677 -1.82996,-0.458138 -2.7045,-0.820389 -0.87457,-0.362259 -1.70538,-0.806343 -2.49246,-1.33226 -0.78708,-0.525917 -1.51532,-1.12355 -2.18466,-1.792915 -0.66937,-0.669365 -1.26703,-1.397583 -1.79294,-2.184662 -0.52591,-0.787087 -0.97,-1.617912 -1.33228,-2.492478 -0.36224,-0.874565 -0.63571,-1.776062 -0.82037,-2.70449 -0.18466,-0.928429 -0.27701,-1.865959 -0.27698,-2.812584 -3e-5,-0.946617 0.0923,-1.88414 0.27701,-2.812569 0.18466,-0.928428 0.4581,-1.829925 0.82034,-2.70449 0.36228,-0.874566 0.80634,-1.705391 1.33225,-2.492478 0.52594,-0.787086 1.1236,-1.515312 1.79297,-2.184677 0.66934,-0.669365 1.39758,-1.266998 2.18466,-1.792915 0.78708,-0.52591 1.61789,-0.969994 2.49246,-1.332253 0.87454,-0.362251 1.77606,-0.635712 2.7045,-0.820396 0.92844,-0.184677 1.86597,-0.277016 2.81259,-0.277024 0.9466,8e-6 1.8841,0.09235 2.81253,0.277031 0.92844,0.184677 1.82993,0.458138 2.70447,0.820389 0.87457,0.362259 1.70541,0.806343 2.49252,1.33226 0.78708,0.52591 1.51532,1.123543 2.1847,1.792908 0.66934,0.669365 1.26693,1.397598 1.79284,2.184685 0.52591,0.787086 0.97,1.617904 1.33228,2.49247 0.36227,0.874565 0.63574,1.776062 0.82043,2.70449 0.18469,0.928429 0.27704,1.865952 0.27704,2.812569 z"
       style="fill:none;stroke:#000000;stroke-width:0.7;stroke-linecap:butt;stroke-linejoin:miter;stroke-miterlimit:10;stroke-dasharray:none;stroke-opacity:1"
       transform="matrix(1.0520227,0,0,1.0520227,77.008093,325.48225)"
       clip-path="url(#clipPath24)" />
    <g
       id="g24"
       transform="translate(-4,-6)">
      <text
         id="text24"
         xml:space="preserve"
         transform="matrix(0.71999997,0,0,0.71999997,539.46807,248.97476)"><tspan
           id="tspan24"
           style="font-variant:normal;font-weight:normal;font-size:11.68px;font-family:Arial;writing-mode:lr-tb;fill:#000000;fill-opacity:1;fill-rule:nonzero;stroke:none"
           x="0"
           y="0">d</tspan></text>
    </g>
    <path
       id="path25"
       d="m 559.01837,-39.837101 -14.5,-9 h -29 l -14.49997,9 14.49997,9 h 29 z"
       style="fill:none;stroke:#000000;stroke-width:0.5;stroke-linecap:butt;stroke-linejoin:miter;stroke-miterlimit:10;stroke-dasharray:none;stroke-opacity:1"
       transform="matrix(1.0520227,0,0,1.0520227,77.008093,325.48225)"
       clip-path="url(#clipPath26)" />
    <path
       id="path27"
       d="m 453.0184,-80.837097 c 33.2959,0 68.91678,-4.084206 75.80887,21.962295"
       style="fill:none;stroke:#ff6347;stroke-width:0.7;stroke-linecap:butt;stroke-linejoin:miter;stroke-miterlimit:10;stroke-dasharray:none;stroke-opacity:1"
       transform="matrix(1.0520227,0,0,1.0520227,77.008093,325.48225)"
       clip-path="url(#clipPath28)" />
    <path
       id="path29"
       d="m 532.31549,-59.179901 -2.29712,10.3428 -4.65405,-9.517899 z"
       style="fill:#ff6347;fill-opacity:1;fill-rule:nonzero;stroke:#ff6347;stroke-width:0.7;stroke-linecap:butt;stroke-linejoin:miter;stroke-miterlimit:10;stroke-dasharray:none;stroke-opacity:1"
       transform="matrix(1.0520227,0,0,1.0520227,77.008093,325.48225)"
       clip-path="url(#clipPath30)" />
    <path
       id="path31"
       d="m 281.0184,-48.837101 h -54 v 18 h 54 z"
       style="fill:none;stroke:#000000;stroke-width:2;stroke-linecap:butt;stroke-linejoin:miter;stroke-miterlimit:10;stroke-dasharray:none;stroke-opacity:1"
       transform="matrix(1.0520227,0,0,1.0520227,77.008093,325.48225)"
       clip-path="url(#clipPath32)" />
    <path
       id="path33"
       d="m 254.0184,-30.837101 c 0,37.2153011 -76.21139,40.5589009 -89.90561,10.030701"
       style="fill:none;stroke:#ff6347;stroke-width:0.7;stroke-linecap:butt;stroke-linejoin:miter;stroke-miterlimit:10;stroke-dasharray:none;stroke-opacity:1"
       transform="matrix(1.0520227,0,0,1.0520227,77.008093,325.48225)"
       clip-path="url(#clipPath34)" />
    <path
       id="path35"
       d="m 160.6362,-20.3328 1.3822,-10.504301 5.4701,9.073502 z"
       style="fill:#ff6347;fill-opacity:1;fill-rule:nonzero;stroke:#ff6347;stroke-width:0.7;stroke-linecap:butt;stroke-linejoin:miter;stroke-miterlimit:10;stroke-dasharray:none;stroke-opacity:1"
       transform="matrix(1.0520227,0,0,1.0520227,77.008093,325.48225)"
       clip-path="url(#clipPath36)" />
    <path
       id="path37"
       d="m 281.12381,-39.837101 c 11.23669,0 24.29398,0 35.73779,0"
       style="fill:none;stroke:#0000ff;stroke-width:1.5;stroke-linecap:butt;stroke-linejoin:miter;stroke-miterlimit:10;stroke-dasharray:none;stroke-opacity:1"
       transform="matrix(1.0520227,0,0,1.0520227,77.008093,325.48225)"
       clip-path="url(#clipPath38)" />
    <path
       id="path39"
       d="m 254.0184,-30.837101 c 0,37.2153011 76.21131,40.5589009 89.90549,10.030701"
       style="fill:none;stroke:#ff6347;stroke-width:0.7;stroke-linecap:butt;stroke-linejoin:miter;stroke-miterlimit:10;stroke-dasharray:none;stroke-opacity:1"
       transform="matrix(1.0520227,0,0,1.0520227,77.008093,325.48225)"
       clip-path="url(#clipPath40)" />
    <path
       id="path41"
       d="m 340.54819,-21.763599 5.47021,-9.073502 1.38211,10.504301 z"
       style="fill:#ff6347;fill-opacity:1;fill-rule:nonzero;stroke:#ff6347;stroke-width:0.7;stroke-linecap:butt;stroke-linejoin:miter;stroke-miterlimit:10;stroke-dasharray:none;stroke-opacity:1"
       transform="matrix(1.0520227,0,0,1.0520227,77.008093,325.48225)"
       clip-path="url(#clipPath42)" />
    <path
       id="path43"
       d="m 465.0184,-48.837101 h -54 v 18 h 54 z"
       style="fill:none;stroke:#000000;stroke-width:2;stroke-linecap:butt;stroke-linejoin:miter;stroke-miterlimit:10;stroke-dasharray:none;stroke-opacity:1"
       transform="matrix(1.0520227,0,0,1.0520227,77.008093,325.48225)"
       clip-path="url(#clipPath44)" />
    <path
       id="path45"
       d="m 465.12381,-39.837101 c 11.23669,0 24.29398,0 35.73779,0"
       style="fill:none;stroke:#0000ff;stroke-width:1.5;stroke-linecap:butt;stroke-linejoin:miter;stroke-miterlimit:10;stroke-dasharray:none;stroke-opacity:1"
       transform="matrix(1.0520227,0,0,1.0520227,77.008093,325.48225)"
       clip-path="url(#clipPath46)" />
    <path
       id="path47"
       d="m 438.0184,-30.837101 c 0,37.2153011 76.21128,40.5589009 89.90549,10.030701"
       style="fill:none;stroke:#ff6347;stroke-width:0.7;stroke-linecap:butt;stroke-linejoin:miter;stroke-miterlimit:10;stroke-dasharray:none;stroke-opacity:1"
       transform="matrix(1.0520227,0,0,1.0520227,77.008093,325.48225)"
       clip-path="url(#clipPath48)" />
    <path
       id="path49"
       d="m 524.54822,-21.763599 5.47015,-9.073502 1.38214,10.504301 z"
       style="fill:#ff6347;fill-opacity:1;fill-rule:nonzero;stroke:#ff6347;stroke-width:0.7;stroke-linecap:butt;stroke-linejoin:miter;stroke-miterlimit:10;stroke-dasharray:none;stroke-opacity:1"
       transform="matrix(1.0520227,0,0,1.0520227,77.008093,325.48225)"
       clip-path="url(#clipPath50)" />
    <path
       id="path51"
       d="m 438.0184,-30.837101 c 0,37.2153011 -76.21139,40.5589009 -89.90561,10.030701"
       style="fill:none;stroke:#ff6347;stroke-width:0.7;stroke-linecap:butt;stroke-linejoin:miter;stroke-miterlimit:10;stroke-dasharray:none;stroke-opacity:1"
       transform="matrix(1.0520227,0,0,1.0520227,77.008093,325.48225)"
       clip-path="url(#clipPath52)" />
    <path
       id="path53"
       d="m 344.6362,-20.3328 1.3822,-10.504301 5.47009,9.073502 z"
       style="fill:#ff6347;fill-opacity:1;fill-rule:nonzero;stroke:#ff6347;stroke-width:0.7;stroke-linecap:butt;stroke-linejoin:miter;stroke-miterlimit:10;stroke-dasharray:none;stroke-opacity:1"
       transform="matrix(1.0520227,0,0,1.0520227,77.008093,325.48225)"
       clip-path="url(#clipPath54)" />
    <path
       id="path55"
       d="m 97.018402,-38.594398 c 0,0 0,-2.485302 0,-2.485302 0,-1.242699 -1.178902,-2.8783 -2.357803,-3.271199 0,0 -11.100701,-3.700302 -11.100701,-3.700302 -1.178901,-0.392898 -3.600395,-0.7859 -4.843101,-0.7859 0,0 -17.396896,0 -17.396896,0 -1.242699,0 -3.6642,0.393002 -4.843102,0.7859 0,0 -11.1007,3.700302 -11.1007,3.700302 -1.178898,0.392899 -2.357701,2.0285 -2.357701,3.271199 0,0 0,2.485302 0,2.485302 0,1.242599 1.178803,2.878196 2.357701,3.271198 0,0 11.1007,3.700201 11.1007,3.700201 1.178902,0.392999 3.600403,0.785898 4.843102,0.785898 0,0 17.396896,0 17.396896,0 1.242706,0 3.6642,-0.392899 4.843101,-0.785898 0,0 11.100701,-3.700201 11.100701,-3.700201 1.178901,-0.393002 2.357803,-2.028599 2.357803,-3.271198"
       style="fill:none;stroke:#000000;stroke-width:0.5;stroke-linecap:butt;stroke-linejoin:miter;stroke-miterlimit:10;stroke-dasharray:none;stroke-opacity:1"
       transform="matrix(1.0520227,0,0,1.0520227,77.008093,325.48225)"
       clip-path="url(#clipPath56)" />
    <path
       id="path57"
       d="m 97.123802,-39.837101 c 11.236698,0 24.293998,0 35.737798,0"
       style="fill:none;stroke:#0000ff;stroke-width:1.5;stroke-linecap:butt;stroke-linejoin:miter;stroke-miterlimit:10;stroke-dasharray:none;stroke-opacity:1"
       transform="matrix(1.0520227,0,0,1.0520227,77.008093,325.48225)"
       clip-path="url(#clipPath58)" />
    <path
       id="path59"
       d="m 649.01837,-38.594398 c 0,0 0,-2.485302 0,-2.485302 0,-1.242699 -1.17889,-2.8783 -2.35779,-3.271199 0,0 -11.1007,-3.700302 -11.1007,-3.700302 -1.1789,-0.392898 -3.60041,-0.7859 -4.84308,-0.7859 0,0 -17.39691,0 -17.39691,0 -1.24268,0 -3.66419,0.393002 -4.84308,0.7859 0,0 -11.10071,3.700302 -11.10071,3.700302 -1.1789,0.392899 -2.35773,2.0285 -2.35773,3.271199 0,0 0,2.485302 0,2.485302 0,1.242599 1.17883,2.878196 2.35773,3.271198 0,0 11.10071,3.700201 11.10071,3.700201 1.17889,0.392999 3.6004,0.785898 4.84308,0.785898 0,0 17.39691,0 17.39691,0 1.24267,0 3.66418,-0.392899 4.84308,-0.785898 0,0 11.1007,-3.700201 11.1007,-3.700201 1.1789,-0.393002 2.35779,-2.028599 2.35779,-3.271198"
       style="fill:none;stroke:#000000;stroke-width:0.5;stroke-linecap:butt;stroke-linejoin:miter;stroke-miterlimit:10;stroke-dasharray:none;stroke-opacity:1"
       transform="matrix(1.0520227,0,0,1.0520227,77.008093,325.48225)"
       clip-path="url(#clipPath60)" />
    <path
       id="path61"
       d="m 191.1277,-39.837101 c 8.1588,0 17.1409,0 25.7002,0"
       style="fill:none;stroke:#0000ff;stroke-width:1.5;stroke-linecap:butt;stroke-linejoin:miter;stroke-miterlimit:10;stroke-dasharray:none;stroke-opacity:1"
       transform="matrix(1.0520227,0,0,1.0520227,77.008093,325.48225)"
       clip-path="url(#clipPath62)" />
    <path
       id="path63"
       d="m 216.97501,-43.3372 9.99989,3.500099 -10,3.499901 z"
       style="fill:#0000ff;fill-opacity:1;fill-rule:nonzero;stroke:#0000ff;stroke-width:1.5;stroke-linecap:butt;stroke-linejoin:miter;stroke-miterlimit:10;stroke-dasharray:none;stroke-opacity:1"
       transform="matrix(1.0520227,0,0,1.0520227,77.008093,325.48225)"
       clip-path="url(#clipPath64)" />
    <path
       id="path65"
       d="m 559.12769,-39.837101 c 8.15881,0 17.14093,0 25.70019,0"
       style="fill:none;stroke:#0000ff;stroke-width:1.5;stroke-linecap:butt;stroke-linejoin:miter;stroke-miterlimit:10;stroke-dasharray:none;stroke-opacity:1"
       transform="matrix(1.0520227,0,0,1.0520227,77.008093,325.48225)"
       clip-path="url(#clipPath66)" />
    <path
       id="path67"
       d="m 584.97498,-43.3372 9.99993,3.500099 -10,3.499901 z"
       style="fill:#0000ff;fill-opacity:1;fill-rule:nonzero;stroke:#0000ff;stroke-width:1.5;stroke-linecap:butt;stroke-linejoin:miter;stroke-miterlimit:10;stroke-dasharray:none;stroke-opacity:1"
       transform="matrix(1.0520227,0,0,1.0520227,77.008093,325.48225)"
       clip-path="url(#clipPath68)" />
    <path
       id="path69"
       d="m 375.12769,-39.837101 c 8.15881,0 17.1409,0 25.70022,0"
       style="fill:none;stroke:#0000ff;stroke-width:1.5;stroke-linecap:butt;stroke-linejoin:miter;stroke-miterlimit:10;stroke-dasharray:none;stroke-opacity:1"
       transform="matrix(1.0520227,0,0,1.0520227,77.008093,325.48225)"
       clip-path="url(#clipPath70)" />
    <path
       id="path71"
       d="m 400.97501,-43.3372 9.9999,3.500099 -10,3.499901 z"
       style="fill:#0000ff;fill-opacity:1;fill-rule:nonzero;stroke:#0000ff;stroke-width:1.5;stroke-linecap:butt;stroke-linejoin:miter;stroke-miterlimit:10;stroke-dasharray:none;stroke-opacity:1"
       transform="matrix(1.0520227,0,0,1.0520227,77.008093,325.48225)"
       clip-path="url(#clipPath72)" />
    <text
       xml:space="preserve"
       style="font-weight:bold;font-size:8px;font-family:'Noto Sans';-inkscape-font-specification:'Noto Sans Bold';writing-mode:lr-tb;direction:ltr;fill:#000000;fill-opacity:0.672241;stroke-width:0"
       x="137.59378"
       y="286.56979"
       id="text17"><tspan
         sodipodi:role="line"
         id="tspan17"
         x="137.59378"
         y="286.56979"
         style="font-style:normal;font-variant:normal;font-weight:normal;font-stretch:normal;font-size:8px;font-family:'Noto Sans';-inkscape-font-specification:'Noto Sans';fill:#000000">Source</tspan></text>
    <text
       xml:space="preserve"
       style="font-weight:bold;font-size:8px;font-family:'Noto Sans';-inkscape-font-specification:'Noto Sans Bold';writing-mode:lr-tb;direction:ltr;fill:#000000;fill-opacity:0.672241;stroke-width:0"
       x="337.65491"
       y="285.6098"
       id="text17-6"><tspan
         sodipodi:role="line"
         id="tspan17-1"
         x="337.65491"
         y="285.6098"
         style="font-style:normal;font-variant:normal;font-weight:normal;font-stretch:normal;font-size:8px;font-family:'Noto Sans';-inkscape-font-specification:'Noto Sans';fill:#000000">Prey</tspan></text>
    <text
       xml:space="preserve"
       style="font-weight:bold;font-size:8px;font-family:'Noto Sans';-inkscape-font-specification:'Noto Sans Bold';writing-mode:lr-tb;direction:ltr;fill:#000000;fill-opacity:0.672241;stroke-width:0"
       x="234.76228"
       y="285.79379"
       id="text17-6-3"><tspan
         sodipodi:role="line"
         id="tspan17-1-3"
         x="234.76228"
         y="285.79379"
         style="font-style:normal;font-variant:normal;font-weight:normal;font-stretch:normal;font-size:8px;font-family:'Noto Sans';-inkscape-font-specification:'Noto Sans';fill:#000000">growth</tspan></text>
    <text
       xml:space="preserve"
       style="font-weight:bold;font-size:8px;font-family:'Noto Sans';-inkscape-font-specification:'Noto Sans Bold';writing-mode:lr-tb;direction:ltr;fill:#000000;fill-opacity:0.672241;stroke-width:0"
       x="723.98444"
       y="286.71381"
       id="text17-6-3-89"><tspan
         sodipodi:role="line"
         id="tspan17-1-3-3"
         x="723.98444"
         y="286.71381"
         style="font-style:normal;font-variant:normal;font-weight:normal;font-stretch:normal;font-size:8px;font-family:'Noto Sans';-inkscape-font-specification:'Noto Sans';fill:#000000">Sink</tspan></text>
    <text
       xml:space="preserve"
       style="font-weight:bold;font-size:8px;font-family:'Noto Sans';-inkscape-font-specification:'Noto Sans Bold';writing-mode:lr-tb;direction:ltr;fill:#000000;fill-opacity:0.672241;stroke-width:0"
       x="253.1691"
       y="242.0376"
       id="text17-6-3-2"><tspan
         sodipodi:role="line"
         id="tspan17-1-3-4"
         x="253.1691"
         y="242.0376"
         style="font-style:normal;font-variant:normal;font-weight:normal;font-stretch:normal;font-size:8px;font-family:'Noto Sans';-inkscape-font-specification:'Noto Sans';fill:#000000">grazing intensity</tspan></text>
    <text
       xml:space="preserve"
       style="font-weight:bold;font-size:8px;font-family:'Noto Sans';-inkscape-font-specification:'Noto Sans Bold';writing-mode:lr-tb;direction:ltr;fill:#000000;fill-opacity:0.672241;stroke-width:0"
       x="287.14954"
       y="208.92459"
       id="text17-6-3-2-9"><tspan
         sodipodi:role="line"
         id="tspan17-1-3-4-0"
         x="287.14954"
         y="208.92459"
         style="font-style:normal;font-variant:normal;font-weight:normal;font-stretch:normal;font-size:8px;font-family:'Noto Sans';-inkscape-font-specification:'Noto Sans';fill:#000000">growth efficiency</tspan></text>
    <text
       xml:space="preserve"
       style="font-weight:bold;font-size:8px;font-family:'Noto Sans';-inkscape-font-specification:'Noto Sans Bold';writing-mode:lr-tb;direction:ltr;fill:#000000;fill-opacity:0.672241;stroke-width:0"
       x="91.56604"
       y="222.98479"
       id="text17-6-3-2-9-6"><tspan
         sodipodi:role="line"
         id="tspan17-1-3-4-0-6"
         x="91.56604"
         y="222.98479"
         style="font-style:normal;font-variant:normal;font-weight:normal;font-stretch:normal;font-size:8px;font-family:'Noto Sans';-inkscape-font-specification:'Noto Sans';fill:#000000">growth rate</tspan></text>
    <text
       xml:space="preserve"
       style="font-weight:bold;font-size:8px;font-family:'Noto Sans';-inkscape-font-specification:'Noto Sans Bold';writing-mode:lr-tb;direction:ltr;fill:#000000;fill-opacity:0.672241;stroke-width:0"
       x="428.46777"
       y="285.70181"
       id="text17-6-3-8"><tspan
         sodipodi:role="line"
         id="tspan17-1-3-7"
         x="428.46777"
         y="285.70181"
         style="font-style:normal;font-variant:normal;font-weight:normal;font-stretch:normal;font-size:8px;font-family:'Noto Sans';-inkscape-font-specification:'Noto Sans';fill:#000000">grazing</tspan></text>
    <text
       xml:space="preserve"
       style="font-weight:bold;font-size:8px;font-family:'Noto Sans';-inkscape-font-specification:'Noto Sans Bold';writing-mode:lr-tb;direction:ltr;fill:#000000;fill-opacity:0.672241;stroke-width:0"
       x="617.46411"
       y="285.79379"
       id="text17-6-3-8-9"><tspan
         sodipodi:role="line"
         id="tspan17-1-3-7-3"
         x="617.46411"
         y="285.79379"
         style="font-style:normal;font-variant:normal;font-weight:normal;font-stretch:normal;font-size:8px;font-family:'Noto Sans';-inkscape-font-specification:'Noto Sans';fill:#000000">mortality</tspan></text>
    <text
       xml:space="preserve"
       style="font-weight:bold;font-size:8px;font-family:'Noto Sans';-inkscape-font-specification:'Noto Sans Bold';writing-mode:lr-tb;direction:ltr;fill:#000000;fill-opacity:0.672241;stroke-width:0"
       x="463.00317"
       y="238.25722"
       id="text17-6-3-8-9-5"><tspan
         sodipodi:role="line"
         id="tspan17-1-3-7-3-0"
         x="463.00317"
         y="238.25722"
         style="font-style:normal;font-variant:normal;font-weight:normal;font-stretch:normal;font-size:8px;font-family:'Noto Sans';-inkscape-font-specification:'Noto Sans';fill:#000000">mortality rate</tspan></text>
    <text
       xml:space="preserve"
       style="font-weight:bold;font-size:8px;font-family:'Noto Sans';-inkscape-font-specification:'Noto Sans Bold';writing-mode:lr-tb;direction:ltr;fill:#000000;fill-opacity:0.672241;stroke-width:0"
       x="522.84027"
       y="286.71381"
       id="text17-6-9"><tspan
         sodipodi:role="line"
         id="tspan17-1-5"
         x="522.84027"
         y="286.71381"
         style="font-style:normal;font-variant:normal;font-weight:normal;font-stretch:normal;font-size:8px;font-family:'Noto Sans';-inkscape-font-specification:'Noto Sans';fill:#000000">Predator</tspan></text>
  </g>
</svg>
