<?xml version="1.0" encoding="UTF-8" standalone="no"?>
<svg
   width="295"
   height="103"
   viewBox="0 0 295 103"
   version="1.1"
   id="svg17"
   sodipodi:docname="graph_exponential_en.svg"
   inkscape:version="1.4.4 (dcaf3e7, 2026-05-05)"
   xmlns:inkscape="http://www.inkscape.org/namespaces/inkscape"
   xmlns:sodipodi="http://sodipodi.sourceforge.net/DTD/sodipodi-0.dtd"
   xmlns="http://www.w3.org/2000/svg"
   xmlns:svg="http://www.w3.org/2000/svg">
  <defs
     id="defs17" />
  <sodipodi:namedview
     id="namedview17"
     pagecolor="#ffffff"
     bordercolor="#000000"
     borderopacity="0.25"
     inkscape:showpageshadow="2"
     inkscape:pageopacity="0.0"
     inkscape:pagecheckerboard="0"
     inkscape:deskcolor="#d1d1d1"
     inkscape:zoom="12.4"
     inkscape:cx="35.322581"
     inkscape:cy="51.491935"
     inkscape:window-width="3840"
     inkscape:window-height="2036"
     inkscape:window-x="3348"
     inkscape:window-y="-12"
     inkscape:window-maximized="1"
     inkscape:current-layer="svg17" />
  <path
     fill="none"
     stroke-width="0.7"
     stroke-linecap="butt"
     stroke-linejoin="miter"
     stroke="rgb(0%, 0%, 0%)"
     stroke-opacity="1"
     stroke-miterlimit="4"
     d="M 89.688075 -82.56693 C 89.688075 -75.168993 83.691024 -69.168007 76.293087 -69.168007 C 68.89515 -69.168007 62.898098 -75.168993 62.898098 -82.56693 C 62.898098 -89.964867 68.89515 -95.961918 76.293087 -95.961918 C 83.691024 -95.961918 89.688075 -89.964867 89.688075 -82.56693 Z M 89.688075 -82.56693 "
     transform="matrix(0.992675, 0, 0, 0.992675, 4.738387, 99.032472)"
     id="path1" />
  <path
     fill-rule="nonzero"
     fill="rgb(0%, 0%, 0%)"
     fill-opacity="1"
     d="M 81.472656 15.125 C 81.660156 15.125 81.828125 15.140625 81.980469 15.171875 L 81.890625 15.769531 C 81.714844 15.734375 81.558594 15.714844 81.425781 15.710938 C 81.082031 15.714844 80.785156 15.851562 80.542969 16.128906 C 80.296875 16.410156 80.179688 16.757812 80.179688 17.171875 L 80.179688 19.453125 L 79.535156 19.453125 L 79.535156 15.203125 L 80.066406 15.203125 L 80.140625 15.988281 L 80.171875 15.988281 C 80.324219 15.71875 80.515625 15.503906 80.738281 15.347656 C 80.960938 15.203125 81.207031 15.125 81.472656 15.125 Z M 78.851562 10.964844 "
     id="path2" />
  <path
     fill="none"
     stroke-width="0.5"
     stroke-linecap="butt"
     stroke-linejoin="miter"
     stroke="rgb(0%, 0%, 0%)"
     stroke-opacity="1"
     stroke-miterlimit="4"
     d="M 185.294606 -42.566914 L 171.793371 -51.566426 L 144.794836 -51.566426 L 131.2936 -42.566914 L 144.794836 -33.567403 L 171.793371 -33.567403 Z M 185.294606 -42.566914 "
     transform="matrix(0.992675, 0, 0, 0.992675, 4.738387, 99.032472)"
     id="path4" />
  <path
     fill="none"
     stroke-width="0.7"
     stroke-linecap="butt"
     stroke-linejoin="miter"
     stroke="rgb(100%, 38.823529%, 27.843137%)"
     stroke-opacity="1"
     stroke-miterlimit="4"
     d="M 89.294567 -82.56693 C 119.102745 -82.56693 150.300003 -84.624973 156.985691 -61.652018 "
     transform="matrix(0.992675, 0, 0, 0.992675, 4.738387, 99.032472)"
     id="path6" />
  <path
     fill-rule="nonzero"
     fill="rgb(100%, 38.823529%, 27.843137%)"
     fill-opacity="1"
     stroke-width="0.7"
     stroke-linecap="butt"
     stroke-linejoin="miter"
     stroke="rgb(100%, 38.823529%, 27.843137%)"
     stroke-opacity="1"
     stroke-miterlimit="4"
     d="M 160.476101 -61.935343 L 158.292136 -51.566426 L 153.534632 -61.034211 Z M 160.476101 -61.935343 "
     transform="matrix(0.992675, 0, 0, 0.992675, 4.738387, 99.032472)"
     id="path7" />
  <path
     fill="none"
     stroke-width="2"
     stroke-linecap="butt"
     stroke-linejoin="miter"
     stroke="rgb(0%, 0%, 0%)"
     stroke-opacity="1"
     stroke-miterlimit="4"
     d="M 287.854411 -51.168984 L 228.966045 -51.168984 L 228.966045 -33.96091 L 287.854411 -33.96091 Z M 287.854411 -51.168984 "
     transform="matrix(0.992675, 0, 0, 0.992675, 4.738387, 99.032472)"
     id="path8" />
  <path
     fill="none"
     stroke-width="0.7"
     stroke-linecap="butt"
     stroke-linejoin="miter"
     stroke="rgb(100%, 38.823529%, 27.843137%)"
     stroke-opacity="1"
     stroke-miterlimit="4"
     d="M 258.40826 -33.567403 C 258.40826 7.278654 174.044232 10.631336 160.204581 -23.513291 "
     transform="matrix(0.992675, 0, 0, 0.992675, 4.738387, 99.032472)"
     id="path10" />
  <path
     fill-rule="nonzero"
     fill="rgb(100%, 38.823529%, 27.843137%)"
     fill-opacity="1"
     stroke-width="0.7"
     stroke-linecap="butt"
     stroke-linejoin="miter"
     stroke="rgb(100%, 38.823529%, 27.843137%)"
     stroke-opacity="1"
     stroke-miterlimit="4"
     d="M 156.722042 -23.088303 L 158.292136 -33.567403 L 163.600549 -24.394748 Z M 156.722042 -23.088303 "
     transform="matrix(0.992675, 0, 0, 0.992675, 4.738387, 99.032472)"
     id="path11" />
  <path
     fill-rule="nonzero"
     fill="rgb(0%, 0%, 0%)"
     fill-opacity="1"
     d="M 211.003906 85.589844 L 211.003906 89.398438 L 214.808594 89.398438 L 214.808594 90.492188 L 211.003906 90.492188 L 211.003906 94.300781 L 209.917969 94.300781 L 209.917969 90.492188 L 206.113281 90.492188 L 206.113281 89.398438 L 209.917969 89.398438 L 209.917969 85.589844 Z M 204.636719 81.402344 "
     id="path12" />
  <path
     fill="none"
     stroke-width="0.5"
     stroke-linecap="butt"
     stroke-linejoin="miter"
     stroke="rgb(0%, 0%, 0%)"
     stroke-opacity="1"
     stroke-miterlimit="4"
     d="M 94.29211 -41.323431 C 94.29211 -41.323431 94.29211 -43.810397 94.29211 -43.810397 C 94.29211 -45.049945 93.182419 -46.848274 92.068794 -47.407054 C 92.068794 -47.407054 85.973366 -50.456735 85.973366 -50.456735 C 84.85974 -51.011581 82.506567 -51.566426 81.263084 -51.566426 C 81.263084 -51.566426 71.32309 -51.566426 71.32309 -51.566426 C 70.079607 -51.566426 67.726433 -51.011581 66.612807 -50.456735 C 66.612807 -50.456735 60.517379 -47.407054 60.517379 -47.407054 C 59.403754 -46.848274 58.294063 -45.049945 58.294063 -43.810397 C 58.294063 -43.810397 58.294063 -41.323431 58.294063 -41.323431 C 58.294063 -40.079948 59.403754 -38.28162 60.517379 -37.726775 C 60.517379 -37.726775 66.612807 -34.677093 66.612807 -34.677093 C 67.726433 -34.122248 70.079607 -33.567403 71.32309 -33.567403 C 71.32309 -33.567403 81.263084 -33.567403 81.263084 -33.567403 C 82.506567 -33.567403 84.85974 -34.122248 85.973366 -34.677093 C 85.973366 -34.677093 92.068794 -37.726775 92.068794 -37.726775 C 93.182419 -38.28162 94.29211 -40.079948 94.29211 -41.323431 "
     transform="matrix(0.992675, 0, 0, 0.992675, 4.738387, 99.032472)"
     id="path13" />
  <path
     fill="none"
     stroke-width="1.5"
     stroke-linecap="butt"
     stroke-linejoin="miter"
     stroke="rgb(0%, 0%, 100%)"
     stroke-opacity="1"
     stroke-miterlimit="4"
     d="M 94.492799 -42.566914 C 105.247353 -42.566914 119.079134 -42.566914 131.108652 -42.566914 "
     transform="matrix(0.992675, 0, 0, 0.992675, 4.738387, 99.032472)"
     id="path15" />
  <path
     fill="none"
     stroke-width="1.5"
     stroke-linecap="butt"
     stroke-linejoin="miter"
     stroke="rgb(0%, 0%, 100%)"
     stroke-opacity="1"
     stroke-miterlimit="4"
     d="M 185.385113 -42.566914 C 195.7619 -42.566914 207.815028 -42.566914 219.104752 -42.566914 "
     transform="matrix(0.992675, 0, 0, 0.992675, 4.738387, 99.032472)"
     id="path16" />
  <path
     fill-rule="nonzero"
     fill="rgb(0%, 0%, 100%)"
     fill-opacity="1"
     stroke-width="1.5"
     stroke-linecap="butt"
     stroke-linejoin="miter"
     stroke="rgb(0%, 0%, 100%)"
     stroke-opacity="1"
     stroke-miterlimit="4"
     d="M 219.187389 -46.065194 L 229.186409 -42.566914 L 219.187389 -39.064699 Z M 219.187389 -46.065194 "
     transform="matrix(0.992675, 0, 0, 0.992675, 4.738387, 99.032472)"
     id="path17" />
  <text
     xml:space="preserve"
     style="font-weight:bold;font-size:8px;font-family:'Noto Sans';-inkscape-font-specification:'Noto Sans Bold';writing-mode:lr-tb;direction:ltr;fill:#000000;fill-opacity:0.672241;stroke-width:0"
     x="67.822578"
     y="59.354839"
     id="text17"><tspan
       sodipodi:role="line"
       id="tspan17"
       x="67.822578"
       y="59.354839"
       style="font-style:normal;font-variant:normal;font-weight:normal;font-stretch:normal;font-size:8px;font-family:'Noto Sans';-inkscape-font-specification:'Noto Sans';fill:#000000">Source</tspan></text>
  <text
     xml:space="preserve"
     style="font-weight:bold;font-size:8px;font-family:'Noto Sans';-inkscape-font-specification:'Noto Sans Bold';writing-mode:lr-tb;direction:ltr;fill:#000000;fill-opacity:0.672241;stroke-width:0"
     x="4.7532849"
     y="34.630718"
     id="text17-5"><tspan
       sodipodi:role="line"
       id="tspan17-5"
       x="4.7532849"
       y="34.630718"
       style="font-style:normal;font-variant:normal;font-weight:normal;font-stretch:normal;font-size:8px;font-family:'Noto Sans';-inkscape-font-specification:'Noto Sans';fill:#000000">reproduction rate</tspan></text>
  <text
     xml:space="preserve"
     style="font-weight:bold;font-size:8px;font-family:'Noto Sans';-inkscape-font-specification:'Noto Sans Bold';writing-mode:lr-tb;direction:ltr;fill:#000000;fill-opacity:0.672241;stroke-width:0"
     x="149.35007"
     y="58.985558"
     id="text17-9"><tspan
       sodipodi:role="line"
       id="tspan17-4"
       x="149.35007"
       y="58.985558"
       style="font-style:normal;font-variant:normal;font-weight:normal;font-stretch:normal;font-size:8px;font-family:'Noto Sans';-inkscape-font-specification:'Noto Sans';fill:#000000">growth</tspan></text>
  <text
     xml:space="preserve"
     style="font-weight:bold;font-size:8px;font-family:'Noto Sans';-inkscape-font-specification:'Noto Sans Bold';writing-mode:lr-tb;direction:ltr;fill:#000000;fill-opacity:0.672241;stroke-width:0"
     x="237.38258"
     y="59.741291"
     id="text17-9-8"><tspan
       sodipodi:role="line"
       id="tspan17-4-2"
       x="237.38258"
       y="59.741291"
       style="font-style:normal;font-variant:normal;font-weight:normal;font-stretch:normal;font-size:8px;font-family:'Noto Sans';-inkscape-font-specification:'Noto Sans';fill:#000000">Population N</tspan></text>
</svg>
