<?xml version="1.0" encoding="UTF-8" standalone="no"?>
<svg
   width="324"
   height="152"
   viewBox="0 0 324 152"
   version="1.1"
   id="svg22"
   sodipodi:docname="graph_logistic_en.svg"
   inkscape:version="1.4.4 (dcaf3e7, 2026-05-05)"
   xmlns:inkscape="http://www.inkscape.org/namespaces/inkscape"
   xmlns:sodipodi="http://sodipodi.sourceforge.net/DTD/sodipodi-0.dtd"
   xmlns="http://www.w3.org/2000/svg"
   xmlns:svg="http://www.w3.org/2000/svg">
  <defs
     id="defs22" />
  <sodipodi:namedview
     id="namedview22"
     pagecolor="#ffffff"
     bordercolor="#000000"
     borderopacity="0.25"
     inkscape:showpageshadow="2"
     inkscape:pageopacity="0.0"
     inkscape:pagecheckerboard="0"
     inkscape:deskcolor="#d1d1d1"
     inkscape:zoom="5.6450617"
     inkscape:cx="107.61618"
     inkscape:cy="76.084199"
     inkscape:window-width="3840"
     inkscape:window-height="2036"
     inkscape:window-x="3348"
     inkscape:window-y="-12"
     inkscape:window-maximized="1"
     inkscape:current-layer="svg22" />
  <path
     fill="none"
     stroke-width="0.7"
     stroke-linecap="butt"
     stroke-linejoin="miter"
     stroke="rgb(0%, 0%, 0%)"
     stroke-opacity="1"
     stroke-miterlimit="4"
     d="M 118.78528 -131.564352 C 118.78528 -124.16818 112.786687 -118.169587 105.390515 -118.169587 C 97.990418 -118.169587 91.991824 -124.16818 91.991824 -131.564352 C 91.991824 -138.964449 97.990418 -144.963043 105.390515 -144.963043 C 112.786687 -144.963043 118.78528 -138.964449 118.78528 -131.564352 Z M 118.78528 -131.564352 "
     transform="matrix(0.995025, 0, 0, 0.995025, 4.422874, 148.023089)"
     id="path1" />
  <path
     fill-rule="nonzero"
     fill="rgb(0%, 0%, 0%)"
     fill-opacity="1"
     d="M 110.292969 15.160156 C 110.480469 15.160156 110.648438 15.175781 110.800781 15.207031 L 110.710938 15.804688 C 110.53125 15.769531 110.378906 15.75 110.246094 15.746094 C 109.898438 15.75 109.605469 15.890625 109.359375 16.167969 C 109.113281 16.449219 108.992188 16.796875 108.992188 17.210938 L 108.992188 19.496094 L 108.347656 19.496094 L 108.347656 15.238281 L 108.882812 15.238281 L 108.953125 16.027344 L 108.984375 16.027344 C 109.140625 15.753906 109.332031 15.539062 109.558594 15.386719 C 109.777344 15.238281 110.023438 15.160156 110.292969 15.160156 Z M 107.664062 10.988281 "
     id="path2" />
  <path
     fill="none"
     stroke-width="0.5"
     stroke-linecap="butt"
     stroke-linejoin="miter"
     stroke="rgb(0%, 0%, 0%)"
     stroke-opacity="1"
     stroke-miterlimit="4"
     d="M 214.389828 -42.566894 L 200.889066 -51.564784 L 173.887544 -51.564784 L 160.390709 -42.566894 L 173.887544 -33.565078 L 200.889066 -33.565078 Z M 214.389828 -42.566894 "
     transform="matrix(0.995025, 0, 0, 0.995025, 4.422874, 148.023089)"
     id="path4" />
  <path
     fill="none"
     stroke-width="0.7"
     stroke-linecap="butt"
     stroke-linejoin="miter"
     stroke="rgb(100%, 38.823529%, 27.843137%)"
     stroke-opacity="1"
     stroke-miterlimit="4"
     d="M 118.388776 -131.564352 C 161.858951 -131.564352 183.980727 -103.243767 187.023208 -61.783593 "
     transform="matrix(0.995025, 0, 0, 0.995025, 4.422874, 148.023089)"
     id="path6" />
  <path
     fill-rule="nonzero"
     fill="rgb(100%, 38.823529%, 27.843137%)"
     fill-opacity="1"
     stroke-width="0.7"
     stroke-linecap="butt"
     stroke-linejoin="miter"
     stroke="rgb(100%, 38.823529%, 27.843137%)"
     stroke-opacity="1"
     stroke-miterlimit="4"
     d="M 190.52893 -61.685448 L 187.388305 -51.564784 L 183.533188 -61.434198 Z M 190.52893 -61.685448 "
     transform="matrix(0.995025, 0, 0, 0.995025, 4.422874, 148.023089)"
     id="path7" />
  <path
     fill="none"
     stroke-width="0.7"
     stroke-linecap="butt"
     stroke-linejoin="miter"
     stroke="rgb(0%, 0%, 0%)"
     stroke-opacity="1"
     stroke-miterlimit="4"
     d="M 120.685358 -84.5649 C 120.685358 -76.120545 113.83487 -69.270057 105.390515 -69.270057 C 96.942234 -69.270057 90.091746 -76.120545 90.091746 -84.5649 C 90.091746 -93.013181 96.942234 -99.863669 105.390515 -99.863669 C 113.83487 -99.863669 120.685358 -93.013181 120.685358 -84.5649 Z M 120.685358 -84.5649 "
     transform="matrix(0.995025, 0, 0, 0.995025, 4.422874, 148.023089)"
     id="path8" />
  <path
     fill-rule="nonzero"
     fill="rgb(0%, 0%, 0%)"
     fill-opacity="1"
     d="M 111.730469 66.265625 L 110.953125 66.265625 L 108.882812 63.507812 L 108.285156 64.035156 L 108.285156 66.265625 L 107.625 66.265625 L 107.625 60.582031 L 108.285156 60.582031 L 108.285156 63.398438 L 110.863281 60.582031 L 111.644531 60.582031 L 109.359375 63.050781 Z M 106.84375 57.753906 "
     id="path9" />
  <path
     fill="none"
     stroke-width="0.7"
     stroke-linecap="butt"
     stroke-linejoin="miter"
     stroke="rgb(100%, 38.823529%, 27.843137%)"
     stroke-opacity="1"
     stroke-miterlimit="4"
     d="M 121.388073 -84.5649 C 150.47026 -84.5649 179.870434 -84.403943 186.159536 -61.504862 "
     transform="matrix(0.995025, 0, 0, 0.995025, 4.422874, 148.023089)"
     id="path11" />
  <path
     fill-rule="nonzero"
     fill="rgb(100%, 38.823529%, 27.843137%)"
     fill-opacity="1"
     stroke-width="0.7"
     stroke-linecap="butt"
     stroke-linejoin="miter"
     stroke="rgb(100%, 38.823529%, 27.843137%)"
     stroke-opacity="1"
     stroke-miterlimit="4"
     d="M 189.633852 -61.920995 L 187.388305 -51.564784 L 182.689145 -61.061249 Z M 189.633852 -61.920995 "
     transform="matrix(0.995025, 0, 0, 0.995025, 4.422874, 148.023089)"
     id="path12" />
  <path
     fill="none"
     stroke-width="2"
     stroke-linecap="butt"
     stroke-linejoin="miter"
     stroke="rgb(0%, 0%, 0%)"
     stroke-opacity="1"
     stroke-miterlimit="4"
     d="M 316.950859 -51.172206 L 258.060217 -51.172206 L 258.060217 -33.961582 L 316.950859 -33.961582 Z M 316.950859 -51.172206 "
     transform="matrix(0.995025, 0, 0, 0.995025, 4.422874, 148.023089)"
     id="path13" />
  <path
     fill="none"
     stroke-width="0.7"
     stroke-linecap="butt"
     stroke-linejoin="miter"
     stroke="rgb(100%, 38.823529%, 27.843137%)"
     stroke-opacity="1"
     stroke-miterlimit="4"
     d="M 287.503575 -33.565078 C 287.503575 7.278749 203.138539 10.631366 189.300161 -23.515078 "
     transform="matrix(0.995025, 0, 0, 0.995025, 4.422874, 148.023089)"
     id="path15" />
  <path
     fill-rule="nonzero"
     fill="rgb(100%, 38.823529%, 27.843137%)"
     fill-opacity="1"
     stroke-width="0.7"
     stroke-linecap="butt"
     stroke-linejoin="miter"
     stroke="rgb(100%, 38.823529%, 27.843137%)"
     stroke-opacity="1"
     stroke-miterlimit="4"
     d="M 185.817993 -23.087168 L 187.388305 -33.565078 L 192.695961 -24.394453 Z M 185.817993 -23.087168 "
     transform="matrix(0.995025, 0, 0, 0.995025, 4.422874, 148.023089)"
     id="path16" />
  <path
     fill-rule="nonzero"
     fill="rgb(0%, 0%, 0%)"
     fill-opacity="1"
     d="M 240.132812 134.546875 L 240.132812 138.363281 L 243.945312 138.363281 L 243.945312 139.464844 L 240.132812 139.464844 L 240.132812 143.28125 L 239.042969 143.28125 L 239.042969 139.464844 L 235.226562 139.464844 L 235.226562 138.363281 L 239.042969 138.363281 L 239.042969 134.546875 Z M 233.75 130.351562 "
     id="path17" />
  <path
     fill="none"
     stroke-width="0.5"
     stroke-linecap="butt"
     stroke-linejoin="miter"
     stroke="rgb(0%, 0%, 0%)"
     stroke-opacity="1"
     stroke-miterlimit="4"
     d="M 123.390222 -41.322421 C 123.390222 -41.322421 123.390222 -43.807441 123.390222 -43.807441 C 123.390222 -45.051914 122.279226 -46.849921 121.164304 -47.407382 C 121.164304 -47.407382 115.067566 -50.453788 115.067566 -50.453788 C 113.95657 -51.011249 111.601101 -51.564784 110.360554 -51.564784 C 110.360554 -51.564784 100.416551 -51.564784 100.416551 -51.564784 C 99.176004 -51.564784 96.820535 -51.011249 95.709539 -50.453788 C 95.709539 -50.453788 89.612801 -47.407382 89.612801 -47.407382 C 88.501805 -46.849921 87.390809 -45.051914 87.390809 -43.807441 C 87.390809 -43.807441 87.390809 -41.322421 87.390809 -41.322421 C 87.390809 -40.081875 88.501805 -38.283867 89.612801 -37.726406 C 89.612801 -37.726406 95.709539 -34.676074 95.709539 -34.676074 C 96.820535 -34.122539 99.176004 -33.565078 100.416551 -33.565078 C 100.416551 -33.565078 110.360554 -33.565078 110.360554 -33.565078 C 111.601101 -33.565078 113.95657 -34.122539 115.067566 -34.676074 C 115.067566 -34.676074 121.164304 -37.726406 121.164304 -37.726406 C 122.279226 -38.283867 123.390222 -40.081875 123.390222 -41.322421 "
     transform="matrix(0.995025, 0, 0, 0.995025, 4.422874, 148.023089)"
     id="path18" />
  <path
     fill="none"
     stroke-width="1.5"
     stroke-linecap="butt"
     stroke-linejoin="miter"
     stroke="rgb(0%, 0%, 100%)"
     stroke-opacity="1"
     stroke-miterlimit="4"
     d="M 123.586511 -42.566894 C 134.343151 -42.566894 148.173678 -42.566894 160.206197 -42.566894 "
     transform="matrix(0.995025, 0, 0, 0.995025, 4.422874, 148.023089)"
     id="path20" />
  <path
     fill="none"
     stroke-width="1.5"
     stroke-linecap="butt"
     stroke-linejoin="miter"
     stroke="rgb(0%, 0%, 100%)"
     stroke-opacity="1"
     stroke-miterlimit="4"
     d="M 214.480121 -42.566894 C 224.85596 -42.566894 236.912034 -42.566894 248.20258 -42.566894 "
     transform="matrix(0.995025, 0, 0, 0.995025, 4.422874, 148.023089)"
     id="path21" />
  <path
     fill-rule="nonzero"
     fill="rgb(0%, 0%, 100%)"
     fill-opacity="1"
     stroke-width="1.5"
     stroke-linecap="butt"
     stroke-linejoin="miter"
     stroke="rgb(0%, 0%, 100%)"
     stroke-opacity="1"
     stroke-miterlimit="4"
     d="M 248.285022 -46.064765 L 258.283986 -42.566894 L 248.285022 -39.065097 Z M 248.285022 -46.064765 "
     transform="matrix(0.995025, 0, 0, 0.995025, 4.422874, 148.023089)"
     id="path22" />
  <text
     xml:space="preserve"
     style="font-weight:bold;font-size:8px;font-family:'Noto Sans';-inkscape-font-specification:'Noto Sans Bold';writing-mode:lr-tb;direction:ltr;fill:#000000;fill-opacity:0.672241;stroke-width:0"
     x="19.320007"
     y="38.080002"
     id="text17-5"><tspan
       sodipodi:role="line"
       id="tspan17-5"
       x="19.320007"
       y="38.080002"
       style="font-style:normal;font-variant:normal;font-weight:normal;font-stretch:normal;font-size:8px;font-family:'Noto Sans';-inkscape-font-specification:'Noto Sans';fill:#000000">intrinsic growth rate</tspan></text>
  <text
     xml:space="preserve"
     style="font-weight:bold;font-size:8px;font-family:'Noto Sans';-inkscape-font-specification:'Noto Sans Bold';writing-mode:lr-tb;direction:ltr;fill:#000000;fill-opacity:0.672241;stroke-width:0"
     x="27.293447"
     y="81.417892"
     id="text17-5-7"><tspan
       sodipodi:role="line"
       id="tspan17-5-1"
       x="27.293447"
       y="81.417892"
       style="font-style:normal;font-variant:normal;font-weight:normal;font-stretch:normal;font-size:8px;font-family:'Noto Sans';-inkscape-font-specification:'Noto Sans';fill:#000000">carrying capacity</tspan></text>
  <text
     xml:space="preserve"
     style="font-weight:bold;font-size:8px;font-family:'Noto Sans';-inkscape-font-specification:'Noto Sans Bold';writing-mode:lr-tb;direction:ltr;fill:#000000;fill-opacity:0.672241;stroke-width:0"
     x="96.246559"
     y="108.17226"
     id="text17"><tspan
       sodipodi:role="line"
       id="tspan17"
       x="96.246559"
       y="108.17226"
       style="font-style:normal;font-variant:normal;font-weight:normal;font-stretch:normal;font-size:8px;font-family:'Noto Sans';-inkscape-font-specification:'Noto Sans';fill:#000000">Source</tspan></text>
  <text
     xml:space="preserve"
     style="font-weight:bold;font-size:8px;font-family:'Noto Sans';-inkscape-font-specification:'Noto Sans Bold';writing-mode:lr-tb;direction:ltr;fill:#000000;fill-opacity:0.672241;stroke-width:0"
     x="177.77396"
     y="107.80296"
     id="text17-9"><tspan
       sodipodi:role="line"
       id="tspan17-4"
       x="177.77396"
       y="107.80296"
       style="font-style:normal;font-variant:normal;font-weight:normal;font-stretch:normal;font-size:8px;font-family:'Noto Sans';-inkscape-font-specification:'Noto Sans';fill:#000000">growth</tspan></text>
  <text
     xml:space="preserve"
     style="font-weight:bold;font-size:8px;font-family:'Noto Sans';-inkscape-font-specification:'Noto Sans Bold';writing-mode:lr-tb;direction:ltr;fill:#000000;fill-opacity:0.672241;stroke-width:0"
     x="265.80667"
     y="108.5587"
     id="text17-9-8"><tspan
       sodipodi:role="line"
       id="tspan17-4-2"
       x="265.80667"
       y="108.5587"
       style="font-style:normal;font-variant:normal;font-weight:normal;font-stretch:normal;font-size:8px;font-family:'Noto Sans';-inkscape-font-specification:'Noto Sans';fill:#000000">Population N</tspan></text>
</svg>
